<?xml version="1.0" standalone="no"?>
<!DOCTYPE svg PUBLIC "-//W3C//DTD SVG 1.1//EN" "http://www.w3.org/Graphics/SVG/1.1/DTD/svg11.dtd" >
<svg xmlns="http://www.w3.org/2000/svg">
<metadata></metadata>
<defs>
<font id="FuturaStdCondensedBoldItalic" horiz-adv-x="1003" >
<font-face units-per-em="2048" ascent="1690" descent="-358" />
<missing-glyph horiz-adv-x="501" />
<glyph unicode="&#xfb01;" horiz-adv-x="1095" d="M145 0l127 797h-106l37 237h106l45 291q11 65 24.5 112t39.5 94t62.5 76.5t94 47.5t132.5 18q55 0 122 -24l-45 -279q-26 16 -49 16q-17 0 -31 -5t-23.5 -11.5t-17.5 -20.5t-12.5 -22t-9 -28t-6 -27t-5 -28.5t-3.5 -24.5l-29 -185h133l-37 -237h-133l-127 -797h-289z M698 0l164 1034h289l-164 -1034h-289zM872 1343q12 77 75.5 130t142.5 53q74 0 117 -56t32 -131q-12 -74 -76 -128t-139 -54t-119.5 54.5t-32.5 131.5z" />
<glyph unicode="&#xfb02;" horiz-adv-x="1095" d="M145 0l127 797h-106l37 237h106l45 291q11 65 24.5 112t39.5 94t62.5 76.5t94 47.5t132.5 18q55 0 122 -24l-45 -279q-26 16 -49 16q-17 0 -31 -5t-23.5 -11.5t-17.5 -20.5t-12.5 -22t-9 -28t-6 -27t-5 -28.5t-3.5 -24.5l-29 -185h133l-37 -237h-133l-127 -797h-289z M698 0l263 1653h288l-262 -1653h-289z" />
<glyph horiz-adv-x="0" />
<glyph horiz-adv-x="2048" />
<glyph unicode=" "  horiz-adv-x="501" />
<glyph unicode="&#x09;" horiz-adv-x="501" />
<glyph unicode="&#xa0;" horiz-adv-x="501" />
<glyph unicode="!" horiz-adv-x="503" d="M84 170q12 79 78.5 137t146.5 58q79 0 127.5 -57.5t36.5 -137.5q-12 -79 -78.5 -137t-146.5 -58q-79 0 -127.5 57.5t-36.5 137.5zM176 463l170 1081h301l-170 -1081h-301z" />
<glyph unicode="&#x22;" horiz-adv-x="737" d="M219 948l64 596h284l-125 -596h-223zM594 948l63 596h285l-125 -596h-223z" />
<glyph unicode="#" d="M131 487l33 205h201l51 193h-172l32 205h195l127 454h170l-125 -454h154l125 454h172l-127 -454h155l-32 -205h-181l-51 -193h154l-33 -205h-176l-137 -487h-170l135 487h-152l-137 -487h-172l135 487h-174zM537 692h149l53 193h-151z" />
<glyph unicode="$" d="M68 156l180 227q35 -40 58 -62.5t58 -49t74.5 -38.5t85.5 -12q81 0 143 57t76 144q6 44 -3 78t-36 60t-50.5 41t-65.5 36q-158 77 -220 122q-143 103 -156 253q-4 50 5 108q29 182 149.5 294t307.5 142l24 146h150l-25 -146q212 -32 301 -180l-196 -184q-84 119 -217 119 q-81 0 -134 -41.5t-65 -120.5q-11 -71 24.5 -109.5t108.5 -70.5q109 -47 167.5 -79.5t129 -92.5t93.5 -142t5 -192q-30 -183 -157 -319t-310 -169l-28 -176h-150l29 176q-237 33 -356 181z" />
<glyph unicode="%" horiz-adv-x="1757" d="M243.5 1007q1.5 51 10.5 107q14 87 41 160.5t72 140.5t116.5 105.5t163.5 38.5q74 0 127.5 -26t81.5 -68.5t41.5 -102t12 -120t-12.5 -128.5q-13 -87 -39.5 -160.5t-71.5 -140t-116.5 -105t-163.5 -38.5q-62 0 -109.5 18t-77 50.5t-48 73.5t-24 92.5t-4 102.5zM403 0 l975 1544h219l-974 -1544h-220zM500 1114q-29 -211 43 -211q25 0 46 25.5t33.5 64.5t19 68t9.5 53q4 24 6.5 53t2 68t-13.5 64.5t-38 25.5q-72 0 -108 -211zM1091.5 323q1.5 51 10.5 107q11 68 29.5 128t50.5 119.5t74 102t103.5 68.5t135.5 26t127.5 -26t81.5 -68.5 t41.5 -101.5t12 -119.5t-12.5 -128.5q-13 -87 -39.5 -160.5t-71.5 -140t-116.5 -105t-163.5 -38.5q-62 0 -109.5 18t-77 50.5t-48 73.5t-24 92.5t-4 102.5zM1348 430q-29 -211 43 -211q25 0 46 25.5t33.5 64.5t19 68t9.5 53q4 25 7 53.5t3 67.5t-13 64.5t-38 25.5 q-74 0 -110 -211z" />
<glyph unicode="&#x26;" horiz-adv-x="1208" d="M123 436q39 241 287 408q-78 192 -58 319q24 152 142 245t272 93q93 0 167 -34.5t114 -105.5t24 -167q-10 -63 -39.5 -123.5t-75.5 -113t-92.5 -94.5t-105.5 -87l153 -317q15 14 57.5 50.5t71 63.5t52.5 54l129 -219q-75 -75 -197 -162l123 -246h-324l-45 90 q-65 -50 -146 -80t-155 -30q-122 0 -211 63.5t-125.5 167.5t-17.5 225zM422 457q-12 -84 27 -142.5t112 -58.5q59 0 113 43l-154 309q-36 -25 -64 -68.5t-34 -82.5zM616.5 1139.5q-0.5 -11.5 6 -32t10.5 -30.5t13 -29.5t13 -29.5q52 26 88.5 69t43.5 95q6 35 -11 59.5 t-53 24.5q-40 0 -71.5 -25.5t-37.5 -66.5z" />
<glyph unicode="'" horiz-adv-x="512" d="M295 948l63 596h285l-125 -596h-223z" />
<glyph unicode="(" horiz-adv-x="614" d="M186 637q37 238 134 481.5t241 450.5l256 -58q-94 -148 -165 -299t-121.5 -325t-69 -349t1 -370t80.5 -387l-275 -60q-155 440 -82 916z" />
<glyph unicode=")" horiz-adv-x="614" d="M2 -221q94 148 165 299t121.5 325t69 349t-1 370t-80.5 387l273 60q157 -438 84 -916q-39 -240 -136 -483t-241 -449z" />
<glyph unicode="*" horiz-adv-x="770" d="M217 1075l232 121l-193 119l84 115l190 -130l37 244h131l-36 -244l223 130l47 -115l-236 -119l197 -121l-84 -117l-182 134l-39 -252h-131l39 252l-232 -134z" />
<glyph unicode="+" d="M109 412l34 225h346l62 385h225l-61 -385h348l-35 -225h-348l-64 -398h-225l64 398h-346z" />
<glyph unicode="," horiz-adv-x="501" d="M-115 -295l305 627h310l-410 -627h-205z" />
<glyph unicode="-" horiz-adv-x="651" d="M156 541l43 272h512l-43 -272h-512z" />
<glyph unicode="." horiz-adv-x="501" d="M82 170q12 80 78 137.5t147 57.5t128.5 -57.5t35.5 -137.5t-78 -137.5t-147 -57.5t-128.5 57.5t-35.5 137.5z" />
<glyph unicode="/" horiz-adv-x="1120" d="M10 -340l1120 1993h234l-1120 -1993h-234z" />
<glyph unicode="0" d="M167.5 495.5q0.5 80.5 6.5 146t16 130.5t25 130.5t40 146t56.5 151.5t76 140.5t96.5 118.5t120.5 79.5t145.5 30.5t136 -30.5t95 -79.5t59.5 -118t32 -140.5t8.5 -152t-6 -146.5t-16 -130q-12 -77 -31 -154.5t-50.5 -172t-76.5 -175t-101.5 -148.5t-134.5 -107.5 t-167 -39.5q-77 0 -136 30.5t-95 79.5t-59 118.5t-32 140.5t-8.5 151.5zM452 490q-9 -236 91 -236q141 0 215 491q1 10 2 16t2 11t9.5 59t12.5 89t10 96.5t3 103t-10.5 84t-28 64.5t-51.5 22q-147 0 -220 -518q-31 -194 -35 -282z" />
<glyph unicode="1" d="M373 0l202 1278h-147l41 266h444l-243 -1544h-297z" />
<glyph unicode="2" d="M84 0l448 639q62 88 88 126.5t78 122t79.5 150.5t37.5 127q6 30 4.5 63.5t-9 62t-30 47t-57.5 18.5q-126 0 -162 -250l-12 -98h-283l8 84q19 114 50.5 197t86 149t140 99.5t203.5 33.5q197 0 291.5 -100t62.5 -295q-17 -108 -64.5 -203.5t-130.5 -216.5l-333 -490h358 l-43 -266h-811z" />
<glyph unicode="3" d="M135 406h287l-8 -44q-7 -45 16.5 -82.5t79.5 -37.5q44 0 76 20t50 56.5t26.5 68t15.5 74.5q20 128 -23.5 174t-175.5 41l43 266q130 0 187.5 40t78.5 163q23 158 -79 158q-101 0 -129 -160l-5 -31h-264q11 97 39.5 176.5t79 144t130.5 100.5t183 36q185 0 271.5 -109.5 t56.5 -294.5q-45 -289 -248 -364v-4q60 -16 101 -52.5t59.5 -85t24 -108t-6.5 -121.5q-34 -212 -175 -333.5t-353 -121.5q-194 0 -286 118.5t-52 312.5z" />
<glyph unicode="4" d="M117 373l37 229l557 942h336l-148 -938h125l-37 -233h-125l-59 -373h-297l59 373h-448zM369 606h233l92 586h-4z" />
<glyph unicode="5" d="M106 45l95 268q78 -71 178 -71q115 0 189.5 81.5t93.5 198.5q22 139 -51.5 207t-215.5 68q-39 0 -119 -13l240 760h590l-41 -266h-377l-80 -250q227 -12 322 -145t57 -365q-39 -254 -191 -398.5t-403 -144.5q-153 0 -287 70z" />
<glyph unicode="6" d="M147 384q0 65 11 134q16 101 48 199t82.5 199t95 178t114.5 188l168 262h295l-390 -602l4 -4q55 43 101.5 63.5t103.5 20.5q67 0 117 -32t75 -83t40.5 -115t12.5 -128t-9 -121q-13 -86 -39 -165t-70 -153.5t-101 -129t-137.5 -87.5t-174.5 -33q-75 0 -134.5 21.5 t-99 59.5t-65.5 89t-37 112.5t-11 126.5zM446 414.5q0 -38.5 6 -81t28.5 -70t58.5 -27.5q41 0 74 30.5t53 79t30.5 87.5t16.5 77q5 35 6 71t-4.5 77.5t-27 67.5t-58.5 26q-33 0 -61.5 -20.5t-47.5 -50.5t-34 -68.5t-23 -69.5t-12 -58q-5 -32 -5 -70.5z" />
<glyph unicode="7" d="M84 0l684 1278h-416l41 266h834l-826 -1544h-317z" />
<glyph unicode="8" d="M127 422q50 322 332 409l2 5q-96 34 -137 123t-23 202q27 174 152 291t299 117q171 0 259.5 -117t61.5 -291q-18 -113 -86.5 -201.5t-177.5 -125.5v-3q257 -85 205 -409q-31 -192 -176.5 -319.5t-337.5 -127.5q-193 0 -298.5 128t-74.5 319zM440.5 392.5q0.5 -34.5 8 -70 t31.5 -58t61 -22.5t68 23t50 59t31 70.5t17 66.5q6 29 3 67t-11 73t-32 59t-59 24q-37 0 -67 -23t-49 -59.5t-30 -71.5t-16 -69q-6 -34 -5.5 -68.5zM598 1167q-24 -176 57 -176q97 0 121 174q24 164 -67 164q-82 0 -111 -162z" />
<glyph unicode="9" d="M225.5 883q0.5 62 10.5 121q13 86 39 165t69.5 153t100.5 128t137 86.5t174 32.5q75 0 135 -21t99.5 -59.5t65.5 -89t37 -112t10.5 -126.5t-11.5 -135q-29 -189 -112 -361t-228 -401l-168 -264h-295l391 604l-4 4q-56 -43 -103 -64.5t-104 -21.5q-67 0 -116.5 32.5 t-75.5 84t-39 117t-12.5 127.5zM531 964q-1 -36 4.5 -77t27 -67.5t58.5 -26.5q41 0 75 30t55 76t32.5 86t17.5 76q5 33 5 70.5t-6.5 79t-29 68.5t-59.5 26q-41 0 -74 -30t-53 -77.5t-30.5 -86.5t-16.5 -77q-5 -34 -6 -70z" />
<glyph unicode=":" horiz-adv-x="501" d="M82 170q12 80 78 137.5t147 57.5t128.5 -57.5t35.5 -137.5t-78 -137.5t-147 -57.5t-128.5 57.5t-35.5 137.5zM193 860q12 80 78 137.5t147 57.5t128.5 -57.5t35.5 -137.5q-14 -80 -80.5 -137t-147.5 -57t-128 57t-33 137z" />
<glyph unicode=";" horiz-adv-x="501" d="M-115 -295l305 627h308l-408 -627h-205zM195 860q12 80 78 137.5t147 57.5t128.5 -57.5t35.5 -137.5q-14 -80 -80.5 -137t-147.5 -57t-128 57t-33 137z" />
<glyph unicode="&#x3c;" d="M109 426l32 203l996 465l-37 -228l-729 -342l622 -331l-37 -228z" />
<glyph unicode="=" d="M76 211l37 225h919l-37 -225h-919zM139 610l37 226h920l-37 -226h-920z" />
<glyph unicode="&#x3e;" d="M37 -35l37 228l727 331l-621 342l37 228l846 -465l-33 -203z" />
<glyph unicode="?" horiz-adv-x="929" d="M229 1118q26 203 146 327t319 124t295 -129.5t64 -331.5q-15 -90 -52 -174.5t-107 -156t-159 -93.5l-33 -201h-305l62 381q27 -6 49 -6q50 0 90 22t65 59t40.5 77.5t21.5 85.5q5 31 5.5 60.5t-4.5 64t-24.5 55.5t-52.5 21q-52 0 -84 -45.5t-41 -102.5l-6 -37h-289z M309 170q12 79 78.5 137t144.5 58q81 0 129.5 -57.5t36.5 -137.5t-79 -137.5t-148 -57.5q-78 0 -126 58t-36 137z" />
<glyph unicode="@" horiz-adv-x="1705" d="M201 780q11 67 34 137.5t64 148.5t95 149.5t130 136.5t165 112.5t205 76t245 28.5q208 0 363.5 -80.5t229 -227t44.5 -331.5q-16 -100 -54 -187t-86.5 -147.5t-107 -110t-114.5 -79.5t-110.5 -50.5t-93 -28.5t-63.5 -8q-42 0 -64.5 36t-1.5 91l-4 5q-150 -123 -272 -123 q-106 0 -177.5 50t-99 134t-10.5 188q15 93 60 180.5t111 154.5t155.5 108t185.5 41q174 0 240 -123l39 108h200l-206 -626q-17 -47 18 -45q44 3 116 70q114 105 157 251l12 53q24 124 -1.5 227.5t-92 173t-170 108t-232.5 38.5q-140 0 -268.5 -48t-227 -132.5t-165.5 -203 t-89 -255.5q-23 -152 7.5 -275.5t107.5 -206.5t195.5 -128t269.5 -45q213 0 449 188h196q-141 -160 -317 -249t-369 -89q-249 0 -421 101.5t-243.5 284t-33.5 419.5zM750 737q-21 -96 11.5 -154t98.5 -67q53 -8 104 12.5t88 60t63.5 85t37.5 90.5q13 64 9 117t-40.5 86 t-99.5 28q-95 -7 -172.5 -82.5t-99.5 -175.5z" />
<glyph unicode="A" horiz-adv-x="1081" d="M16 0l602 1544h322l127 -1544h-326l-16 260h-309l-97 -260h-303zM504 502h215l-12 411l2 234h-4q-43 -148 -201 -645z" />
<glyph unicode="B" horiz-adv-x="980" d="M109 0l243 1544h299q110 0 179.5 -15t127.5 -69q66 -60 92 -154q16 -60 17 -122q0 -36 -6 -72q-35 -207 -217 -319q84 -43 118 -147q23 -70 22 -142q0 -35 -5 -70q-18 -111 -70.5 -196t-130.5 -136t-171.5 -76.5t-200.5 -25.5h-297zM455 256h11q82 0 140 55q62 59 76 158 q4 23 4 45q0 62 -33 105q-42 55 -124 55h-9zM557 911q86 0 143.5 53t71.5 142q3 20 3 38q0 60 -31 98q-37 46 -113 46h-13z" />
<glyph unicode="C" horiz-adv-x="925" d="M165 614q1 84 13 172q18 115 65 227.5t120.5 211.5t165 174.5t206.5 119.5t236 44q72 0 151 -29l-45 -281q-63 17 -112 17q-97 0 -179.5 -41.5t-138.5 -111t-92.5 -153.5t-50.5 -176q-9 -66 -9 -134q0 -4 1 -7q0 -71 21.5 -138t56 -118.5t94.5 -83t137 -31.5q42 0 121 23 l-45 -289q-71 -26 -146 -26q-92 0 -172.5 23t-141.5 65t-110.5 100t-79.5 128q-31 70 -49 150q-18 75 -17 155v9z" />
<glyph unicode="D" horiz-adv-x="1085" d="M109 0l243 1544h232h13q24 1 47 1q291 0 426 -188q102 -141 101 -378q0 -101 -18 -219q-27 -171 -83.5 -305.5t-147.5 -238.5t-228 -160t-313 -56h-272zM457 274h12q63 0 119 28q61 32 103.5 83t75.5 119t52 131.5t29 126.5q10 65 12 129v20q0 55 -9 115 q-11 70 -36.5 122.5t-77 87t-123.5 34.5z" />
<glyph unicode="E" horiz-adv-x="802" d="M109 0l243 1544h615l-45 -287h-310l-53 -335h272l-45 -287h-272l-55 -348h313l-45 -287h-618z" />
<glyph unicode="F" horiz-adv-x="806" d="M109 0l243 1544h617l-45 -287h-312l-51 -329h281l-45 -287h-281l-102 -641h-305z" />
<glyph unicode="G" horiz-adv-x="1153" d="M158 586q2 89 16 178q18 115 50 221.5t88 215t129 188t179 130t232 50.5q172 0 272.5 -98.5t124.5 -268.5l-315 -115q-1 31 -2.5 51.5t-9 51.5t-19.5 49.5t-36.5 32.5t-57.5 14h-10q-43 0 -82 -23q-43 -26 -74 -73.5t-55.5 -100.5t-41.5 -117.5t-27 -109.5t-17 -90 q-7 -42 -12 -79.5t-8 -92.5q-3 -34 -3 -65q0 -17 1 -33q2 -44 12 -91.5t29 -79.5t53.5 -52.5t80.5 -20.5q55 0 98.5 33t69.5 86t40.5 100.5t21.5 95.5h-195l47 287h500l-20 -121q-12 -76 -28.5 -146t-43.5 -148.5t-61 -144.5t-82.5 -127.5t-106 -104t-133.5 -68t-162 -25.5 q-101 0 -179.5 34.5t-128 94.5t-81.5 136.5t-43 167.5q-10 79 -10 157v21z" />
<glyph unicode="H" horiz-adv-x="1136" d="M109 0l243 1544h305l-94 -604h309l95 604h305l-244 -1544h-305l104 653h-309l-104 -653h-305z" />
<glyph unicode="I" horiz-adv-x="522" d="M109 0l243 1544h305l-243 -1544h-305z" />
<glyph unicode="J" horiz-adv-x="720" d="M29 23l47 305q24 -39 63 -62.5t84 -23.5q39 0 68.5 17t45.5 36t29.5 60.5t17 60.5t10.5 66l3 18l164 1044h305l-164 -1044q-24 -154 -57 -240q-111 -285 -395 -285q-140 0 -221 48z" />
<glyph unicode="K" horiz-adv-x="1050" d="M109 0l243 1544h305l-108 -690h4l362 690h312l-398 -713l191 -831h-322l-155 786h-4l-125 -786h-305z" />
<glyph unicode="L" horiz-adv-x="763" d="M109 0l243 1544h305l-198 -1257h319l-45 -287h-624z" />
<glyph unicode="M" horiz-adv-x="1478" d="M47 0l379 1544h401l7 -911h4l266 911h409l-81 -1544h-314l103 1112h-4l-109 -381l-248 -731h-235l-33 739l4 344l4 29h-4l-221 -1112h-328z" />
<glyph unicode="N" horiz-adv-x="1173" d="M109 0l243 1544h293l234 -932l6 4q-3 28 -3 61q0 73 15 173l109 694h305l-244 -1544h-289l-229 932l-4 -4l-10 -156q-23 -151 -66.5 -427t-54.5 -345h-305z" />
<glyph unicode="O" horiz-adv-x="1191" d="M158 466q-3 36 -3 76q0 104 21 230q27 169 79 305t117.5 226.5t145.5 151.5t161 87.5t165 26.5t156.5 -27t134.5 -86.5t98 -152.5t47 -225q3 -36 3 -76q0 -104 -21 -230q-27 -169 -79 -305t-118 -226.5t-146.5 -151.5t-161.5 -87.5t-165 -26.5t-156.5 27t-134 86.5 t-97 152.5t-46.5 225zM483 585q-1 -23 -1 -45q0 -38 4 -72q7 -54 21.5 -103.5t48 -78t81.5 -28.5t90.5 28.5t73 78.5t54 103t40.5 117t25.5 105t15.5 82q7 46 11 86q3 40 7 106q1 22 2 43q0 41 -5 75q-7 52 -22 100.5t-48.5 76t-81.5 27.5q-58 0 -107 -41.5t-79.5 -98.5 t-55.5 -135t-36 -132t-19 -107q-7 -40 -11 -81.5t-8 -105.5z" />
<glyph unicode="P" horiz-adv-x="997" d="M109 0l243 1544h318h14q26 1 50 1t44 -1q42 -2 123.5 -25t130.5 -67q50 -44 80 -138q18 -56 19 -125q0 -48 -9 -102q-33 -214 -179 -334t-361 -120l-68 4l-100 -637h-305zM553 885h21q99 -1 159 43q66 48 84 164q5 31 5 58q0 142 -146 142h-58z" />
<glyph unicode="Q" horiz-adv-x="1191" d="M158 466q-3 37 -3 76q0 105 21 230q27 169 79 305t117.5 226.5t145.5 151.5t161 87.5t165 26.5t156.5 -27t134.5 -86.5t98 -152.5t47 -225q3 -37 3 -76q0 -105 -21 -230q-56 -351 -201 -545l110 -135l-184 -151l-98 129q-139 -95 -297 -95q-84 0 -156.5 27t-134 86.5 t-97 152.5t-46.5 225zM483 585q-1 -23 -1 -45q0 -38 4 -72q7 -54 21.5 -103.5t48 -78t81.5 -28.5q37 0 78 27l-152 190l182 154l115 -154q46 105 76 297q7 46 11 86.5t7 105.5q2 22 2 43q0 40 -5 75q-7 51 -22 100t-48.5 76.5t-81.5 27.5q-58 0 -107 -41.5t-79.5 -98.5 t-55.5 -135t-36 -132t-19 -107q-7 -40 -11 -81.5t-8 -105.5z" />
<glyph unicode="R" horiz-adv-x="1085" d="M109 0l243 1544h307q76 0 132.5 -5t136 -30t126.5 -69q46 -44 72 -131q15 -50 15 -111q0 -45 -8 -96q-21 -132 -91.5 -235.5t-191.5 -164.5l158 -702h-322l-156 713h-4l-112 -713h-305zM553 881l53 -2q100 0 157 60t73 161q4 24 4 46q0 58 -30 98q-37 48 -130 49 q-10 0 -21 -1h-41z" />
<glyph unicode="S" horiz-adv-x="901" d="M135 53l47 291q105 -82 217 -82q75 0 133 46.5t70 121.5q5 16 2.5 33.5t-3 29.5t-8 26.5t-12 23.5t-15.5 21t-18.5 19.5t-20.5 18.5t-22 17.5t-23 17.5t-23 18q-131 97 -185 199q-36 69 -36 165q0 45 8 95q15 92 54.5 174t99 145t143 99.5t178.5 36.5q140 0 258 -76 l-47 -297q-94 98 -205 98q-71 0 -118.5 -40.5t-59.5 -110.5q-2 -15 -2 -30q0 -35 13 -65q19 -44 54.5 -79t79.5 -70.5t87 -77t76.5 -89.5t47.5 -119q7 -36 7 -74.5t-7 -81.5q-33 -212 -172 -347t-348 -135q-68 0 -137 20.5t-113 57.5z" />
<glyph unicode="T" horiz-adv-x="847" d="M229 1257l45 287h787l-45 -287h-242l-199 -1257h-305l199 1257h-240z" />
<glyph unicode="U" horiz-adv-x="1114" d="M164 397l180 1147h305l-157 -999q-1 -9 -5.5 -36.5t-6.5 -39.5t-5 -38.5t-3 -40t2.5 -35.5t8 -34t14.5 -27.5t22.5 -23t33 -13t43.5 -5.5q31 0 56.5 7.5t43 17t31.5 29.5t22 34.5t15.5 44t10.5 45t9 49.5l168 1065h305l-178 -1126q-7 -44 -14 -77t-24.5 -82t-41 -85 t-64 -75.5t-91.5 -65t-126.5 -42t-166.5 -16.5q-219 0 -321 105q-75 78 -75 215q0 48 9 102z" />
<glyph unicode="V" horiz-adv-x="1157" d="M260 1544h328l67 -741q7 -51 10 -146.5t5 -117.5h4q8 24 36.5 120t51.5 148l303 737h319l-671 -1544h-250z" />
<glyph unicode="W" horiz-adv-x="1624" d="M260 1544h311l15 -737v-22q0 -39 -2 -81q-4 -56 -9.5 -121.5t-7.5 -103.5h4q6 21 27.5 99.5t36.5 129t33 99.5l270 737h242l28 -1065h4q8 33 23.5 101.5t29 121t29.5 101.5l238 741h319l-563 -1544h-264l-29 815q2 47 2 283h-4q-10 -30 -28 -88.5t-34 -105.5t-32 -89 l-305 -815h-266z" />
<glyph unicode="X" horiz-adv-x="1116" d="M45 0l455 797l-211 747h344l55 -215q3 -17 10.5 -56t12 -61.5t9 -56t5.5 -61.5h4q37 101 107 235l125 215h329l-446 -747l227 -797h-354l-60 246q-13 61 -30 231h-4q-92 -205 -105 -231l-129 -246h-344z" />
<glyph unicode="Y" horiz-adv-x="1052" d="M252 1544h336l94 -420l10 -75h4q27 59 61 127t61.5 121t65 125t62.5 122h342l-487 -805l-117 -739h-305l117 739z" />
<glyph unicode="Z" horiz-adv-x="1040" d="M37 0l713 1257h-449l45 287h907l-727 -1257h486l-45 -287h-930z" />
<glyph unicode="[" horiz-adv-x="655" d="M68 -254l284 1798h514l-30 -201h-248l-221 -1396h251l-32 -201h-518z" />
<glyph unicode="\" horiz-adv-x="512" d="M0 1653h233l490 -1993h-234z" />
<glyph unicode="]" horiz-adv-x="655" d="M-12 -254l32 201h252l222 1396h-248l30 201h515l-285 -1798h-518z" />
<glyph unicode="^" d="M166 772l457 772h245l217 -772l-221 -96l-162 596l-348 -596z" />
<glyph unicode="_" horiz-adv-x="1024" d="M-41 -256l16 102h1024l-16 -102h-1024z" />
<glyph unicode="`" horiz-adv-x="614" d="M334 1450l223 94l152 -295l-156 -82z" />
<glyph unicode="a" horiz-adv-x="886" d="M122 398q4 64 13 120q8 51 20.5 102t32.5 115.5t49 118.5t65.5 101t87 73.5t108.5 26.5q69 0 112.5 -40.5t57.5 -107.5h4l20 127h289l-164 -1034h-289l19 117h-4q-88 -137 -213 -137q-66 0 -111.5 40.5t-66.5 100.5q-20 61 -27 137q-4 49 -4 92q0 25 1 48zM424 522 q-12 -79 -12 -136q0 -142 75 -142q32 0 59.5 34t44.5 85.5t26.5 90t13.5 68.5q4 23 7 51q4 29 4 71q0 4 1 7q1 37 -5 67q-6 32 -22.5 56.5t-44.5 24.5q-33 0 -61 -32.5t-45.5 -86t-26 -88t-14.5 -70.5z" />
<glyph unicode="b" horiz-adv-x="886" d="M72 0l262 1653h289l-119 -746h4q86 148 217 148q70 0 116 -39.5t65 -97t24 -135.5q2 -39 2 -74t-2 -66q-5 -62 -15 -125q-8 -47 -20.5 -98t-33 -114.5t-50.5 -119t-66.5 -103.5t-87 -75.5t-106.5 -27.5q-124 0 -168 137h-4l-19 -117h-288zM412 362q2 -29 8.5 -57.5 t21.5 -44.5t37 -16q34 0 62.5 32.5t45.5 84t26 88.5t14 73q5 32 8 70q2 28 2 64v25q-1 51 -18 84.5t-50 33.5q-98 0 -147 -277q-3 -20 -5 -40q-3 -20 -5 -56q-1 -18 -1 -34t1 -30z" />
<glyph unicode="c" horiz-adv-x="645" d="M122 388q0 60 11 122q13 82 38 157t67 147t95.5 124.5t128 84.5t161.5 32q70 0 137 -31l-39 -254q-33 33 -80 33q-50 0 -90 -27.5t-65 -72t-39 -88.5t-21 -89q-9 -52 -9 -95q0 -40 9 -83q9 -45 40.5 -71.5t82.5 -26.5q41 0 94 31l-43 -265q-82 -36 -172 -36 q-68 0 -122 22.5t-88 62.5t-56 91q-24 52 -32 112q-8 57 -8 114v6z" />
<glyph unicode="d" horiz-adv-x="886" d="M122 398q4 64 13 120q8 51 20.5 102t32.5 115.5t49 118.5t65.5 101t87 73.5t108.5 26.5q69 0 112.5 -40.5t57.5 -107.5h4l119 746h288l-262 -1653h-289l19 117h-4q-88 -137 -213 -137q-66 0 -111.5 40.5t-66.5 100.5q-20 61 -27 137q-4 49 -4 92q0 25 1 48zM424 522 q-12 -79 -12 -136q0 -142 75 -142q32 0 59.5 34t44.5 85.5t26.5 90t13.5 68.5q4 23 7 51q4 29 4 71q0 4 1 7q1 37 -5 67q-6 32 -22.5 56.5t-44.5 24.5q-33 0 -61 -32.5t-45.5 -86t-26 -88t-14.5 -70.5z" />
<glyph unicode="e" horiz-adv-x="847" d="M120 368q0 62 11 128q12 79 35.5 154t64 149.5t93 130.5t127 90.5t161.5 34.5q153 0 236 -132q53 -84 53 -207q0 -72 -18 -157l-25 -119h-457q-10 -77 -11 -122q0 -21 3 -35q14 -81 80 -82q92 0 111 118h245q-22 -72 -52 -128.5t-75 -106.5t-110 -77t-146 -27 q-71 0 -127.5 20t-93 57t-61 85t-34.5 106q-10 56 -10 115v5zM432 618h211l4 25q5 31 5 59.5t-5.5 60.5t-24.5 51.5t-51 19.5q-31 0 -56.5 -19t-41 -49.5t-24.5 -59t-13 -57.5z" />
<glyph unicode="f" horiz-adv-x="612" d="M145 0l127 797h-106l37 237h106l45 291q11 65 24.5 112t39.5 94t62.5 76.5t94 47.5t132.5 18q55 0 122 -24l-45 -279q-26 16 -49 16q-17 0 -31 -5t-23.5 -11.5t-17.5 -20.5t-12.5 -22t-9 -28t-6 -27t-5 -28.5t-3.5 -24.5l-29 -185h133l-37 -237h-133l-127 -797h-289z" />
<glyph unicode="g" horiz-adv-x="894" d="M41 -137h256q-2 -18 -2 -33q0 -115 84 -115q23 0 43 9t34 22t25.5 36t18.5 41t13.5 47.5t9 45.5t7 45t5.5 37l20 131h-4q-23 -34 -38.5 -53.5t-42.5 -45t-59.5 -38t-70.5 -12.5q-134 0 -195 172q-26 77 -26 181q0 77 14 169q7 44 16.5 87.5t26 100.5t36.5 106t49.5 98 t63 83.5t79 56t96.5 21.5q69 0 114.5 -40.5t59.5 -105.5h4l20 125h289l-178 -1124q-34 -222 -147.5 -323t-307.5 -101q-317 0 -317 308q0 33 4 69zM424 522q-12 -78 -12 -135q0 -143 77 -143q32 0 59 34t44 86t26 89.5t13 68.5q6 32 9 69q3 32 3 74q0 8 -1 15 q0 52 -17.5 85.5t-51.5 33.5q-28 0 -52.5 -24t-39.5 -55.5t-28.5 -75.5t-18.5 -69.5t-10 -52.5z" />
<glyph unicode="h" horiz-adv-x="868" d="M72 0l262 1653h289l-123 -779h4q42 78 114.5 129.5t153.5 51.5q41 0 70.5 -12.5t47 -30.5t27 -49t11.5 -57q1 -12 2 -27q0 -18 -2 -40q-3 -41 -6.5 -67t-10.5 -67q-4 -25 -6 -37l-106 -668h-289l90 567q1 7 5 27t6.5 35.5t4.5 37t0 37t-7.5 30t-18 22.5t-31.5 8 q-77 0 -96 -119l-103 -645h-288z" />
<glyph unicode="i" horiz-adv-x="428" d="M70 0l163 1034h289l-164 -1034h-288zM244 1343q12 77 75 130t142 53q74 0 117 -56q34 -45 34 -101q0 -14 -2 -30q-12 -74 -76 -128t-139 -54q-75 1 -119 55q-35 43 -35 99q0 16 3 32z" />
<glyph unicode="j" horiz-adv-x="428" d="M-10 -510l243 1544h289l-243 -1544h-289zM244 1343q12 77 75 130t142 53q74 0 117 -56q34 -45 34 -101q0 -15 -2 -30q-12 -74 -76 -128t-139 -54t-119 55q-35 42 -35 99q0 15 3 32z" />
<glyph unicode="k" horiz-adv-x="901" d="M72 0l262 1653h289l-156 -981h4l215 362h313l-301 -422l189 -612h-318l-129 479h-4l-76 -479h-288z" />
<glyph unicode="l" horiz-adv-x="430" d="M72 0l262 1653h289l-263 -1653h-288z" />
<glyph unicode="m" horiz-adv-x="1308" d="M72 0l164 1034h288l-24 -166h4q123 187 284 187q75 0 112.5 -50t37.5 -126h4q50 75 124 125.5t153 50.5q39 0 67 -12.5t44.5 -31t25 -49t10.5 -56.5q1 -12 2 -27q0 -18 -2 -39q-3 -39 -6.5 -63.5t-9.5 -61.5l-113 -715h-289l88 561q16 86 16 126v12q-6 67 -55 67 q-76 0 -96 -117l-102 -649h-289l92 580q1 5 4.5 25.5t5.5 33.5t4 33.5t-0.5 34t-7.5 27.5t-16.5 21t-28.5 7q-82 0 -100 -119l-103 -643h-288z" />
<glyph unicode="n" horiz-adv-x="868" d="M72 0l164 1034h288l-24 -160h4q42 78 114.5 129.5t153.5 51.5q41 0 70.5 -12.5t47 -30.5t27 -49t11.5 -57q1 -12 2 -27q0 -18 -2 -40q-3 -41 -6.5 -67t-10.5 -67q-4 -25 -6 -37l-106 -668h-289l90 567q1 7 5 27t6.5 35.5t4.5 37t0 37t-7.5 30t-18 22.5t-31.5 8 q-77 0 -96 -119l-103 -645h-288z" />
<glyph unicode="o" horiz-adv-x="892" d="M120 358q1 74 15 158q13 84 35.5 158t62 145.5t91 122.5t126 82t164.5 31t154.5 -31t99.5 -82q36 -50 52 -122q16 -69 15 -142q0 -75 -13 -162q-14 -84 -36.5 -157.5t-62 -144.5t-91 -121.5t-126 -81.5t-164.5 -31t-154.5 31t-100 81.5t-51.5 121.5q-16 67 -16 136v8z M412 394v-15q0 -35 4 -61q5 -32 22 -56t45 -24t53 24.5t40 55.5t28.5 75.5t18.5 70t10 52.5q7 32 9 70q2 27 1 61v29q-1 52 -19 85.5t-53 33.5q-100 0 -147 -279q-4 -26 -7.5 -52t-4.5 -70z" />
<glyph unicode="p" horiz-adv-x="886" d="M-8 -510l244 1544h288l-20 -127h4q86 148 217 148q70 0 116 -39.5t65 -97t24 -135.5q2 -39 2 -74t-2 -66q-5 -62 -15 -125q-8 -47 -20.5 -98t-33 -114.5t-50.5 -119t-66.5 -103.5t-87 -75.5t-106.5 -27.5q-124 0 -168 137h-4l-98 -627h-289zM412 362q3 -29 9 -57.5 t21 -44.5t37 -16q36 0 64 32t45 84.5t25 87.5t14 74q5 32 8 70q2 28 2 64v25q-1 51 -18 84.5t-50 33.5q-98 0 -147 -277q-3 -20 -5 -40t-5 -56q-1 -17 -1 -33.5t1 -30.5z" />
<glyph unicode="q" horiz-adv-x="886" d="M122 398q4 63 13 120q8 51 20.5 102t32.5 115.5t49 118.5t65.5 101t87 73.5t108.5 26.5q69 0 112.5 -40.5t57.5 -107.5h4l20 127h289l-244 -1544h-288l98 627h-4q-88 -137 -213 -137q-66 0 -111.5 40.5t-66 100.5t-27.5 137q-4 48 -4 92q0 24 1 48zM424 522 q-12 -79 -12 -136q0 -142 75 -142q32 0 59.5 34t44.5 85.5t26.5 90t13.5 68.5q4 23 7.5 51t3.5 71q1 3 1 7q0 38 -5 67q-6 33 -22.5 57t-44.5 24q-33 0 -61 -32.5t-45.5 -86t-26 -88t-14.5 -70.5z" />
<glyph unicode="r" horiz-adv-x="645" d="M72 0l164 1034h288l-20 -125h4q114 151 262 164l-45 -280q-28 4 -43 4q-32 0 -58.5 -5t-46.5 -12t-37.5 -22t-29 -27t-22 -34.5t-16.5 -38.5t-12 -45t-9.5 -46.5t-8.5 -50.5l-82 -516h-288z" />
<glyph unicode="s" horiz-adv-x="770" d="M78 98l158 205q35 -33 64.5 -50t68.5 -17q35 0 63.5 24t34.5 62q5 27 -9.5 49.5t-40.5 38.5t-58.5 35.5t-64 42.5t-55.5 59.5t-34 84.5q-5 24 -5 54t5 66q15 95 75.5 165t143.5 104t176 34q155 0 262 -88l-151 -211q-32 34 -59.5 50.5t-67.5 16.5q-38 0 -61.5 -20.5 t-28.5 -54.5q-3 -24 12 -44t41.5 -36t59 -33t63.5 -42t54.5 -56.5t33.5 -81.5q5 -25 5 -53t-5 -60q-24 -158 -128.5 -260t-260.5 -102q-82 0 -158.5 31.5t-132.5 86.5z" />
<glyph unicode="t" horiz-adv-x="630" d="M162 0l127 797h-101l37 237h101l45 287h288l-45 -287h119l-37 -237h-118l-127 -797h-289z" />
<glyph unicode="u" horiz-adv-x="866" d="M123 246v20q1 34 3 64q4 38 11 84l99 620h288l-90 -567q-1 -7 -8 -43t-9.5 -59.5t-0.5 -53.5t16 -45.5t41 -15.5q73 0 94 143q1 7 2 10l103 631h286l-104 -659q-30 -187 -138 -291t-294 -104q-68 0 -120.5 14.5t-85 38t-53.5 59.5t-30 71.5t-10 82.5z" />
<glyph unicode="v" horiz-adv-x="925" d="M195 1034h286l47 -567v-16h4q43 117 129.5 334.5t98.5 248.5h299l-463 -1034h-268z" />
<glyph unicode="w" horiz-adv-x="1421" d="M195 1034h280l43 -606h4l232 606h247l35 -606h4q32 92 72.5 194.5t90 221t77.5 190.5h274l-450 -1034h-238l-39 350l-14 299h-4l-111 -330l-133 -319h-241z" />
<glyph unicode="x" horiz-adv-x="1001" d="M47 0l385 557l-182 477h299l57 -157l21 -64l151 221h299l-340 -477l217 -557h-305l-106 285l-199 -285h-297z" />
<glyph unicode="y" horiz-adv-x="925" d="M86 -510l250 530l-141 1014h290l43 -418l7 -172h4l229 590h291l-688 -1544h-285z" />
<glyph unicode="z" horiz-adv-x="821" d="M47 0l453 795h-295l39 239h694l-444 -794h284l-39 -240h-692z" />
<glyph unicode="{" horiz-adv-x="614" d="M127 563l25 156q82 0 127 61.5t59 155.5l53 332q22 143 90.5 209.5t204.5 66.5h178l-24 -155q-95 0 -137.5 -52.5t-57.5 -152.5l-43 -271q-20 -121 -64.5 -183t-146.5 -85v-4q51 -9 81.5 -36t40.5 -69.5t9.5 -86t-10.5 -99.5l-39 -244q-8 -41 -5.5 -78t13.5 -65 t42.5 -44.5t80.5 -16.5l-24 -156h-134q-121 0 -181 35t-71 105.5t7 176.5l45 283q8 64 3.5 112t-35 76.5t-87.5 28.5z" />
<glyph unicode="|" horiz-adv-x="851" d="M432 -596v2388h238v-2388h-238z" />
<glyph unicode="}" horiz-adv-x="614" d="M-47 -254l24 156q95 0 139 55t58 149l39 244q10 58 23 100.5t36.5 85t62.5 69.5t93 36v4q-96 23 -120.5 85t-4.5 183l43 271q8 60 4 106t-37.5 72.5t-99.5 26.5l25 155h178q136 0 183.5 -66.5t25.5 -209.5l-54 -332q-6 -56 -2 -104.5t35.5 -80.5t87.5 -32l-24 -156 q-158 0 -189 -217l-45 -283q-14 -85 -35 -140t-59.5 -97.5t-100.5 -61t-153 -18.5h-133z" />
<glyph unicode="~" d="M117 465q34 52 63.5 90.5t70 79t86.5 62.5t93 22q45 0 100.5 -21t98 -46.5t88.5 -46.5t74 -21q27 0 54.5 17.5t41 32.5t43 54.5t35.5 46.5l90 -149q-81 -113 -120 -152q-88 -87 -181 -88q-53 0 -129 34t-141 67.5t-91 33.5q-24 0 -45 -9t-43 -32t-32.5 -35.5t-35 -49 t-28.5 -42.5z" />
<glyph unicode="&#xa1;" horiz-adv-x="503" d="M20 -510l170 1081h302l-170 -1081h-302zM195 866q12 79 78.5 137t146.5 58q79 0 127.5 -57.5t36.5 -137.5q-12 -79 -79 -136.5t-147 -57.5q-79 0 -127 57t-36 137z" />
<glyph unicode="&#xa2;" d="M259.5 581q-4.5 79 10.5 154q11 69 28 133.5t48 135t71 126.5t99 102t129 68l23 142h133l-21 -129q66 -7 115 -29l-41 -260q-39 31 -70 31q-47 0 -86.5 -31.5t-64 -80.5t-39.5 -95.5t-21 -89.5q-7 -41 -6.5 -81.5t9.5 -82t37 -67t73 -25.5q40 0 90 26l-41 -260 q-57 -24 -127 -37l-20 -127h-133l20 134q-74 24 -123.5 77t-68.5 120t-23.5 146z" />
<glyph unicode="&#xa3;" d="M90 0l37 231q153 136 176 342h-190l26 158h176q3 45 0 185t9 186q33 204 169 329t338 125q109 0 183 -34t109 -95t44.5 -145.5t-10.5 -185.5h-262l6 32q6 29 4.5 60.5t-9 57.5t-29.5 42.5t-56 16.5q-80 0 -127 -58.5t-59 -136.5q-11 -68 -10 -189.5t-5 -189.5h260 l-26 -158h-266q-40 -180 -148 -323l43 2q53 0 153.5 -20.5t155.5 -20.5q127 0 232 51l-37 -242q-82 -43 -186 -43q-83 0 -237.5 30t-236.5 30q-109 0 -227 -37z" />
<glyph unicode="&#xa4;" d="M53 281l101 90q-27 69 -34.5 125t3.5 137q22 139 113 264l-72 86l182 164l72 -88q139 78 264 78q137 0 248 -78l102 88l121 -164l-98 -86q41 -92 39 -189t-34 -184t-87 -153l69 -90l-174 -162l-73 88q-143 -78 -265 -78q-140 0 -247 78l-101 -88zM365 635 q-10 -66 12 -127t72.5 -99t115.5 -38q66 0 128 38.5t102.5 99t50.5 126.5q7 49 -4 96.5t-36.5 83.5t-67 58t-91.5 22q-49 0 -98 -22t-86.5 -58t-64 -83.5t-33.5 -96.5z" />
<glyph unicode="&#xa5;" d="M180 516l21 135h254l14 88l-25 84h-215l21 135h153l-176 586h336l82 -502l10 -75h4l263 577h342l-353 -586h154l-21 -135h-215l-51 -84l-14 -88h252l-21 -135h-252l-81 -516h-310l82 516h-254z" />
<glyph unicode="&#xa6;" horiz-adv-x="851" d="M432 -416v834h238v-834h-238zM432 778v836h238v-836h-238z" />
<glyph unicode="&#xa7;" horiz-adv-x="1005" d="M102 -18l7 38h280l-4 -26q-11 -70 13.5 -109t99.5 -39q49 0 79.5 39t40.5 99q7 44 -1 78t-32.5 61.5t-46.5 45t-62 43.5q-15 10 -23 15q-128 84 -133 88q-113 81 -145 170q-24 67 -13 152q30 186 209 297q-49 43 -70.5 114.5t-9.5 151.5q32 184 157 276.5t291 92.5 q189 0 280 -99.5t62 -285.5l-8 -43h-272l8 47q12 71 -13.5 116.5t-95.5 45.5q-60 0 -94.5 -34.5t-42.5 -92.5q0 -25 6.5 -48t13.5 -39.5t23.5 -35t27 -29t34 -26.5t33.5 -22t37.5 -21.5t35.5 -20.5q121 -70 158 -99q98 -78 109 -190q3 -41 -3 -90q-12 -103 -73.5 -185.5 t-165.5 -137.5q67 -51 92.5 -134.5t9.5 -179.5q-17 -107 -83.5 -185.5t-158.5 -115.5t-198 -37q-85 0 -156 22t-122 65t-73 112t-8 156zM432 672q-5 -35 1.5 -65t19 -51t36.5 -43t43.5 -35.5t50.5 -33.5q13 -8 19 -12l21 -14q59 19 97.5 59t47.5 94q5 29 -1.5 55.5t-16.5 44 t-34.5 38.5t-38.5 30t-46 28.5t-41 25.5l-43 26q-101 -56 -115 -147z" />
<glyph unicode="&#xa8;" horiz-adv-x="614" d="M156 1350q11 65 62.5 110t117.5 45q63 0 99.5 -46t25.5 -109q-9 -61 -61 -105.5t-115 -44.5q-62 0 -100 44.5t-29 105.5zM582 1350q11 65 62.5 110t117.5 45q63 0 99.5 -46t25.5 -109q-9 -61 -61 -105.5t-115 -44.5q-62 0 -100 44.5t-29 105.5z" />
<glyph unicode="&#xa9;" horiz-adv-x="1699" d="M168 776q26 162 113 309t211.5 253t284 168.5t323.5 62.5t302.5 -62.5t229.5 -168.5t131.5 -253t14.5 -309q-34 -218 -171 -402.5t-338.5 -291.5t-420.5 -107t-388 107t-247.5 291.5t-44.5 402.5zM328 776q-28 -176 34 -325.5t197 -237t313 -88.5q175 1 337 88.5 t271.5 237t137.5 325.5q27 174 -35.5 322t-196.5 234.5t-309 86.5q-178 0 -341 -86.5t-272 -234.5t-136 -322zM565 782q31 201 171 330t341 129q148 0 239 -81t95 -222h-182q-3 74 -50.5 115t-125.5 41q-122 0 -205 -90.5t-103 -217.5q-13 -78 5.5 -149.5t73 -119.5 t134.5 -48q76 0 140.5 46t81.5 118h182q-39 -141 -160 -226t-266 -85q-131 0 -223.5 61t-130 165.5t-17.5 233.5z" />
<glyph unicode="&#xaa;" horiz-adv-x="614" d="M247 1149.5q-2 55.5 7 97.5q7 39 16 75t28 83.5t42.5 81.5t61.5 58t83 24t73.5 -24.5t39.5 -63.5h2l10 75h191l-99 -620h-190l12 70h-4q-54 -82 -135 -82q-52 0 -85 35t-42 85t-11 105.5zM444 1249q-26 -170 41 -170q21 0 38.5 21t29 53t18 54.5t9.5 41.5q19 164 -45 164 q-21 0 -39 -20t-28.5 -49.5t-16 -53.5t-7.5 -41z" />
<glyph unicode="&#xab;" horiz-adv-x="886" d="M160 676l344 479l143 -80l-272 -399l147 -387l-168 -88zM514 676l342 479l145 -80l-274 -399l150 -387l-170 -88z" />
<glyph unicode="&#xac;" d="M139 610l37 226h920l-97 -607h-225l60 381h-695z" />
<glyph unicode="&#xad;" horiz-adv-x="651" d="M156 541l43 272h512l-43 -272h-512z" />
<glyph unicode="&#xae;" horiz-adv-x="1699" d="M168 776q26 162 113 309t211.5 253t284 168.5t323.5 62.5t302.5 -62.5t229.5 -168.5t131.5 -253t14.5 -309q-34 -218 -171 -402.5t-338.5 -291.5t-420.5 -107t-388 107t-247.5 291.5t-44.5 402.5zM328 776q-28 -176 34 -325.5t197 -237t313 -88.5q175 1 337 88.5 t271.5 237t137.5 325.5q27 174 -35.5 322t-196.5 234.5t-309 86.5q-178 0 -341 -86.5t-272 -234.5t-136 -322zM573 342l140 870h420q167 0 227 -43q92 -67 67 -225q-18 -115 -85.5 -170t-188.5 -63l152 -369h-199l-133 369h-170l-60 -369h-170zM823 840h254q81 -2 127.5 26 t57.5 105q4 23 -1 41.5t-13.5 30t-26.5 20t-32 12t-39.5 6t-38 2.5h-38.5h-211z" />
<glyph unicode="&#xaf;" horiz-adv-x="614" d="M168 1364l25 152h708l-24 -152h-709z" />
<glyph unicode="&#xb0;" horiz-adv-x="819" d="M303 1262q19 126 123 216.5t231 90.5q126 0 203.5 -90.5t57.5 -216.5q-22 -127 -126.5 -217.5t-230.5 -90.5q-128 0 -204 90.5t-54 217.5zM465 1262q-10 -61 25.5 -103.5t97.5 -42.5q60 0 109 42.5t59 103.5q9 60 -26.5 102.5t-96.5 42.5q-60 0 -110.5 -42.5 t-57.5 -102.5z" />
<glyph unicode="&#xb1;" d="M43 0l35 225h919l-34 -225h-920zM135 582l35 225h346l45 274h225l-45 -274h349l-35 -225h-348l-43 -275h-226l43 275h-346z" />
<glyph unicode="&#xb2;" horiz-adv-x="602" d="M133 627l285 372q50 67 76 103t61.5 101.5t42.5 111.5q13 106 -57 106q-75 0 -97 -141l-8 -59h-194l4 51q11 66 31 115t55.5 89.5t93.5 61.5t137 21q135 0 195.5 -59.5t40.5 -178.5q-10 -64 -39 -120t-82 -132l-219 -274h239l-26 -168h-539z" />
<glyph unicode="&#xb3;" horiz-adv-x="602" d="M150 870h198l-4 -26q-5 -36 7.5 -62t45.5 -26q84 0 105 147q10 73 -17.5 100.5t-105.5 24.5l24 156q80 0 116 24.5t48 96.5q15 100 -45 100q-57 0 -80 -113q-1 -6 -2 -8h-184q40 275 287 275q124 0 181.5 -65.5t39.5 -176.5q-28 -170 -158 -215v-4q75 -18 103.5 -77 t15.5 -136q-20 -128 -112 -200.5t-234 -72.5q-131 0 -192.5 70t-36.5 188z" />
<glyph unicode="&#xb4;" horiz-adv-x="614" d="M303 1249l242 295l194 -94l-309 -283z" />
<glyph unicode="&#xb5;" horiz-adv-x="866" d="M-10 -510l243 1544h289l-102 -645q-19 -119 59 -119q22 0 39 11.5t26.5 27t17.5 41t10.5 42t5.5 43.5t4 32l90 567h289l-107 -667q-22 -143 -35 -190q-51 -176 -185 -195q-17 -2 -36 -2q-81 0 -136 51t-75 129h-4l-104 -670h-289z" />
<glyph unicode="&#xb6;" horiz-adv-x="1228" d="M244 1180q32 198 148 281t319 83h620l-37 -241h-86l-243 -1532h-242l244 1532h-140l-243 -1532h-242l168 1058q-155 0 -223.5 96t-42.5 255z" />
<glyph unicode="&#xb7;" horiz-adv-x="501" d="M139 524q12 80 78.5 137.5t147.5 57.5t128 -57.5t35 -137.5q-14 -80 -79 -137t-146 -57q-82 0 -130 57t-34 137z" />
<glyph unicode="&#xb8;" horiz-adv-x="614" d="M76 -381l203 283l174 -74l-260 -274z" />
<glyph unicode="&#xb9;" horiz-adv-x="602" d="M311 627l121 757h-96l24 160h306l-146 -917h-209z" />
<glyph unicode="&#xba;" horiz-adv-x="614" d="M240.5 1152q1.5 46 7.5 93q11 65 32 119t56 102t91 75.5t128 27.5t120.5 -28t67.5 -74t24.5 -104t-7.5 -118q-10 -63 -31 -116.5t-56 -101.5t-91.5 -75.5t-128.5 -27.5q-58 0 -101 18.5t-65.5 49.5t-35 72.5t-11 87.5zM436 1245q-21 -166 41 -166q22 0 40.5 21t29 51.5 t16.5 53.5t8 40q27 168 -41 168q-67 0 -94 -168z" />
<glyph unicode="&#xbb;" horiz-adv-x="886" d="M100 289l271 387l-146 399l168 80l193 -479l-342 -475zM455 289l270 387l-145 399l168 80l192 -479l-342 -475z" />
<glyph unicode="&#xbc;" horiz-adv-x="1505" d="M264 0l981 1544h176l-979 -1544h-178zM303 627l121 757h-96l24 160h305l-145 -917h-209zM862 217l23 143l354 558h240l-86 -537h77l-24 -164h-78l-35 -217h-209l35 217h-297zM1036 381h148l53 336h-4z" />
<glyph unicode="&#xbd;" horiz-adv-x="1505" d="M209 0l981 1544h176l-979 -1544h-178zM309 627l121 757h-96l24 160h306l-146 -917h-209zM846 0l284 373q50 67 76 103t61 101t42 111q7 43 -6 75t-52 32q-77 0 -94 -142l-8 -59h-195l4 51q11 66 31 115t55.5 89.5t93 61.5t136.5 21q274 0 237 -238q-11 -65 -40.5 -123 t-81.5 -129l-218 -274h240l-27 -168h-538z" />
<glyph unicode="&#xbe;" horiz-adv-x="1505" d="M197 870h198l-4 -26q-5 -36 7.5 -62t45.5 -26q84 0 105 147q10 73 -17.5 100.5t-105.5 24.5l25 156q80 0 115.5 24.5t47.5 96.5q15 100 -45 100q-15 0 -27 -6.5t-19 -14t-13.5 -24t-9 -24.5t-7.5 -28l-6 -24h-184q40 275 287 275q124 0 181.5 -65.5t39.5 -176.5 q-8 -47 -24.5 -86.5t-51 -75.5t-82.5 -53v-4q51 -12 81 -45.5t38 -76t0 -91.5q-13 -85 -59 -146.5t-119.5 -94t-167.5 -32.5q-131 0 -192.5 70t-36.5 188zM352 0l981 1544h176l-979 -1544h-178zM899 217l23 143l354 558h240l-86 -537h77l-24 -164h-78l-35 -217h-209l35 217 h-297zM1073 377h148l53 332h-4z" />
<glyph unicode="&#xbf;" horiz-adv-x="929" d="M41 -74q15 91 51.5 174.5t106.5 155.5t159 94l33 201h305l-61 -381q-27 6 -49 6q-50 0 -90 -22t-65 -59t-40.5 -77.5t-21.5 -85.5q-5 -31 -5.5 -60t4 -63.5t24 -55.5t52.5 -21q52 0 84 45t41 102l6 37h289q-26 -203 -146 -327t-319 -124t-294.5 129.5t-63.5 331.5z M399 866q12 79 79 137t145 58q81 0 129 -57.5t36 -137.5t-78.5 -137t-148.5 -57q-78 0 -126 57.5t-36 136.5z" />
<glyph unicode="&#xc0;" horiz-adv-x="1081" d="M16 0l602 1544h322l127 -1544h-326l-16 260h-309l-97 -260h-303zM504 502h215l-12 411l2 234h-4q-43 -148 -201 -645zM610 1909l224 94l149 -295l-154 -82z" />
<glyph unicode="&#xc1;" horiz-adv-x="1081" d="M16 0l602 1544h322l127 -1544h-326l-16 260h-309l-97 -260h-303zM504 502h215l-12 411l2 234h-4q-43 -148 -201 -645zM639 1708l244 295l194 -94l-309 -283z" />
<glyph unicode="&#xc2;" horiz-adv-x="1081" d="M16 0l602 1544h322l127 -1544h-326l-16 260h-309l-97 -260h-303zM504 502h215l-12 411l2 234h-4q-43 -148 -201 -645zM524 1759l330 232l260 -248l-145 -127l-152 143l-203 -143z" />
<glyph unicode="&#xc3;" horiz-adv-x="1081" d="M16 0l602 1544h322l127 -1544h-326l-16 260h-309l-97 -260h-303zM477 1698q12 45 22.5 76.5t30.5 71.5t43 64.5t59.5 42t80.5 17.5q46 0 88.5 -19.5t78 -39t66.5 -19.5q66 0 88 82l152 -10q-11 -33 -18.5 -54t-21.5 -53t-26.5 -52t-32 -44t-40.5 -37.5t-49 -22.5t-60 -9 q-58 0 -154 45q-5 2 -15.5 7t-16 7.5t-14.5 5.5t-18 4.5t-18 1.5q-54 0 -75 -65h-150zM504 502h215l-12 411l2 234h-4q-43 -148 -201 -645z" />
<glyph unicode="&#xc4;" horiz-adv-x="1081" d="M16 0l602 1544h322l127 -1544h-326l-16 260h-309l-97 -260h-303zM463 1808q11 65 62.5 110.5t117.5 45.5q62 0 98 -46t27 -110q-9 -61 -62 -105t-116 -44q-61 0 -98.5 43.5t-28.5 105.5zM504 502h215l-12 411l2 234h-4q-43 -148 -201 -645zM889 1808q11 65 62.5 110.5 t117.5 45.5q62 0 98 -46t27 -110q-9 -61 -62 -105t-116 -44q-61 0 -98.5 43.5t-28.5 105.5z" />
<glyph unicode="&#xc5;" horiz-adv-x="1081" d="M16 0l602 1544h322l127 -1544h-326l-16 260h-309l-97 -260h-303zM504 502h215l-12 411l2 234h-4q-43 -148 -201 -645zM594 1806q13 93 89.5 157.5t170.5 64.5q91 0 143 -67t37 -159q-14 -89 -88.5 -154t-165.5 -65q-92 0 -146.5 64.5t-39.5 158.5zM729 1804 q-6 -37 15.5 -61.5t58.5 -24.5q34 0 63 25t33 59q6 37 -14.5 63.5t-55.5 26.5q-37 0 -66.5 -25t-33.5 -63z" />
<glyph unicode="&#xc6;" horiz-adv-x="1380" d="M16 0l594 1544h629l21 -287h-306l31 -319h305l23 -287h-301l28 -364h297l27 -287h-619l-16 258h-321l-89 -258h-303zM498 500h219l-19 293l7 352h-5z" />
<glyph unicode="&#xc7;" horiz-adv-x="925" d="M165 613.5q1 84.5 13 172.5q18 115 65 227.5t120.5 211.5t165 174.5t206.5 119.5t236 44q72 0 151 -29l-45 -281q-63 17 -112 17q-97 0 -179.5 -41.5t-138.5 -111t-92.5 -153.5t-50.5 -176q-9 -70 -8.5 -141t22 -138t56 -118.5t94.5 -83t137 -31.5q42 0 121 23l-45 -289 q-71 -26 -146 -26q-92 0 -172.5 23t-141.5 65t-110.5 100t-79.5 128t-48.5 149.5t-17.5 164zM293 -381l203 283l174 -74l-260 -274z" />
<glyph unicode="&#xc8;" horiz-adv-x="802" d="M109 0l243 1544h615l-45 -287h-310l-53 -335h272l-45 -287h-272l-55 -348h313l-45 -287h-618zM471 1909l223 94l150 -295l-154 -82z" />
<glyph unicode="&#xc9;" horiz-adv-x="802" d="M109 0l243 1544h615l-45 -287h-310l-53 -335h272l-45 -287h-272l-55 -348h313l-45 -287h-618zM541 1708l243 295l195 -94l-309 -283z" />
<glyph unicode="&#xca;" horiz-adv-x="802" d="M109 0l243 1544h615l-45 -287h-310l-53 -335h272l-45 -287h-272l-55 -348h313l-45 -287h-618zM385 1759l330 232l260 -248l-146 -127l-151 143l-203 -143z" />
<glyph unicode="&#xcb;" horiz-adv-x="802" d="M109 0l243 1544h615l-45 -287h-310l-53 -335h272l-45 -287h-272l-55 -348h313l-45 -287h-618zM324 1808q11 65 62.5 110.5t117.5 45.5q62 0 98 -46t27 -110q-9 -61 -62 -105t-116 -44q-61 0 -98.5 43.5t-28.5 105.5zM750 1808q11 65 62.5 110.5t117.5 45.5q62 0 98 -46 t27 -110q-9 -61 -62 -105t-116 -44q-61 0 -98.5 43.5t-28.5 105.5z" />
<glyph unicode="&#xcc;" horiz-adv-x="522" d="M109 0l243 1544h305l-243 -1544h-305zM319 1909l224 94l149 -295l-153 -82z" />
<glyph unicode="&#xcd;" horiz-adv-x="522" d="M109 0l243 1544h305l-243 -1544h-305zM369 1708l243 295l195 -94l-309 -283z" />
<glyph unicode="&#xce;" horiz-adv-x="522" d="M109 0l243 1544h305l-243 -1544h-305zM246 1759l329 232l261 -248l-146 -127l-151 143l-203 -143z" />
<glyph unicode="&#xcf;" horiz-adv-x="522" d="M109 0l243 1544h305l-243 -1544h-305zM184 1808q11 65 63 110.5t118 45.5q62 0 97.5 -46t26.5 -110q-9 -61 -62 -105t-116 -44q-61 0 -98.5 43.5t-28.5 105.5zM610 1808q11 65 63 110.5t118 45.5q62 0 97.5 -46t26.5 -110q-9 -61 -62 -105t-116 -44q-61 0 -98.5 43.5 t-28.5 105.5z" />
<glyph unicode="&#xd0;" horiz-adv-x="1085" d="M100 635l45 285h109l98 624h232h13q327 16 473 -187q145 -202 83 -597q-27 -171 -83.5 -305.5t-147.5 -238.5t-228 -160t-313 -56h-272l100 635h-109zM457 274q70 -3 131 28.5t103.5 82.5t75.5 119t52 131.5t29 126.5q10 65 12 129t-9 134.5t-36.5 123t-77 87 t-123.5 34.5l-55 -348h109l-45 -287h-109z" />
<glyph unicode="&#xd1;" horiz-adv-x="1173" d="M109 0l243 1544h293l234 -932l6 4q-10 89 12 234l109 694h305l-244 -1544h-289l-229 932l-4 -4l-10 -156q-23 -151 -66.5 -427t-54.5 -345h-305zM524 1698q12 45 22.5 76.5t30.5 71.5t43 64.5t59.5 42t80.5 17.5q46 0 88.5 -19.5t78 -39t66.5 -19.5q66 0 88 82l152 -10 q-11 -33 -18.5 -54t-21.5 -53t-26.5 -52t-32 -44t-40.5 -37.5t-49 -22.5t-60 -9q-58 0 -154 45q-4 2 -18.5 8.5t-20.5 9t-18 5.5t-24 3q-55 0 -76 -65h-150z" />
<glyph unicode="&#xd2;" horiz-adv-x="1191" d="M158 466.5q-11 132.5 18 305.5q27 169 79 305t117.5 226.5t145.5 151.5t161 87.5t165 26.5t156.5 -27t134.5 -86.5t98 -152.5t47 -225.5t-18 -305.5q-27 -169 -79 -305t-118 -226.5t-146.5 -151.5t-161.5 -87.5t-165 -26.5t-156.5 27t-134 86.5t-97 152.5t-46.5 225.5z M483 585q-4 -64 3 -117.5t21.5 -103t48 -78t81.5 -28.5t90.5 28.5t73 78.5t54 103t40.5 117t25.5 105t15.5 82q7 46 11 86.5t7.5 106t-3.5 117t-22 100.5t-48.5 76.5t-81.5 27.5q-58 0 -107 -41.5t-79.5 -98.5t-55.5 -135t-36 -132t-19 -107q-7 -40 -11 -81.5t-8 -105.5z M645 1909l223 94l150 -295l-154 -82z" />
<glyph unicode="&#xd3;" horiz-adv-x="1191" d="M158 466.5q-11 132.5 18 305.5q27 169 79 305t117.5 226.5t145.5 151.5t161 87.5t165 26.5t156.5 -27t134.5 -86.5t98 -152.5t47 -225.5t-18 -305.5q-27 -169 -79 -305t-118 -226.5t-146.5 -151.5t-161.5 -87.5t-165 -26.5t-156.5 27t-134 86.5t-97 152.5t-46.5 225.5z M483 585q-4 -64 3 -117.5t21.5 -103t48 -78t81.5 -28.5t90.5 28.5t73 78.5t54 103t40.5 117t25.5 105t15.5 82q7 46 11 86.5t7.5 106t-3.5 117t-22 100.5t-48.5 76.5t-81.5 27.5q-58 0 -107 -41.5t-79.5 -98.5t-55.5 -135t-36 -132t-19 -107q-7 -40 -11 -81.5t-8 -105.5z M735 1708l244 295l195 -94l-310 -283z" />
<glyph unicode="&#xd4;" horiz-adv-x="1191" d="M158 466.5q-11 132.5 18 305.5q27 169 79 305t117.5 226.5t145.5 151.5t161 87.5t165 26.5t156.5 -27t134.5 -86.5t98 -152.5t47 -225.5t-18 -305.5q-27 -169 -79 -305t-118 -226.5t-146.5 -151.5t-161.5 -87.5t-165 -26.5t-156.5 27t-134 86.5t-97 152.5t-46.5 225.5z M483 585q-4 -64 3 -117.5t21.5 -103t48 -78t81.5 -28.5t90.5 28.5t73 78.5t54 103t40.5 117t25.5 105t15.5 82q7 46 11 86.5t7.5 106t-3.5 117t-22 100.5t-48.5 76.5t-81.5 27.5q-58 0 -107 -41.5t-79.5 -98.5t-55.5 -135t-36 -132t-19 -107q-7 -40 -11 -81.5t-8 -105.5z M580 1759l329 232l260 -248l-145 -127l-152 143l-202 -143z" />
<glyph unicode="&#xd5;" horiz-adv-x="1191" d="M158 466.5q-11 132.5 18 305.5q27 169 79 305t117.5 226.5t145.5 151.5t161 87.5t165 26.5t156.5 -27t134.5 -86.5t98 -152.5t47 -225.5t-18 -305.5q-27 -169 -79 -305t-118 -226.5t-146.5 -151.5t-161.5 -87.5t-165 -26.5t-156.5 27t-134 86.5t-97 152.5t-46.5 225.5z M483 585q-4 -64 3 -117.5t21.5 -103t48 -78t81.5 -28.5t90.5 28.5t73 78.5t54 103t40.5 117t25.5 105t15.5 82q7 46 11 86.5t7.5 106t-3.5 117t-22 100.5t-48.5 76.5t-81.5 27.5q-58 0 -107 -41.5t-79.5 -98.5t-55.5 -135t-36 -132t-19 -107q-7 -40 -11 -81.5t-8 -105.5z M532 1698q12 45 22.5 76.5t30.5 71.5t43 64.5t59.5 42t80.5 17.5q46 0 88.5 -19.5t78 -39t66.5 -19.5q67 0 89 82l151 -10q-11 -33 -18.5 -54t-21.5 -53t-26.5 -52t-32 -44t-40.5 -37.5t-49 -22.5t-60 -9q-57 0 -153 45q-5 2 -15.5 7t-16 7.5t-14.5 5.5t-18 4.5t-18 1.5 q-55 0 -76 -65h-150z" />
<glyph unicode="&#xd6;" horiz-adv-x="1191" d="M158 466.5q-11 132.5 18 305.5q27 169 79 305t117.5 226.5t145.5 151.5t161 87.5t165 26.5t156.5 -27t134.5 -86.5t98 -152.5t47 -225.5t-18 -305.5q-27 -169 -79 -305t-118 -226.5t-146.5 -151.5t-161.5 -87.5t-165 -26.5t-156.5 27t-134 86.5t-97 152.5t-46.5 225.5z M483 585q-4 -64 3 -117.5t21.5 -103t48 -78t81.5 -28.5t90.5 28.5t73 78.5t54 103t40.5 117t25.5 105t15.5 82q7 46 11 86.5t7.5 106t-3.5 117t-22 100.5t-48.5 76.5t-81.5 27.5q-58 0 -107 -41.5t-79.5 -98.5t-55.5 -135t-36 -132t-19 -107q-7 -40 -11 -81.5t-8 -105.5z M518 1808q11 65 62.5 110.5t117.5 45.5q62 0 98 -46t27 -110q-9 -61 -62 -105t-116 -44q-61 0 -98.5 43.5t-28.5 105.5zM944 1808q11 65 62.5 110.5t117.5 45.5q62 0 98 -46t27 -110q-9 -61 -62 -105t-116 -44q-61 0 -98.5 43.5t-28.5 105.5z" />
<glyph unicode="&#xd7;" d="M80 229l342 295l-250 295l186 160l248 -295l355 305l133 -160l-353 -305l256 -305l-184 -160l-258 306l-342 -295z" />
<glyph unicode="&#xd8;" horiz-adv-x="1191" d="M82 61l127 160q-91 202 -33 555q18 114 50 219.5t88.5 212.5t129.5 185t179 127t231 49q91 0 172 -37t137 -102l101 126l106 -69l-135 -174q82 -195 25 -547q-29 -184 -88 -328t-129 -229t-153.5 -140t-155 -74.5t-140.5 -19.5q-175 0 -311 129l-95 -118zM481 563h4 l455 594q-34 129 -139 129q-43 0 -81 -21.5t-65.5 -54.5t-51.5 -81t-39.5 -92t-28.5 -97.5t-19.5 -87.5t-11.5 -70zM504 375q16 -51 52 -84t87 -33q53 0 100 38.5t77 92.5t54.5 125t36.5 124t19 101l28 219h-4z" />
<glyph unicode="&#xd9;" horiz-adv-x="1114" d="M164 397l180 1147h305l-157 -999q-1 -9 -5.5 -36.5t-6.5 -39.5t-5 -38.5t-2.5 -40t2.5 -35.5t7.5 -34t14.5 -27.5t22.5 -23t33 -13t43.5 -5.5q31 0 56.5 7.5t43 17t31.5 29.5t22 34.5t15.5 44t10.5 45t9 49.5l168 1065h305l-178 -1126q-7 -44 -14 -77t-24.5 -82t-41 -85 t-64 -75.5t-91.5 -65t-126.5 -42t-166.5 -16.5q-219 0 -320.5 105t-66.5 317zM586 1909l223 94l149 -295l-153 -82z" />
<glyph unicode="&#xda;" horiz-adv-x="1114" d="M164 397l180 1147h305l-157 -999q-1 -9 -5.5 -36.5t-6.5 -39.5t-5 -38.5t-2.5 -40t2.5 -35.5t7.5 -34t14.5 -27.5t22.5 -23t33 -13t43.5 -5.5q31 0 56.5 7.5t43 17t31.5 29.5t22 34.5t15.5 44t10.5 45t9 49.5l168 1065h305l-178 -1126q-7 -44 -14 -77t-24.5 -82t-41 -85 t-64 -75.5t-91.5 -65t-126.5 -42t-166.5 -16.5q-219 0 -320.5 105t-66.5 317zM696 1708l244 295l195 -94l-310 -283z" />
<glyph unicode="&#xdb;" horiz-adv-x="1114" d="M164 397l180 1147h305l-157 -999q-1 -9 -5.5 -36.5t-6.5 -39.5t-5 -38.5t-2.5 -40t2.5 -35.5t7.5 -34t14.5 -27.5t22.5 -23t33 -13t43.5 -5.5q31 0 56.5 7.5t43 17t31.5 29.5t22 34.5t15.5 44t10.5 45t9 49.5l168 1065h305l-178 -1126q-7 -44 -14 -77t-24.5 -82t-41 -85 t-64 -75.5t-91.5 -65t-126.5 -42t-166.5 -16.5q-219 0 -320.5 105t-66.5 317zM541 1759l329 232l260 -248l-145 -127l-151 143l-203 -143z" />
<glyph unicode="&#xdc;" horiz-adv-x="1114" d="M164 397l180 1147h305l-157 -999q-1 -9 -5.5 -36.5t-6.5 -39.5t-5 -38.5t-2.5 -40t2.5 -35.5t7.5 -34t14.5 -27.5t22.5 -23t33 -13t43.5 -5.5q31 0 56.5 7.5t43 17t31.5 29.5t22 34.5t15.5 44t10.5 45t9 49.5l168 1065h305l-178 -1126q-7 -44 -14 -77t-24.5 -82t-41 -85 t-64 -75.5t-91.5 -65t-126.5 -42t-166.5 -16.5q-219 0 -320.5 105t-66.5 317zM479 1808q11 65 62.5 110.5t117.5 45.5q62 0 98 -46t27 -110q-9 -61 -62 -105t-116 -44q-61 0 -98.5 43.5t-28.5 105.5zM905 1808q11 65 62.5 110.5t117.5 45.5q62 0 98 -46t27 -110 q-9 -61 -62 -105t-116 -44q-61 0 -98.5 43.5t-28.5 105.5z" />
<glyph unicode="&#xdd;" horiz-adv-x="1052" d="M252 1544h336l94 -420l10 -75h4q27 59 61 127t61.5 121t65 125t62.5 122h342l-487 -805l-117 -739h-305l117 739zM696 1708l244 295l195 -94l-310 -283z" />
<glyph unicode="&#xde;" horiz-adv-x="997" d="M109 0l243 1544h305l-45 -287h17q57 2 100 0t125.5 -25t132 -66.5t80.5 -137.5t10 -227q-33 -214 -179 -334.5t-361 -120.5l-68 4l-55 -350h-305zM508 598q114 -5 180 43.5t84 163.5q15 91 -17 146t-124 55h-58z" />
<glyph unicode="&#xdf;" horiz-adv-x="978" d="M145 0l127 797h-106l37 237h106l17 107q2 12 6 40q6 40 9.5 62.5t13.5 67.5t20.5 74t29.5 70.5t41.5 69t56.5 58t74 48.5t93.5 30t115.5 12q82 0 143.5 -23t96.5 -63t55 -93.5t19.5 -115t-8.5 -127.5q-8 -55 -21.5 -100t-36.5 -91t-61.5 -80.5t-89.5 -53.5 q176 -105 123 -420q-10 -65 -23.5 -120t-35.5 -117.5t-53.5 -110.5t-73.5 -88.5t-101.5 -62t-130.5 -21.5q-30 0 -88 12l41 260q20 -1 37 4.5t30 18.5t23.5 25.5t19.5 35t14.5 37t11 40.5t8 38t6.5 37.5t5 29.5q4 29 6.5 47.5t5 54.5t-1 60.5t-11 50t-25.5 39.5t-45 15 l41 260q79 8 102 91q6 21 14 77q3 22 4.5 33.5t4 39.5t0 45t-8 36.5t-18.5 29.5t-33 10q-22 0 -39 -12t-27 -28.5t-18 -42.5t-11 -44.5t-6.5 -45t-4.5 -34.5l-191 -1206h-289z" />
<glyph unicode="&#xe0;" horiz-adv-x="886" d="M122 397.5q4 63.5 13 120.5q8 51 20.5 102t32.5 115.5t49 118.5t65.5 101t87 73.5t108.5 26.5q69 0 112.5 -40.5t57.5 -107.5h4l20 127h289l-164 -1034h-289l19 117h-4q-88 -137 -213 -137q-66 0 -111.5 40.5t-66 100.5t-27.5 136.5t-3 140zM420 1450l223 94l152 -295 l-156 -82zM424 522q-42 -278 63 -278q32 0 59.5 34t44.5 85.5t26.5 90t13.5 68.5q4 23 7.5 51t4 70.5t-5 75t-22 56.5t-44.5 24q-33 0 -61 -32.5t-45.5 -86t-26 -88t-14.5 -70.5z" />
<glyph unicode="&#xe1;" horiz-adv-x="886" d="M122 397.5q4 63.5 13 120.5q8 51 20.5 102t32.5 115.5t49 118.5t65.5 101t87 73.5t108.5 26.5q69 0 112.5 -40.5t57.5 -107.5h4l20 127h289l-164 -1034h-289l19 117h-4q-88 -137 -213 -137q-66 0 -111.5 40.5t-66 100.5t-27.5 136.5t-3 140zM424 522q-42 -278 63 -278 q32 0 59.5 34t44.5 85.5t26.5 90t13.5 68.5q4 23 7.5 51t4 70.5t-5 75t-22 56.5t-44.5 24q-33 0 -61 -32.5t-45.5 -86t-26 -88t-14.5 -70.5zM522 1249l242 295l194 -94l-309 -283z" />
<glyph unicode="&#xe2;" horiz-adv-x="886" d="M122 397.5q4 63.5 13 120.5q8 51 20.5 102t32.5 115.5t49 118.5t65.5 101t87 73.5t108.5 26.5q69 0 112.5 -40.5t57.5 -107.5h4l20 127h289l-164 -1034h-289l19 117h-4q-88 -137 -213 -137q-66 0 -111.5 40.5t-66 100.5t-27.5 136.5t-3 140zM377 1300l328 232l260 -248 l-146 -127l-149 143l-205 -143zM424 522q-42 -278 63 -278q32 0 59.5 34t44.5 85.5t26.5 90t13.5 68.5q4 23 7.5 51t4 70.5t-5 75t-22 56.5t-44.5 24q-33 0 -61 -32.5t-45.5 -86t-26 -88t-14.5 -70.5z" />
<glyph unicode="&#xe3;" horiz-adv-x="886" d="M122 397.5q4 63.5 13 120.5q8 51 20.5 102t32.5 115.5t49 118.5t65.5 101t87 73.5t108.5 26.5q69 0 112.5 -40.5t57.5 -107.5h4l20 127h289l-164 -1034h-289l19 117h-4q-88 -137 -213 -137q-66 0 -111.5 40.5t-66 100.5t-27.5 136.5t-3 140zM326 1239q11 44 21.5 76.5 t30 72t43 64t60 42t80.5 17.5q46 0 88.5 -19.5t78.5 -38.5t67 -19q68 0 86 82l151 -11q-14 -46 -26 -76.5t-33.5 -71t-46 -65t-61.5 -42t-81 -17.5q-59 0 -151 45q-5 2 -19 9t-20.5 9.5t-18.5 5.5t-24 3q-55 0 -76 -66h-149zM424 522q-42 -278 63 -278q32 0 59.5 34 t44.5 85.5t26.5 90t13.5 68.5q4 23 7.5 51t4 70.5t-5 75t-22 56.5t-44.5 24q-33 0 -61 -32.5t-45.5 -86t-26 -88t-14.5 -70.5z" />
<glyph unicode="&#xe4;" horiz-adv-x="886" d="M122 397.5q4 63.5 13 120.5q8 51 20.5 102t32.5 115.5t49 118.5t65.5 101t87 73.5t108.5 26.5q69 0 112.5 -40.5t57.5 -107.5h4l20 127h289l-164 -1034h-289l19 117h-4q-88 -137 -213 -137q-66 0 -111.5 40.5t-66 100.5t-27.5 136.5t-3 140zM309 1350q11 65 62.5 110 t117.5 45q63 0 99.5 -46t25.5 -109q-9 -61 -61 -105.5t-115 -44.5q-62 0 -100 44.5t-29 105.5zM424 522q-42 -278 63 -278q32 0 59.5 34t44.5 85.5t26.5 90t13.5 68.5q4 23 7.5 51t4 70.5t-5 75t-22 56.5t-44.5 24q-33 0 -61 -32.5t-45.5 -86t-26 -88t-14.5 -70.5zM735 1350 q11 65 62.5 110t117.5 45q63 0 99.5 -46t25.5 -109q-9 -61 -61 -105.5t-115 -44.5q-62 0 -100 44.5t-29 105.5z" />
<glyph unicode="&#xe5;" horiz-adv-x="886" d="M122 397.5q4 63.5 13 120.5q8 51 20.5 102t32.5 115.5t49 118.5t65.5 101t87 73.5t108.5 26.5q69 0 112.5 -40.5t57.5 -107.5h4l20 127h289l-164 -1034h-289l19 117h-4q-88 -137 -213 -137q-66 0 -111.5 40.5t-66 100.5t-27.5 136.5t-3 140zM424 522q-42 -278 63 -278 q32 0 59.5 34t44.5 85.5t26.5 90t13.5 68.5q4 23 7.5 51t4 70.5t-5 75t-22 56.5t-44.5 24q-33 0 -61 -32.5t-45.5 -86t-26 -88t-14.5 -70.5zM453 1348q15 93 90.5 157t169.5 64q91 0 143.5 -67t38.5 -159q-14 -89 -88.5 -154t-165.5 -65q-92 0 -147 65t-41 159zM588 1346 q-6 -37 15.5 -61.5t58.5 -24.5q34 0 63 24.5t35 58.5q6 37 -14.5 64t-55.5 27q-37 0 -66.5 -25t-35.5 -63z" />
<glyph unicode="&#xe6;" horiz-adv-x="1310" d="M102 309q22 136 122.5 224t236.5 88q105 0 147 -37q8 45 10.5 75.5t-2 62.5t-19.5 51t-45.5 31.5t-76.5 12.5q-91 0 -211 -53l39 248q127 43 244 43q100 0 166 -34.5t94 -117.5q103 152 268 152q153 0 236 -132t35 -364l-25 -119h-457q-15 -113 -8 -157q12 -82 80 -82 q92 0 111 118h245q-22 -72 -52 -128.5t-75 -106.5t-110 -77t-146 -27q-167 0 -237 126q-135 -126 -285 -126q-154 0 -232 88.5t-53 240.5zM367 307q-8 -46 17 -80t71 -34t83.5 32t43.5 78q7 44 -20 76.5t-70 32.5t-81 -31.5t-44 -73.5zM895 618h211l4 25q5 31 5 59.5 t-5.5 60.5t-24.5 51.5t-51 19.5q-31 0 -56.5 -19t-41 -49.5t-24.5 -59t-13 -57.5z" />
<glyph unicode="&#xe7;" horiz-adv-x="645" d="M113 -381l202 283l174 -74l-260 -274zM122.5 388.5q0.5 60.5 10.5 121.5q13 82 38 157t67 147t95.5 124.5t128 84.5t161.5 32q70 0 137 -31l-39 -254q-33 33 -80 33q-50 0 -90 -27.5t-65 -72t-39 -88.5t-21 -89q-8 -49 -8.5 -91t8.5 -87t40.5 -71.5t82.5 -26.5 q41 0 94 31l-43 -265q-82 -36 -172 -36q-68 0 -122 22.5t-88 62.5t-56.5 91t-31 111.5t-8 121z" />
<glyph unicode="&#xe8;" horiz-adv-x="847" d="M120.5 368.5q0.5 61.5 10.5 127.5q12 79 35.5 154t64 149.5t93 130.5t127 90.5t161.5 34.5q153 0 236 -132t35 -364l-25 -119h-457q-15 -113 -8 -157q14 -81 80 -82q92 0 111 118h245q-22 -72 -52 -128.5t-75 -106.5t-110 -77t-146 -27q-71 0 -127.5 20t-93 57t-61 85 t-34.5 106.5t-9.5 120zM399 1450l224 94l151 -295l-156 -82zM432 618h211l4 25q5 31 5 59.5t-5.5 60.5t-24.5 51.5t-51 19.5q-31 0 -56.5 -19t-41 -49.5t-24.5 -59t-13 -57.5z" />
<glyph unicode="&#xe9;" horiz-adv-x="847" d="M120.5 368.5q0.5 61.5 10.5 127.5q12 79 35.5 154t64 149.5t93 130.5t127 90.5t161.5 34.5q153 0 236 -132t35 -364l-25 -119h-457q-15 -113 -8 -157q14 -81 80 -82q92 0 111 118h245q-22 -72 -52 -128.5t-75 -106.5t-110 -77t-146 -27q-71 0 -127.5 20t-93 57t-61 85 t-34.5 106.5t-9.5 120zM432 618h211l4 25q5 31 5 59.5t-5.5 60.5t-24.5 51.5t-51 19.5q-31 0 -56.5 -19t-41 -49.5t-24.5 -59t-13 -57.5zM502 1249l241 295l195 -94l-309 -283z" />
<glyph unicode="&#xea;" horiz-adv-x="847" d="M120.5 368.5q0.5 61.5 10.5 127.5q12 79 35.5 154t64 149.5t93 130.5t127 90.5t161.5 34.5q153 0 236 -132t35 -364l-25 -119h-457q-15 -113 -8 -157q14 -81 80 -82q92 0 111 118h245q-22 -72 -52 -128.5t-75 -106.5t-110 -77t-146 -27q-71 0 -127.5 20t-93 57t-61 85 t-34.5 106.5t-9.5 120zM352 1300l328 232l260 -248l-145 -127l-150 143l-205 -143zM432 618h211l4 25q5 31 5 59.5t-5.5 60.5t-24.5 51.5t-51 19.5q-31 0 -56.5 -19t-41 -49.5t-24.5 -59t-13 -57.5z" />
<glyph unicode="&#xeb;" horiz-adv-x="847" d="M120.5 368.5q0.5 61.5 10.5 127.5q12 79 35.5 154t64 149.5t93 130.5t127 90.5t161.5 34.5q153 0 236 -132t35 -364l-25 -119h-457q-15 -113 -8 -157q14 -81 80 -82q92 0 111 118h245q-22 -72 -52 -128.5t-75 -106.5t-110 -77t-146 -27q-71 0 -127.5 20t-93 57t-61 85 t-34.5 106.5t-9.5 120zM272 1350q11 65 63 110t118 45q63 0 99.5 -46t25.5 -109q-9 -61 -61.5 -105.5t-115.5 -44.5q-62 0 -100 44.5t-29 105.5zM432 618h211l4 25q5 31 5 59.5t-5.5 60.5t-24.5 51.5t-51 19.5q-31 0 -56.5 -19t-41 -49.5t-24.5 -59t-13 -57.5zM698 1350 q11 65 63 110t118 45q63 0 99.5 -46t25.5 -109q-9 -61 -61.5 -105.5t-115.5 -44.5q-62 0 -100 44.5t-29 105.5z" />
<glyph unicode="&#xec;" horiz-adv-x="428" d="M70 0l163 1034h289l-164 -1034h-288zM209 1450l223 94l152 -295l-156 -82z" />
<glyph unicode="&#xed;" horiz-adv-x="428" d="M70 0l163 1034h289l-164 -1034h-288zM240 1249l241 295l195 -94l-309 -283z" />
<glyph unicode="&#xee;" horiz-adv-x="428" d="M70 0l163 1034h289l-164 -1034h-288zM127 1300l328 232l260 -248l-146 -127l-149 143l-205 -143z" />
<glyph unicode="&#xef;" horiz-adv-x="428" d="M63 1350q11 65 63 110t118 45q63 0 99.5 -46t25.5 -109q-9 -61 -61 -105.5t-115 -44.5q-62 0 -100.5 44.5t-29.5 105.5zM70 0l163 1034h289l-164 -1034h-288zM489 1350q11 65 63 110t118 45q63 0 99.5 -46t25.5 -109q-9 -61 -61.5 -105.5t-115.5 -44.5q-62 0 -100 44.5 t-29 105.5z" />
<glyph unicode="&#xf0;" horiz-adv-x="892" d="M121.5 384q2.5 63 13.5 132q13 81 34.5 152.5t59 141.5t86.5 119.5t120.5 80t158.5 30.5q26 0 53 -8q-12 28 -32 78.5t-36 89.5t-32 72l-191 -92l-49 127l182 88q-43 91 -102 176l231 108q36 -49 105 -170l190 93l60 -123l-191 -93q95 -205 134.5 -429.5t5.5 -440.5 q-12 -79 -34.5 -151t-62.5 -144.5t-91.5 -125t-127 -85.5t-164.5 -33q-75 0 -133 21.5t-94 60t-58.5 88.5t-30 112t-5 125zM412 393.5q-1 -43.5 4 -75.5t22 -56t45 -24t53 24.5t40 55.5t28.5 75.5t18.5 70t10 52.5q6 33 8.5 70.5t1.5 89.5t-19 85.5t-53 33.5 q-100 0 -147 -279q-4 -26 -7.5 -52.5t-4.5 -70z" />
<glyph unicode="&#xf1;" horiz-adv-x="868" d="M72 0l164 1034h288l-24 -160h4q42 78 114.5 129.5t153.5 51.5q41 0 70.5 -12.5t47 -30.5t27 -49t12 -57t-0.5 -67t-6.5 -67t-10.5 -67q-4 -25 -6 -37l-106 -668h-289l90 567q1 7 5 27t6.5 35.5t4.5 37t0 37t-7.5 30t-18 22.5t-31.5 8q-77 0 -96 -119l-103 -645h-288z M299 1239q11 44 21.5 76.5t30.5 71.5t43.5 64.5t60 42.5t80.5 17q46 0 88.5 -19.5t78 -38.5t66.5 -19q68 0 86 82l152 -11q-14 -46 -26 -76.5t-33.5 -71t-46 -65t-61.5 -42t-81 -17.5q-60 0 -152 45q-5 2 -19 9t-20.5 9.5t-18.5 5.5t-24 3q-54 0 -75 -66h-150z" />
<glyph unicode="&#xf2;" horiz-adv-x="892" d="M120 358.5q1 73.5 15 157.5q13 84 35.5 158t62 145.5t91 122.5t126 82t164.5 31t154.5 -31t99.5 -82t51.5 -122.5t16 -145.5t-13.5 -158q-14 -84 -36.5 -157.5t-62 -144.5t-91 -121.5t-126 -81.5t-164.5 -31t-154.5 31t-100 81.5t-52 121.5t-15.5 144.5zM412 393.5 q-1 -43.5 4 -75.5t22 -56t45 -24t53 24.5t40 55.5t28.5 75.5t18.5 70t10 52.5q6 33 8.5 70.5t1.5 89.5t-19 85.5t-53 33.5q-100 0 -147 -279q-4 -26 -7.5 -52.5t-4.5 -70zM422 1450l223 94l152 -295l-156 -82z" />
<glyph unicode="&#xf3;" horiz-adv-x="892" d="M120 358.5q1 73.5 15 157.5q13 84 35.5 158t62 145.5t91 122.5t126 82t164.5 31t154.5 -31t99.5 -82t51.5 -122.5t16 -145.5t-13.5 -158q-14 -84 -36.5 -157.5t-62 -144.5t-91 -121.5t-126 -81.5t-164.5 -31t-154.5 31t-100 81.5t-52 121.5t-15.5 144.5zM412 393.5 q-1 -43.5 4 -75.5t22 -56t45 -24t53 24.5t40 55.5t28.5 75.5t18.5 70t10 52.5q6 33 8.5 70.5t1.5 89.5t-19 85.5t-53 33.5q-100 0 -147 -279q-4 -26 -7.5 -52.5t-4.5 -70zM524 1249l242 295l195 -94l-310 -283z" />
<glyph unicode="&#xf4;" horiz-adv-x="892" d="M120 358.5q1 73.5 15 157.5q13 84 35.5 158t62 145.5t91 122.5t126 82t164.5 31t154.5 -31t99.5 -82t51.5 -122.5t16 -145.5t-13.5 -158q-14 -84 -36.5 -157.5t-62 -144.5t-91 -121.5t-126 -81.5t-164.5 -31t-154.5 31t-100 81.5t-52 121.5t-15.5 144.5zM358 1300 l328 232l260 -248l-145 -127l-150 143l-205 -143zM412 393.5q-1 -43.5 4 -75.5t22 -56t45 -24t53 24.5t40 55.5t28.5 75.5t18.5 70t10 52.5q6 33 8.5 70.5t1.5 89.5t-19 85.5t-53 33.5q-100 0 -147 -279q-4 -26 -7.5 -52.5t-4.5 -70z" />
<glyph unicode="&#xf5;" horiz-adv-x="892" d="M120 358.5q1 73.5 15 157.5q13 84 35.5 158t62 145.5t91 122.5t126 82t164.5 31t154.5 -31t99.5 -82t51.5 -122.5t16 -145.5t-13.5 -158q-14 -84 -36.5 -157.5t-62 -144.5t-91 -121.5t-126 -81.5t-164.5 -31t-154.5 31t-100 81.5t-52 121.5t-15.5 144.5zM311 1239 q11 44 21.5 76.5t30.5 71.5t43.5 64.5t60 42.5t80.5 17q46 0 88.5 -19.5t78 -38.5t66.5 -19q68 0 86 82l152 -11q-14 -46 -26 -76.5t-33.5 -71t-46 -65t-61.5 -42t-81 -17.5q-60 0 -152 45q-6 3 -19 9t-20 9t-18.5 6t-23.5 3q-55 0 -76 -66h-150zM412 393.5 q-1 -43.5 4 -75.5t22 -56t45 -24t53 24.5t40 55.5t28.5 75.5t18.5 70t10 52.5q6 33 8.5 70.5t1.5 89.5t-19 85.5t-53 33.5q-100 0 -147 -279q-4 -26 -7.5 -52.5t-4.5 -70z" />
<glyph unicode="&#xf6;" horiz-adv-x="892" d="M120 358.5q1 73.5 15 157.5q13 84 35.5 158t62 145.5t91 122.5t126 82t164.5 31t154.5 -31t99.5 -82t51.5 -122.5t16 -145.5t-13.5 -158q-14 -84 -36.5 -157.5t-62 -144.5t-91 -121.5t-126 -81.5t-164.5 -31t-154.5 31t-100 81.5t-52 121.5t-15.5 144.5zM295 1350 q11 65 62.5 110t117.5 45q63 0 99.5 -46t25.5 -109q-9 -61 -61 -105.5t-115 -44.5q-62 0 -100 44.5t-29 105.5zM412 393.5q-1 -43.5 4 -75.5t22 -56t45 -24t53 24.5t40 55.5t28.5 75.5t18.5 70t10 52.5q6 33 8.5 70.5t1.5 89.5t-19 85.5t-53 33.5q-100 0 -147 -279 q-4 -26 -7.5 -52.5t-4.5 -70zM721 1350q11 65 62.5 110t117.5 45q63 0 99.5 -46t25.5 -109q-9 -61 -61 -105.5t-115 -44.5q-62 0 -100 44.5t-29 105.5z" />
<glyph unicode="&#xf7;" d="M109 412l34 225h920l-35 -225h-919zM375 27l37 235h260l-37 -235h-260zM496 786l36 236h261l-37 -236h-260z" />
<glyph unicode="&#xf8;" horiz-adv-x="892" d="M70 33l92 123q-61 150 -25 370q12 75 34.5 146.5t62.5 142t92 123t126 85t160 32.5q136 0 207 -68l70 90l94 -65l-92 -119q65 -161 31 -377q-13 -80 -36 -153t-63 -144t-91 -123t-124 -84t-159 -32q-129 0 -216 73l-69 -90zM413.5 396.5q-0.5 -43.5 5.5 -76t23.5 -56.5 t46.5 -24q32 0 59.5 34t44.5 85t26.5 88.5t13.5 66.5q4 26 7 54t3 71.5t-5.5 75.5t-23.5 56t-47 24q-93 0 -143 -273q-4 -26 -7 -54t-3.5 -71.5z" />
<glyph unicode="&#xf9;" horiz-adv-x="866" d="M123 246q-1 47 2.5 84.5t11.5 83.5l99 620h288l-90 -567q-1 -7 -8 -43t-9.5 -59.5t-1 -53.5t16 -45.5t41.5 -15.5q73 0 94 143q1 7 2 10l103 631h286l-104 -659q-30 -187 -138 -291t-294 -104q-68 0 -120.5 14.5t-85 38t-53.5 59.5t-30 71.5t-10 82.5zM379 1450l223 94 l152 -295l-156 -82z" />
<glyph unicode="&#xfa;" horiz-adv-x="866" d="M123 246q-1 47 2.5 84.5t11.5 83.5l99 620h288l-90 -567q-1 -7 -8 -43t-9.5 -59.5t-1 -53.5t16 -45.5t41.5 -15.5q73 0 94 143q1 7 2 10l103 631h286l-104 -659q-30 -187 -138 -291t-294 -104q-68 0 -120.5 14.5t-85 38t-53.5 59.5t-30 71.5t-10 82.5zM512 1249l242 295 l194 -94l-309 -283z" />
<glyph unicode="&#xfb;" horiz-adv-x="866" d="M123 246q-1 47 2.5 84.5t11.5 83.5l99 620h288l-90 -567q-1 -7 -8 -43t-9.5 -59.5t-1 -53.5t16 -45.5t41.5 -15.5q73 0 94 143q1 7 2 10l103 631h286l-104 -659q-30 -187 -138 -291t-294 -104q-68 0 -120.5 14.5t-85 38t-53.5 59.5t-30 71.5t-10 82.5zM346 1300l328 232 l260 -248l-146 -127l-149 143l-205 -143z" />
<glyph unicode="&#xfc;" horiz-adv-x="866" d="M123 246q-1 47 2.5 84.5t11.5 83.5l99 620h288l-90 -567q-1 -7 -8 -43t-9.5 -59.5t-1 -53.5t16 -45.5t41.5 -15.5q73 0 94 143q1 7 2 10l103 631h286l-104 -659q-30 -187 -138 -291t-294 -104q-68 0 -120.5 14.5t-85 38t-53.5 59.5t-30 71.5t-10 82.5zM283 1350 q11 65 62.5 110t117.5 45q63 0 99.5 -46t25.5 -109q-9 -61 -61 -105.5t-115 -44.5q-62 0 -100 44.5t-29 105.5zM709 1350q11 65 62.5 110t117.5 45q63 0 99.5 -46t25.5 -109q-9 -61 -61 -105.5t-115 -44.5q-62 0 -100 44.5t-29 105.5z" />
<glyph unicode="&#xfd;" horiz-adv-x="925" d="M86 -510l250 530l-141 1014h290l43 -418l7 -172h4l229 590h291l-688 -1544h-285zM561 1249l242 295l194 -94l-309 -283z" />
<glyph unicode="&#xfe;" horiz-adv-x="886" d="M-8 -510l309 1958h289l-86 -541h4q86 148 217 148q70 0 116 -39.5t65 -97t24 -135.5t0 -140t-15 -125q-8 -47 -20.5 -98t-33 -114.5t-50.5 -119t-66.5 -103.5t-87 -75.5t-106.5 -27.5q-124 0 -168 137h-4l-98 -627h-289zM412.5 362q2.5 -29 8.5 -57.5t21 -44.5t37 -16 q36 0 64 32t45 84.5t25 87.5t14 74q5 32 8 70t2 89t-18 84.5t-50 33.5q-98 0 -147 -277q-3 -20 -5 -40t-4.5 -55.5t0 -64.5z" />
<glyph unicode="&#xff;" horiz-adv-x="925" d="M86 -510l250 530l-141 1014h290l43 -418l7 -172h4l229 590h291l-688 -1544h-285zM311 1350q11 65 63 110t118 45q63 0 99 -45.5t25 -109.5q-9 -61 -61 -105.5t-115 -44.5q-62 0 -100 44.5t-29 105.5zM737 1350q11 65 63 110t118 45q63 0 99 -45.5t25 -109.5 q-9 -61 -61 -105.5t-115 -44.5q-62 0 -100 44.5t-29 105.5z" />
<glyph unicode="&#x152;" horiz-adv-x="1525" d="M155 467.5q-3 79.5 2.5 150t16.5 142.5q12 75 29 148t45.5 155t64 153t86 137t109 113t135.5 75t164 28q74 0 136.5 -28.5t96.5 -82.5h4l13 86h633l-45 -287h-330l-51 -323h295l-46 -287h-294l-58 -360h332l-45 -287h-635l18 117h-4q-56 -67 -132 -104.5t-158 -37.5 q-83 0 -148 27.5t-107 73t-70.5 110t-41 133.5t-15.5 148.5zM481.5 577.5q-3.5 -64.5 3.5 -118.5t22 -103t49 -77.5t83 -28.5q210 0 295 524q85 520 -129 520q-49 0 -92 -27.5t-74 -77t-54.5 -101.5t-40.5 -117.5t-25.5 -108t-16.5 -88.5q-7 -43 -12 -87.5t-8.5 -109z" />
<glyph unicode="&#x153;" horiz-adv-x="1337" d="M123 362q2 76 12 154q16 101 51 193t90 171.5t136.5 127t179.5 47.5q162 0 235 -103q64 55 125 79t150 24q153 0 235.5 -132t34.5 -364l-24 -119h-457q-15 -113 -8 -157q12 -82 80 -82q91 0 110 118h246q-22 -72 -52 -128.5t-75 -106.5t-110 -77t-146 -27 q-174 0 -266 112q-100 -112 -250 -112q-79 0 -138 31t-91.5 84t-51 122t-16.5 145zM412 392q-1 -44 4 -77t22 -57.5t45 -24.5q33 0 61 35.5t45 90t26 93.5t14 70q6 32 9 69.5t3 89.5t-17.5 86t-50.5 34q-101 0 -149 -285q-4 -25 -7.5 -52.5t-4.5 -71.5zM922 618h211l4 25 q5 31 5 59.5t-5.5 60.5t-24.5 51.5t-51 19.5q-31 0 -56.5 -19t-41 -49.5t-24.5 -59t-13 -57.5z" />
<glyph unicode="&#x178;" horiz-adv-x="1052" d="M252 1544h336l94 -420l10 -75h4q27 59 61 127t61.5 121t65 125t62.5 122h342l-487 -805l-117 -739h-305l117 739zM461 1808q11 65 62.5 110.5t117.5 45.5q62 0 98 -46t27 -110q-9 -61 -62 -105t-116 -44q-61 0 -98.5 43.5t-28.5 105.5zM887 1808q11 65 62.5 110.5 t117.5 45.5q62 0 98 -46t27 -110q-9 -61 -62 -105t-116 -44q-61 0 -98.5 43.5t-28.5 105.5z" />
<glyph unicode="&#x2c6;" horiz-adv-x="614" d="M219 1300l328 232l260 -248l-145 -127l-150 143l-205 -143z" />
<glyph unicode="&#x2dc;" horiz-adv-x="614" d="M172 1239q11 44 21.5 76.5t30.5 71.5t43.5 64.5t60 42.5t80.5 17q46 0 88.5 -19.5t78 -38.5t66.5 -19q68 0 86 82l152 -11q-14 -46 -26 -76.5t-33.5 -71t-46 -65t-61.5 -42t-81 -17.5q-60 0 -152 45q-5 2 -19 9t-20.5 9.5t-18.5 5.5t-24 3q-54 0 -75 -66h-150z" />
<glyph unicode="&#x2000;" horiz-adv-x="1014" />
<glyph unicode="&#x2001;" horiz-adv-x="2028" />
<glyph unicode="&#x2002;" horiz-adv-x="1014" />
<glyph unicode="&#x2003;" horiz-adv-x="2028" />
<glyph unicode="&#x2004;" horiz-adv-x="676" />
<glyph unicode="&#x2005;" horiz-adv-x="507" />
<glyph unicode="&#x2006;" horiz-adv-x="338" />
<glyph unicode="&#x2007;" horiz-adv-x="338" />
<glyph unicode="&#x2008;" horiz-adv-x="253" />
<glyph unicode="&#x2009;" horiz-adv-x="405" />
<glyph unicode="&#x200a;" horiz-adv-x="112" />
<glyph unicode="&#x2010;" horiz-adv-x="651" d="M156 541l43 272h512l-43 -272h-512z" />
<glyph unicode="&#x2011;" horiz-adv-x="651" d="M156 541l43 272h512l-43 -272h-512z" />
<glyph unicode="&#x2012;" horiz-adv-x="651" d="M156 541l43 272h512l-43 -272h-512z" />
<glyph unicode="&#x2013;" horiz-adv-x="1024" d="M86 541l43 272h1024l-43 -272h-1024z" />
<glyph unicode="&#x2014;" horiz-adv-x="2048" d="M352 541l43 272h1516l-43 -272h-1516z" />
<glyph unicode="&#x2018;" horiz-adv-x="618" d="M199 918l405 626h205l-303 -626h-307z" />
<glyph unicode="&#x2019;" horiz-adv-x="618" d="M199 918l303 626h307l-406 -626h-204z" />
<glyph unicode="&#x201a;" horiz-adv-x="620" d="M6 -295l305 627h310l-410 -627h-205z" />
<glyph unicode="&#x201c;" horiz-adv-x="1005" d="M199 918l405 626h205l-303 -626h-307zM586 918l405 626h205l-303 -626h-307z" />
<glyph unicode="&#x201d;" horiz-adv-x="1005" d="M199 918l303 626h307l-406 -626h-204zM586 918l303 626h307l-405 -626h-205z" />
<glyph unicode="&#x201e;" horiz-adv-x="1005" d="M6 -295l305 627h307l-407 -627h-205zM393 -295l305 627h308l-408 -627h-205z" />
<glyph unicode="&#x2022;" horiz-adv-x="860" d="M164 762q25 159 155 271t291 112q160 0 255.5 -112.5t70.5 -270.5q-26 -161 -157.5 -275t-291.5 -114q-161 0 -255 113.5t-68 275.5z" />
<glyph unicode="&#x2026;" horiz-adv-x="2048" d="M174 170q12 80 78 137.5t147 57.5t128.5 -57.5t35.5 -137.5t-78 -137.5t-147 -57.5t-128.5 57.5t-35.5 137.5zM856 170q12 80 78 137.5t147 57.5t128.5 -57.5t35.5 -137.5t-78 -137.5t-147 -57.5t-128.5 57.5t-35.5 137.5zM1538 170q12 80 78 137.5t147 57.5t128.5 -57.5 t35.5 -137.5t-78 -137.5t-147 -57.5t-128.5 57.5t-35.5 137.5z" />
<glyph unicode="&#x202f;" horiz-adv-x="405" />
<glyph unicode="&#x2039;" horiz-adv-x="532" d="M162 680l340 475l145 -88l-272 -387l147 -399l-170 -80z" />
<glyph unicode="&#x203a;" horiz-adv-x="532" d="M100 281l275 399l-150 387l170 88l193 -475l-342 -479z" />
<glyph unicode="&#x205f;" horiz-adv-x="507" />
<glyph unicode="&#x20ac;" d="M115 504l92 205h74q0 62 20 129h-133l92 204h90q149 525 555 525q90 0 158.5 -19t97.5 -43l-41 -262q-59 70 -200 70q-106 0 -174.5 -65t-104.5 -206h393l-94 -204h-352q-9 -56 -21 -129h314l-95 -205h-231q-7 -143 41 -209t152 -66q143 0 223 66l-43 -264 q-78 -54 -275 -54q-198 0 -296 127.5t-89 399.5h-153z" />
<glyph unicode="&#x2122;" horiz-adv-x="1638" d="M221 1384l25 160h633l-25 -160h-236l-106 -667h-164l107 667h-234zM836 717l131 827h264l90 -489h4l240 489h264l-131 -827h-164l106 667h-4l-321 -667h-96l-109 667h-4l-107 -667h-163z" />
<glyph unicode="&#xe000;" horiz-adv-x="1034" d="M0 0v1034h1034v-1034h-1034z" />
</font>
</defs>
</svg>
