<?xml version="1.0" standalone="no"?>
<!DOCTYPE svg PUBLIC "-//W3C//DTD SVG 1.1//EN" "http://www.w3.org/Graphics/SVG/1.1/DTD/svg11.dtd" >
<svg xmlns="http://www.w3.org/2000/svg">
<metadata></metadata>
<defs>
<font id="FuturaStdCondensedLightItalic" horiz-adv-x="851" >
<font-face units-per-em="2048" ascent="1690" descent="-358" />
<missing-glyph horiz-adv-x="425" />
<glyph unicode="&#xfb01;" horiz-adv-x="743" d="M113 0l147 928h-113l19 123h113l49 311q25 147 80.5 220t162.5 73q66 0 113 -23l-22 -145q-49 45 -91 45q-51 0 -73.5 -41t-36.5 -127l-49 -313h174l-19 -123h-174l-147 -928h-133zM518 0l166 1051h133l-166 -1051h-133zM700 1362q6 40 41 69t76 29q40 0 64 -29t18 -69 q-6 -41 -39.5 -70.5t-73.5 -29.5q-41 0 -66.5 29.5t-19.5 70.5z" />
<glyph unicode="&#xfb02;" horiz-adv-x="743" d="M113 0l147 928h-113l19 123h113l49 309q24 154 85 224.5t158 70.5q66 0 113 -23l-22 -145q-49 45 -91 45q-28 0 -47 -10.5t-31 -36t-18 -50.5t-14 -73l-49 -311h174l-19 -123h-174l-147 -928h-133zM518 0l260 1638h133l-260 -1638h-133z" />
<glyph horiz-adv-x="0" />
<glyph horiz-adv-x="2048" />
<glyph unicode=" "  horiz-adv-x="425" />
<glyph unicode="&#x09;" horiz-adv-x="425" />
<glyph unicode="&#xa0;" horiz-adv-x="425" />
<glyph unicode="!" horiz-adv-x="702" d="M262 88q6 43 42 74t79 31t68.5 -31t19.5 -74q-8 -43 -43 -73.5t-78 -30.5t-69 30.5t-19 73.5zM344 387l182 1157h138l-183 -1157h-137z" />
<glyph unicode="&#x22;" horiz-adv-x="632" d="M303 1081l55 463h154l-88 -463h-121zM555 1081l55 463h154l-88 -463h-121z" />
<glyph unicode="#" d="M72 0l211 510h-205l49 104h199l110 269h-203l48 104h196l219 537h99l-222 -537h144l219 537h96l-219 -537h197l-47 -104h-189l-110 -269h192l-49 -104h-186l-207 -510h-103l211 510h-143l-211 -510h-96zM422 614h143l111 269h-141z" />
<glyph unicode="$" d="M104 133l105 100q110 -102 213 -102q112 0 192.5 79.5t98.5 190.5q4 26 4.5 49.5t-3.5 44.5t-9.5 38.5t-17 35t-21 31t-27.5 29t-29.5 25.5t-34 24.5t-35.5 23t-38 23.5q-72 44 -117.5 81.5t-86 89.5t-53 117t0.5 146q24 150 116 252t244 129l29 180h100l-28 -176 q132 -9 243 -92l-90 -109q-102 70 -201 70q-108 0 -182.5 -68.5t-89.5 -173.5q-10 -65 1.5 -115.5t51.5 -91.5t70 -62.5t94 -60.5q5 -3 8 -5t7 -4.5t8 -4.5q26 -16 44.5 -28t42 -30t40 -34t34.5 -37.5t30 -43.5t22.5 -50t14.5 -58t3.5 -66.5t-6.5 -76.5 q-24 -150 -130.5 -262.5t-258.5 -136.5l-31 -197h-100l30 193q-165 21 -258 133z" />
<glyph unicode="%" horiz-adv-x="1067" d="M166 0l915 1544h66l-911 -1544h-70zM217 980q-1 28 3 67t7 63t9 59q8 45 12.5 69t16 72t23 77t31.5 67t42.5 59t55 36.5t70.5 15.5t66 -15t44 -37.5t24.5 -58t10 -68t-1.5 -76t-7 -73.5t-11 -68q-7 -41 -11.5 -68.5t-15.5 -72.5t-23 -76t-31.5 -67.5t-42.5 -58.5 t-55.5 -37t-70.5 -15q-33 0 -59 10.5t-41.5 31.5t-26 44.5t-14 57.5t-4.5 62zM305.5 962.5q2.5 -27.5 9 -55t22 -41.5t38.5 -14q105 0 151 317q6 38 10 67.5t7 70t1 69.5t-8.5 56t-22 41t-38.5 14q-34 0 -61 -30t-45 -84.5t-27.5 -99t-19.5 -104.5q-6 -40 -9 -67.5 t-6.5 -69.5t-1 -69.5zM679 158q-2 31 1.5 76t7.5 72.5t10 68.5q8 47 14.5 80.5t20 85t31.5 87.5t43.5 71t62 53t80.5 18q38 0 66 -15t43.5 -37t24 -58.5t10.5 -67.5t-1.5 -76t-7.5 -72.5t-10 -68.5q-8 -47 -14.5 -80.5t-20 -85t-31.5 -87.5t-43.5 -71t-62 -53t-80.5 -18 q-38 0 -66 15t-43.5 37t-24 58.5t-10.5 67.5zM766.5 168.5q2.5 -29.5 9 -56.5t22 -41t38.5 -14q34 0 61 30t45 84.5t27.5 99t19.5 104.5q6 38 10 67.5t7 69.5t1 69t-8.5 56t-22 41t-38.5 14q-34 0 -61 -30t-45 -84t-28.5 -99t-19.5 -104q-6 -38 -10 -68t-7 -69.5t-0.5 -69z " />
<glyph unicode="&#x26;" horiz-adv-x="1083" d="M211 406q39 242 297 436q-6 17 -18 51.5t-19 55.5t-17 54t-15 59t-9.5 56.5t-4 60t4.5 58.5q20 128 122 217.5t224 89.5q126 0 193 -83.5t45 -213.5q-8 -50 -32.5 -100.5t-54 -90.5t-75 -85t-80.5 -74t-84 -68l-14 -10l186 -512l115 119l12 14l82 -94l-162 -158l66 -188 h-150l-32 84q-129 -104 -275 -104q-112 0 -188.5 62t-105 157.5t-11.5 206.5zM348 403q-10 -70 6 -134t62 -109.5t114 -50.5q113 3 224 92l-201 518q-182 -162 -205 -316zM567 1235q-20 -118 60 -305q95 66 166.5 151t85.5 174q11 64 -23 112t-96 48q-75 0 -128.5 -51 t-64.5 -129z" />
<glyph unicode="'" horiz-adv-x="458" d="M340 1081l55 463h154l-88 -463h-121z" />
<glyph unicode="(" horiz-adv-x="614" d="M309 692q29 222 129 445t258 428l97 -43q-150 -192 -246 -405t-123 -425q-39 -221 -11.5 -428t115.5 -401l-108 -43q-195 426 -111 872z" />
<glyph unicode=")" horiz-adv-x="614" d="M41 -137q313 401 371 829q38 220 9.5 428.5t-116.5 401.5l109 43q193 -428 112 -873q-62 -452 -389 -872z" />
<glyph unicode="*" horiz-adv-x="849" d="M262 1253l39 78l279 -96l47 309h82l-47 -309l309 96l14 -78l-311 -96l143 -250l-76 -49l-141 250l-221 -250l-60 49l222 250z" />
<glyph unicode="+" horiz-adv-x="909" d="M119 473l16 105h361l69 448h105l-70 -448h361l-17 -105h-360l-72 -450h-104l71 450h-360z" />
<glyph unicode="," horiz-adv-x="425" d="M-4 -283l233 476l136 -66l-279 -457z" />
<glyph unicode="-" horiz-adv-x="319" d="M90 573l27 162h319l-26 -162h-320z" />
<glyph unicode="." horiz-adv-x="425" d="M123 88q6 43 42 74t79 31t68.5 -31t19.5 -74q-8 -43 -43 -73.5t-78 -30.5t-69 30.5t-19 73.5z" />
<glyph unicode="/" horiz-adv-x="950" d="M-106 -442l1232 2080h123l-1231 -2080h-124z" />
<glyph unicode="0" d="M163 431q2 51 9.5 119.5t14 114t16.5 107.5t17.5 107.5t22 114t29 119.5t36.5 113.5t46.5 108t58.5 91.5t71.5 74.5t86 46.5t103.5 18t97.5 -18t71.5 -46.5t48 -74.5t29 -91t12.5 -108.5t1 -113.5t-9 -119.5t-13.5 -113.5t-16 -108q-10 -63 -18 -107.5t-22.5 -114 t-29 -119.5t-37 -113t-47 -108t-58.5 -91t-71.5 -74.5t-86 -46.5t-103.5 -18t-97.5 18t-71.5 46.5t-48 74.5t-29 91t-12.5 107.5t-0.5 113.5zM301.5 336.5q2.5 -35.5 7.5 -72.5t16.5 -63t27 -47.5t39 -32t52.5 -10.5q41 0 77.5 23t63.5 58t51.5 92.5t40.5 109t32.5 127 t25.5 126t21 125.5q10 65 16 109.5t14 111t9 112.5t0 101.5t-10.5 92.5t-25.5 70t-43 49t-63 16q-41 0 -77.5 -23t-63.5 -58.5t-51.5 -92.5t-40.5 -109.5t-32 -126t-25.5 -127t-20.5 -125.5q-8 -49 -13.5 -86.5t-12 -89t-9.5 -91t-5.5 -86.5t0 -82.5z" />
<glyph unicode="1" d="M379 0l223 1409h-203l52 135h311l-244 -1544h-139z" />
<glyph unicode="2" d="M86 0l408 631q4 7 56.5 87.5t66 103t54.5 92.5t57 108.5t36 94.5t27 104q7 55 1.5 102.5t-41 79t-96.5 31.5q-177 0 -223 -279l-4 -33h-139q11 70 27 128t45.5 118.5t69 102t100.5 68t137 26.5q156 0 221 -98t41 -257q-15 -97 -67 -211t-101.5 -193.5t-127.5 -196.5 q-13 -19 -20 -29l-295 -453h420l-20 -127h-633z" />
<glyph unicode="3" d="M156 356l12 68h137l-8 -45q-10 -48 -7.5 -95.5t13.5 -86t46 -62.5t91 -24q181 0 230 333q14 77 9 139.5t-28.5 107t-77.5 67.5t-137 22h-41l21 131h24q165 0 234 59t96 230q35 234 -127 234q-42 0 -75 -15.5t-53 -38t-35 -58.5t-22.5 -66.5t-13.5 -71.5h-139 q9 72 35 137.5t67.5 121.5t106 89t141.5 33q107 0 171 -47.5t82.5 -124.5t2.5 -181q-45 -282 -233 -358q187 -76 127 -434q-69 -440 -383 -440q-326 0 -266 376z" />
<glyph unicode="4" d="M152 416l22 145l569 983h136l-158 -1005h115l-21 -123h-115l-65 -416h-139l65 416h-409zM307 539h275l73 469l70 309h-6z" />
<glyph unicode="5" d="M123 68l61 141q105 -90 209 -90q62 0 114 34t84.5 89t52.5 111t28 112q13 61 7.5 122.5t-24 110t-67 79t-119.5 30.5q-99 0 -213 -62l221 799h459l-18 -127h-345l-133 -479l92 8q63 0 113 -20.5t82.5 -56t54.5 -82t30.5 -101.5t8 -110.5t-9.5 -112.5q-15 -89 -47.5 -171 t-84.5 -154t-130.5 -115t-173.5 -43q-150 0 -252 88z" />
<glyph unicode="6" d="M162 297q1 61 12 131q42 265 225 580l308 536h149l-416 -719l4 -4q78 56 162 56q54 0 95 -21.5t64.5 -59t37.5 -83t16.5 -99t0 -101t-10.5 -93.5q-11 -68 -27.5 -126t-46.5 -117.5t-69.5 -101.5t-99 -68.5t-132.5 -26.5q-76 0 -130.5 26t-84.5 68.5t-44 102t-13 120.5z M306.5 355q-2.5 -38 2.5 -84.5t19.5 -80t47 -56.5t79.5 -23q39 0 71.5 16t55 46t38.5 61t27 73t16.5 70t10.5 63q47 312 -131 312q-54 0 -97 -32t-68.5 -84.5t-40 -101t-22.5 -100.5q-6 -41 -8.5 -79z" />
<glyph unicode="7" d="M125 0l661 1417h-444l18 127h635l-719 -1544h-151z" />
<glyph unicode="8" d="M156 287q2 61 10 123q58 369 264 444q-146 95 -106 334q12 75 40 140.5t72 119.5t109.5 85.5t144.5 31.5q61 0 108.5 -20.5t75 -55.5t44 -82t17 -100t-6.5 -109q-21 -121 -69 -205.5t-148 -138.5q161 -90 108 -416q-11 -70 -30 -132t-52 -123.5t-76.5 -105t-106.5 -70.5 t-138 -27q-69 0 -121 25t-80 67.5t-44.5 98t-14.5 116.5zM309 440q-48 -329 133 -329q186 0 240 342q6 43 9 81.5t-0.5 88t-16.5 84.5t-44 59.5t-77 24.5q-48 0 -88 -25.5t-65 -62t-45 -87.5t-29.5 -91.5t-16.5 -84.5zM463 1196q-40 -274 119 -274q49 0 86.5 24t60.5 65 t35.5 81.5t19.5 85.5q38 256 -125 256q-38 0 -69 -15.5t-52 -39t-37 -56t-24.5 -63t-13.5 -64.5z" />
<glyph unicode="9" d="M238 0l415 719l-4 4q-77 -53 -160 -53q-53 0 -92.5 20t-62.5 50.5t-37.5 74.5t-19 84.5t-3.5 88.5t4 77.5t7 60.5q36 225 135.5 332t238.5 107q76 0 131 -26t84.5 -68.5t43.5 -102t13.5 -121t-11.5 -131.5q-23 -143 -80 -281.5t-146 -297.5l-307 -537h-149zM412 1027.5 q-3 -37.5 1.5 -82t18 -76t44 -53t75.5 -21.5q44 0 81 22t61 55t43 78t28.5 82.5t15.5 77.5q6 41 8.5 79.5t-2.5 84.5t-19.5 80t-46.5 57t-79 23q-39 0 -71.5 -15.5t-55 -44.5t-38.5 -60t-27 -72.5t-16.5 -70.5t-10.5 -65q-7 -41 -10 -78.5z" />
<glyph unicode=":" horiz-adv-x="425" d="M123 88q6 43 42 74t79 31t68.5 -31t19.5 -74q-8 -43 -43 -73.5t-78 -30.5t-69 30.5t-19 73.5zM260 963q7 43 43.5 73.5t79.5 30.5t68 -30.5t18 -73.5q-6 -43 -42 -74t-79 -31t-68.5 31t-19.5 74z" />
<glyph unicode=";" horiz-adv-x="425" d="M-27 -283l234 476l135 -66l-279 -457zM262 963q7 43 43.5 73.5t79.5 30.5t68 -30.5t18 -73.5q-6 -43 -42 -74t-79 -31t-68.5 31t-19.5 74z" />
<glyph unicode="&#x3c;" horiz-adv-x="909" d="M119 479l14 90l901 480l-18 -115l-778 -399v-11l649 -411l-19 -115z" />
<glyph unicode="=" horiz-adv-x="909" d="M88 291l18 104h826l-19 -104h-825zM147 655l17 105h825l-16 -105h-826z" />
<glyph unicode="&#x3e;" horiz-adv-x="909" d="M43 -2l18 115l779 399v10l-650 412l19 115l749 -482l-14 -90z" />
<glyph unicode="?" horiz-adv-x="892" d="M289 88q6 43 42 74t79 31t68.5 -31t19.5 -74q-8 -43 -43 -73.5t-78 -30.5t-69 30.5t-19 73.5zM369 387l77 498h46q52 0 82.5 2.5t60.5 14.5t45.5 30t32 55.5t27 86t22.5 124.5q5 32 7.5 52t4 48.5t-0.5 46t-8 38t-17 31.5t-29 18.5t-43 7.5q-35 0 -63 -16.5t-44 -38 t-29 -57.5t-18.5 -59.5t-11.5 -60.5l-8 -55h-133l8 55q11 67 23.5 114.5t36.5 96.5t57 78.5t86 48.5t122 19q77 0 125.5 -28.5t65.5 -76.5t19.5 -110t-11.5 -129q-7 -45 -11 -69t-13.5 -68.5t-18 -71t-23.5 -64.5t-32 -61t-41.5 -50t-53 -41.5t-66 -25t-81.5 -10.5l-59 -373 h-133z" />
<glyph unicode="@" horiz-adv-x="1638" d="M164 780q34 213 174 394t346 286t428 105q145 0 271 -49.5t213.5 -135t128 -210.5t18.5 -267q-15 -93 -69.5 -197t-133 -194t-185 -149.5t-212.5 -59.5q-63 0 -107.5 28t-38.5 81q-130 -109 -299 -109q-133 0 -193.5 90t-37.5 228q14 85 50.5 173t95 169t129.5 144.5 t160 101.5t181 38q80 0 141.5 -36.5t82.5 -104.5l45 100h114l-317 -633l-6 -12q-43 -86 -39 -119q6 -45 78 -45q66 0 143 52.5t140.5 131t111 171.5t59.5 172q19 120 -18 222t-114.5 168.5t-185 104t-228.5 37.5q-144 0 -285.5 -57t-251 -151t-186 -221.5t-97.5 -262.5 q-27 -135 8.5 -260t118 -216t208.5 -145.5t272 -54.5q167 0 339 77t297 206h111q-130 -180 -340 -285.5t-426 -105.5q-182 0 -328.5 63t-236.5 170.5t-125.5 254.5t-3.5 312zM582 635q-17 -108 31.5 -172t131.5 -64q96 0 176 52t117 118l162 322q29 66 25.5 123.5t-46.5 96 t-112 38.5q-82 0 -167.5 -53t-150 -131t-110 -167t-57.5 -163z" />
<glyph unicode="A" horiz-adv-x="747" d="M0 0l547 1544h135l66 -1544h-154l-6 317h-328l-106 -317h-154zM303 442h281l-9 592v31q0 32 1 67q2 52 5.5 119.5t4.5 98.5h-8q-12 -39 -42 -148.5t-49 -167.5z" />
<glyph unicode="B" horiz-adv-x="815" d="M123 0l244 1544h200q43 0 74 -2t68 -7.5t61.5 -17.5t49.5 -30.5t39 -46.5q13 -29 23 -68q8 -34 8 -78v-14q-2 -53 -11 -119q-10 -63 -24.5 -110.5t-41 -95.5t-69.5 -87t-103 -69q63 -21 101.5 -58t53 -88.5t14.5 -104.5t-11 -124q-19 -122 -53.5 -202t-94 -130.5 t-141.5 -71t-201 -20.5h-186zM287 123h39q160 0 228.5 62t94.5 229q11 58 11 104q0 16 -1 30q-5 56 -18.5 93t-45.5 58.5t-72 30.5t-97 9h-43zM403 862h39h20h37.5t35.5 2.5t36 7t32.5 14.5t32 24t28 36t26 50.5t21 67.5t18.5 87q10 62 12 105v17q0 33 -6 57 q-8 30 -21.5 47.5t-42 27.5t-60 13t-81.5 3h-38z" />
<glyph unicode="C" horiz-adv-x="751" d="M168 456q0 76 6 137t16 124q9 57 16 96t23 111t32 125t43 123.5t56 122t71 105.5t88.5 87.5t107.5 55.5t129 22q48 0 96.5 -12.5t77.5 -36.5l-25 -158q-44 34 -82 50.5t-88 16.5q-60 0 -112 -27.5t-90 -78t-68 -110.5t-52.5 -138t-37 -146.5t-27.5 -148.5 q-7 -42 -11 -70.5t-10.5 -84t-8.5 -96.5q-1 -27 -2 -61q0 -18 1 -36q1 -56 8 -95.5t21 -82.5t36.5 -69.5t57 -44t78.5 -17.5q95 0 203 69l-25 -145q-100 -63 -207 -63q-75 0 -132.5 27.5t-92.5 72t-58 108.5q-22 64 -30 128q-8 61 -8 131v9z" />
<glyph unicode="D" horiz-adv-x="843" d="M123 0l244 1544h155q74 0 120.5 -4t101 -20.5t84.5 -48t58 -87.5t34 -138q3 -42 3 -94q0 -48 -3 -106q-6 -119 -31 -274q-30 -187 -63.5 -313t-79.5 -218.5t-110.5 -143.5t-147 -74t-199.5 -23h-166zM287 131h41q52 0 94 9t77 29t62 46.5t50 69t40.5 88t33.5 111.5 t28.5 132t27.5 156q21 138 31 232q8 74 8 137v32q-2 75 -18 118.5t-50 72.5t-80.5 39t-117.5 10h-25z" />
<glyph unicode="E" horiz-adv-x="692" d="M123 0l244 1544h485l-21 -131h-342l-86 -545h332l-20 -131h-332l-96 -606h342l-21 -131h-485z" />
<glyph unicode="F" horiz-adv-x="702" d="M123 0l244 1544h493l-20 -131h-351l-86 -545h332l-20 -131h-332l-117 -737h-143z" />
<glyph unicode="G" horiz-adv-x="843" d="M159 277q-2 27 -2 60q0 43 3 95q7 93 17.5 176.5t29.5 200.5q13 86 27.5 157.5t37 151.5t48.5 142.5t63.5 121.5t82 97.5t103.5 62t127 23.5q131 0 196 -78t75 -213l-152 -55q-4 206 -135 206q-44 0 -82.5 -20.5t-67 -52t-53.5 -81t-42 -98t-33 -114.5t-25.5 -118 t-20.5 -120q-34 -212 -44 -350q-3 -49 -3 -91q0 -75 11 -124q17 -78 51.5 -107.5t93.5 -29.5q35 0 62 8t48.5 22.5t38.5 43t30 59t25 83t21.5 103.5t22.5 129l18 117h-209l21 131h352l-45 -285q-10 -64 -18.5 -108t-26 -106.5t-37 -105.5t-51.5 -89.5t-71 -75t-94.5 -47 t-121.5 -18.5q-69 0 -119 21.5t-81.5 56.5t-48.5 95.5t-22 123.5z" />
<glyph unicode="H" horiz-adv-x="886" d="M123 0l244 1544h143l-96 -616h354l96 616h144l-244 -1544h-143l127 797h-355l-127 -797h-143z" />
<glyph unicode="I" horiz-adv-x="389" d="M123 0l244 1544h143l-244 -1544h-143z" />
<glyph unicode="J" horiz-adv-x="536" d="M27 18l24 150q64 -68 131 -68q33 0 57 13t38 37.5t21.5 50t12.5 61.5l203 1282h143l-198 -1255q-8 -48 -14 -78.5t-16.5 -66.5t-23.5 -58t-32.5 -44.5t-45 -34.5t-60.5 -19.5t-79 -7.5q-89 0 -161 38z" />
<glyph unicode="K" horiz-adv-x="755" d="M123 0l244 1544h143l-111 -700h4l418 700h160l-461 -735l219 -809h-161l-185 778h-4l-123 -778h-143z" />
<glyph unicode="L" horiz-adv-x="602" d="M123 0l244 1544h143l-223 -1413h336l-21 -131h-479z" />
<glyph unicode="M" horiz-adv-x="1150" d="M47 0l461 1544h123l-8 -1151q0 -25 -2.5 -76t-2.5 -77h7q7 26 21 83t25.5 100.5t24.5 82.5l340 1038h123l-55 -1544h-141l71 1139q2 24 7.5 72t7.5 73h-9q-9 -31 -35.5 -138.5t-46.5 -166.5l-323 -979h-117l10 1139q0 25 2 73t2 72h-6q-42 -235 -61 -303l-279 -981h-139z " />
<glyph unicode="N" horiz-adv-x="890" d="M123 0l244 1544h125l184 -1073q10 -51 22 -160h7q2 23 5 64.5t6 76t7 64.5l162 1028h125l-244 -1544h-125l-184 1038q-7 36 -13 107.5t-8 91.5h-8q-27 -271 -31 -299l-149 -938h-125z" />
<glyph unicode="O" horiz-adv-x="913" d="M168 458q4 84 11.5 156t21.5 158q14 91 30 167.5t39.5 160t51 149.5t66.5 126.5t84.5 101t104.5 64.5t128 24q72 0 126 -27t86 -70t50 -109q17 -66 23 -131q3 -36 4 -78q0 -34 -2 -73q-4 -86 -12.5 -153t-21.5 -152q-9 -58 -17.5 -104t-23.5 -112t-31 -118.5t-40 -114 t-50.5 -108.5t-63 -93t-77 -76t-92.5 -48t-110 -18q-70 0 -123 25.5t-85 67.5t-51 106q-18 63 -24 129q-4 41 -4 91q1 28 2 59zM311 445v-27q-1 -35 1 -74q2 -54 14 -91t30 -69.5t48.5 -48.5t70.5 -16q46 0 86 23t69.5 58t56 91t44 108.5t34 125t26 125t20.5 122.5 q10 61 16 107t13 109q8 62 8 110v16q0 40 -2 86q-2 54 -14 91t-30.5 69.5t-49 48.5t-70.5 16h-9q-35 0 -67 -13q-36 -15 -63.5 -47t-51 -69.5t-43 -92t-33.5 -102t-27.5 -112t-21.5 -110t-18 -107.5t-16 -107t-13 -109t-8 -111z" />
<glyph unicode="P" horiz-adv-x="733" d="M123 0l244 1544h159q43 0 73 -1t67.5 -5.5t63.5 -12.5t54.5 -22.5t46.5 -35t34 -51t22 -68.5q5 -33 6 -76q0 -7 -1 -15q-1 -52 -11 -114q-35 -224 -138 -314t-323 -90h-37l-117 -739h-143zM403 870h56q75 0 122 13.5t77 50t45 82t30 127.5q10 58 10 103q0 78 -29 112 q-45 56 -196 55h-29z" />
<glyph unicode="Q" horiz-adv-x="913" d="M168 446q4 140 33 326q63 402 181.5 597.5t317.5 195.5q59 0 106.5 -19t79 -49.5t53.5 -78t34 -94.5t16 -110q4 -55 4 -102q0 -5 -1 -11q0 -51 -6 -116t-11.5 -106.5t-13.5 -94.5q-19 -116 -36 -201t-64.5 -223.5t-108.5 -226.5l84 -174l-123 -74l-72 146 q-69 -51 -192 -51q-68 0 -118.5 21t-90 75.5t-57.5 142.5q-15 74 -15 183v44zM312 447q-2 -28 -2 -53q0 -92 16 -148q20 -71 55.5 -99t93.5 -28q64 0 105 31l-99 212l125 74l80 -166q71 177 123 490q10 65 17 114t14 114t8 113v19q0 40 -2 82q-2 54 -14 91t-30.5 69 t-49 47.5t-70.5 15.5q-83 0 -140 -54.5t-105.5 -198.5t-88.5 -400q-31 -195 -36 -325z" />
<glyph unicode="R" horiz-adv-x="780" d="M123 0l244 1544h153q42 0 71 -1t67.5 -5t64 -12t55.5 -22t48 -34t35 -49.5t23.5 -67.5t6.5 -89t-10 -113q-10 -65 -24.5 -117t-42 -105t-64.5 -89t-94.5 -60t-129.5 -26l224 -754h-152l-209 756h-4l-119 -756h-143zM403 872h52q76 0 123.5 13t78.5 48t47 82.5t29 129.5 q9 61 10 105v7q1 39 -9 66q-10 30 -25.5 47.5t-46 27t-62.5 12.5t-82 3h-29z" />
<glyph unicode="S" horiz-adv-x="796" d="M113 57l30 187q95 -125 230 -125q109 0 184.5 80.5t91.5 191.5q5 28 4.5 53.5t-3 46.5t-12.5 43t-17.5 37t-25 35.5t-27.5 31.5t-33 30.5t-33.5 28t-36.5 28.5q-15 12 -23 18q-23 18 -39 31t-37 32t-35.5 35t-30.5 38t-26.5 43t-19.5 48t-12.5 54.5t-3.5 61t6 69.5 q17 106 72 198t147 152t201 60q125 0 231 -82l-29 -183q-44 60 -92.5 92.5t-116.5 32.5q-103 0 -174.5 -73t-87.5 -176q-4 -27 -4.5 -51t4 -46.5t9.5 -41t17.5 -38.5t21 -34t27.5 -32.5t29.5 -29t34 -28.5t34 -26.5t36.5 -27.5q24 -19 38.5 -31t36.5 -32t35.5 -35 t30.5 -37.5t26.5 -42.5t19 -46t13 -53t4 -59t-6.5 -67q-28 -177 -155.5 -307.5t-301.5 -130.5q-142 0 -231 77z" />
<glyph unicode="T" horiz-adv-x="636" d="M240 1413l20 131h606l-20 -131h-232l-223 -1413h-143l223 1413h-231z" />
<glyph unicode="U" horiz-adv-x="880" d="M169 234v13q0 29 3 67q4 48 9 84.5t14 90.5l165 1055h144l-166 -1046q-11 -72 -16 -118q-4 -45 -6 -93q0 -8 -1 -15q1 -37 7 -60q8 -27 23.5 -50.5t44 -33t69.5 -9.5q49 0 84.5 16t59 42.5t41.5 77.5t29.5 104.5t24.5 138.5l166 1046h144l-166 -1055q-11 -69 -21 -118.5 t-26.5 -106.5t-36.5 -95.5t-50 -77t-67.5 -61t-89.5 -36.5t-115 -14q-51 0 -91 9t-69 23t-49.5 39t-33 50t-18 63t-6.5 70z" />
<glyph unicode="V" horiz-adv-x="796" d="M266 1544h148l24 -1124v-16q0 -49 -8 -193h8q49 189 54 209l378 1124h146l-555 -1544h-127z" />
<glyph unicode="W" horiz-adv-x="1239" d="M281 1544h147l-25 -1032q0 -2 -12 -229h8q9 29 30.5 107.5t35.5 121.5l340 1032h123l-15 -1032q-1 -38 -3 -114.5t-3 -114.5h8q45 172 64 229l321 1032h146l-516 -1544h-131l8 1040q1 35 22 252h-8q-11 -39 -33 -132t-30 -120l-344 -1040h-131z" />
<glyph unicode="X" horiz-adv-x="823" d="M47 0l418 784l-174 760h153l105 -653h8q42 124 125 287l186 366h154l-408 -760l164 -784h-153l-105 657h-8q-9 -30 -24 -65t-25 -57t-31.5 -66t-28.5 -59l-202 -410h-154z" />
<glyph unicode="Y" horiz-adv-x="802" d="M283 1544h153l72 -520q5 -35 13.5 -104.5t13.5 -102.5h8q9 25 24 68.5t28 79.5t28 67l231 512h154l-420 -868l-107 -676h-143l106 676z" />
<glyph unicode="Z" horiz-adv-x="686" d="M39 0l651 1413h-387l21 131h567l-655 -1413h389l-21 -131h-565z" />
<glyph unicode="[" horiz-adv-x="614" d="M225 -238l281 1782h334l-13 -86h-219l-256 -1610h219l-12 -86h-334z" />
<glyph unicode="\" horiz-adv-x="454" d="M4 1638h123l573 -2080h-125z" />
<glyph unicode="]" horiz-adv-x="614" d="M-18 -238l12 86h219l256 1610h-219l12 86h334l-281 -1782h-333z" />
<glyph unicode="^" horiz-adv-x="909" d="M246 705l409 839h84l144 -839h-97l-112 686h-4l-328 -686h-96z" />
<glyph unicode="_" horiz-adv-x="1024" d="M-41 -256l16 102h1024l-16 -102h-1024z" />
<glyph unicode="`" horiz-adv-x="573" d="M322 1438l124 98l179 -276l-74 -62z" />
<glyph unicode="a" horiz-adv-x="714" d="M119 303q5 97 26 234q10 63 18 104.5t23.5 102.5t32 101.5t43.5 86t58.5 72.5t76 45t97.5 18t87 -21.5t60 -66.5h4l10 72h133l-165 -1051h-134l13 82h-4q-78 -98 -189 -98q-53 0 -88.5 13.5t-62 49t-35.5 97.5q-6 40 -6 94q0 30 2 65zM256 266v-6q0 -42 6 -74 q6 -34 14.5 -52t24.5 -27.5t28.5 -12t32.5 -2.5q93 0 139 96.5t87 354.5q12 76 18.5 131.5t6.5 112t-10.5 92t-34.5 57.5t-62 22q-35 0 -65 -17t-51.5 -51t-38 -70t-29.5 -88.5t-20.5 -91t-16.5 -93.5q-14 -91 -21.5 -162t-7.5 -119z" />
<glyph unicode="b" horiz-adv-x="714" d="M92 0l260 1638h133l-104 -659h4q70 88 178 88q51 0 88.5 -17.5t60 -45t34.5 -71.5q12 -45 16 -87q2 -23 2 -49q0 -23 -2 -51q-4 -58 -9.5 -103.5t-15.5 -105.5q-12 -76 -23.5 -134t-30.5 -126.5t-44 -117t-58 -90.5t-79 -63.5t-101 -21.5q-108 0 -159 98h-4l-13 -82h-133 zM272 347q-2 -33 -2 -62q0 -193 111 -193q56 0 93.5 39t68 137.5t59.5 278.5q16 99 21 167q2 30 2 57q1 36 -3 70q-6 59 -34 88t-76 29q-43 0 -78.5 -30t-56.5 -73.5t-37 -99.5t-23.5 -100t-13.5 -83q-1 -12 -2 -17q-25 -163 -29 -208z" />
<glyph unicode="c" horiz-adv-x="569" d="M129 380q2 64 12 124q9 56 22.5 111.5t35 122.5t53.5 123t72 103.5t95.5 75t119.5 27.5q78 0 137 -41l-25 -154q-54 70 -114 70q-35 0 -67 -17.5t-55.5 -44.5t-44 -65.5t-34.5 -76t-25.5 -81t-18 -74t-11.5 -61.5q-6 -40 -10 -84q-3 -29 -2 -66v-40q2 -62 12.5 -108.5 t39.5 -80.5t74 -34q70 0 148 94h4l-27 -166q-72 -53 -160 -53q-69 0 -118 37.5t-72 93.5q-24 57 -34 129q-8 60 -7 113v23z" />
<glyph unicode="d" horiz-adv-x="714" d="M120 220q-1 26 -1 52q1 49 5 96q6 73 21 169q13 80 26 140t33 124.5t46 109t60 82t80.5 56t103.5 18.5q53 0 87 -21.5t60 -66.5h4l105 659h133l-260 -1638h-134l13 82h-4q-78 -98 -189 -98q-64 0 -105.5 31t-60.5 80t-23 125zM256 239q4 -36 14 -72.5t33.5 -55.5 t58.5 -19t62.5 13.5t49 43t38 65t30.5 91t24 108.5t22 130q16 97 21 167q2 32 2 61q0 35 -3 68q-6 59 -31.5 89t-70.5 30q-31 0 -58 -15.5t-47 -38.5t-37.5 -61t-28.5 -70t-22 -79.5t-16 -75.5t-12 -71q-1 -6 -9 -54.5t-11.5 -80t-8.5 -84.5q-3 -28 -3 -51q1 -21 3 -38z" />
<glyph unicode="e" horiz-adv-x="702" d="M126 323.5q0 55.5 4.5 102t12.5 96.5q9 53 22 106t34.5 118t52 119.5t69 101.5t91.5 73.5t114 26.5q70 0 118 -35.5t69 -88.5t28 -125q4 -46 4 -87q0 -24 -1 -46q-4 -61 -15 -124l-10 -63h-443l-4 -31q-6 -39 -10 -78q-2 -25 -2 -55q0 -17 1 -37q2 -53 12.5 -92.5 t37.5 -67.5t68 -28q33 0 61.5 18t46.5 44t32.5 62t21.5 64.5t12 58.5h137q-9 -51 -25 -100t-43 -99.5t-61 -88t-83 -61t-105 -23.5q-57 0 -101 19t-71 50.5t-44.5 76.5t-24 91.5t-6.5 102zM297 610h305q12 116 12 166v13q-6 153 -108 153q-45 0 -84 -37.5t-63.5 -94 t-40 -107.5t-21.5 -93z" />
<glyph unicode="f" horiz-adv-x="425" d="M113 0l147 928h-113l19 123h113l49 309q23 143 79.5 219t163.5 76q66 0 113 -23l-22 -145q-49 45 -91 45q-51 0 -73 -39.5t-37 -128.5l-49 -313h174l-19 -123h-174l-147 -928h-133z" />
<glyph unicode="g" horiz-adv-x="724" d="M68 -127l6 39h131q-3 -28 -4.5 -44.5t-1.5 -41t3.5 -39.5t11 -32t20 -26t32.5 -15.5t47 -6.5q40 0 70 14t46 30.5t28.5 53t16.5 56t11 65.5q3 17 4 25l21 123q-77 -74 -182 -74q-54 0 -93.5 21.5t-62 53.5t-34.5 83.5t-15 95.5q-1 17 -1 37q0 31 2 69q5 62 10 99t13 90 q85 518 349 518q105 0 155 -88h4l11 72h133l-172 -1090q-6 -40 -11 -65.5t-13 -61.5t-17 -59.5t-23.5 -52.5t-31 -47.5t-40.5 -37.5t-52 -30t-65 -18t-81 -7q-135 0 -191 76q-40 55 -40 142q0 34 6 73zM265 230q21 -121 116 -121q30 0 55 13t43.5 32.5t34.5 54.5t27 67 t22.5 83t18 89t16.5 97q11 68 16.5 118t5.5 109q1 3 1 6q0 56 -11 92q-10 37 -36 62.5t-68 25.5q-39 0 -68 -17t-58 -63.5t-54 -137.5t-47 -232q-20 -124 -20 -204q0 -43 6 -74z" />
<glyph unicode="h" horiz-adv-x="727" d="M92 0l260 1638h133l-106 -671q103 100 223 100q40 0 70 -10t49 -26t30 -42t15 -51q3 -18 3 -42q-1 -9 -1 -18q-2 -35 -5 -62t-9 -64l-119 -752h-133l114 729q14 73 14 121q0 34 -7 55q-16 53 -88 53q-44 0 -78 -19t-54 -45.5t-35 -67.5t-21.5 -71.5t-12.5 -72.5 l-109 -682h-133z" />
<glyph unicode="i" horiz-adv-x="317" d="M92 0l166 1051h133l-166 -1051h-133zM274 1362q6 40 41 69t76 29q40 0 64 -29q19 -23 19 -53q0 -8 -1 -16q-6 -41 -39.5 -70.5t-73.5 -29.5t-66 30q-21 24 -21 55q0 7 1 15z" />
<glyph unicode="j" horiz-adv-x="317" d="M31 -387l227 1438h133l-227 -1438h-133zM274 1362q6 40 41 69t76 29q40 0 64 -29q19 -23 19 -53q0 -8 -1 -16q-6 -41 -39.5 -70.5t-73.5 -29.5q-41 0 -66 30q-21 23 -21 55q0 7 1 15z" />
<glyph unicode="k" horiz-adv-x="718" d="M92 0l260 1638h133l-161 -1013h4l323 426h152l-387 -471l303 -580h-166l-244 504h-4l-80 -504h-133z" />
<glyph unicode="l" horiz-adv-x="317" d="M92 0l260 1638h133l-260 -1638h-133z" />
<glyph unicode="m" horiz-adv-x="1144" d="M92 0l166 1051h133l-14 -88h4q44 47 101.5 75.5t115.5 28.5q65 0 111 -32.5t63 -92.5q109 125 238 125q48 0 82 -11.5t53 -35t29 -49.5t10 -65.5t-3 -71.5t-10 -78l-118 -756h-133l118 752q7 45 8.5 75.5t-4.5 63.5t-28.5 50t-61.5 17q-38 0 -69 -13t-52 -39t-36 -53 t-26 -67t-16.5 -68.5t-11.5 -70.5l-102 -647h-133l119 750q7 45 9 75q1 9 1 17q0 22 -4 47q-5 34 -27 51.5t-61 17.5q-34 0 -62 -12.5t-48 -29.5t-37 -48t-27 -55t-20 -64.5t-14 -62t-11 -61.5l-99 -625h-133z" />
<glyph unicode="n" horiz-adv-x="727" d="M92 0l166 1051h133l-12 -84q103 100 223 100q45 0 77.5 -13t50 -37.5t27 -52.5t9.5 -67t-3 -71t-9 -74l-119 -752h-133l116 737q6 36 8.5 60t3.5 52t-4.5 45.5t-15.5 33.5t-29 23t-46 7q-44 0 -78 -19t-54 -45.5t-35 -67.5t-21.5 -71.5t-12.5 -72.5l-109 -682h-133z" />
<glyph unicode="o" horiz-adv-x="727" d="M145 526q85 541 387 541q235 0 235 -329q0 -93 -19 -212q-8 -50 -17 -93t-26 -101t-36.5 -103.5t-50 -93t-66.5 -79.5t-85.5 -52t-106.5 -20q-236 0 -236 323q0 96 21 219zM283 526q-19 -120 -19 -205q0 -212 115 -212q38 0 71 23t56.5 63.5t41.5 82.5t31 95.5t19 85 t12 67.5q4 28 5 37t5.5 44t5 53.5t2.5 54.5v22q0 21 -2 35q-3 22 -6.5 52t-13 48t-21.5 36t-31 26t-42 8q-38 0 -71 -23t-56.5 -63.5t-41.5 -83.5t-30.5 -94.5t-18.5 -85t-11 -66.5z" />
<glyph unicode="p" horiz-adv-x="714" d="M29 -401l229 1452h133l-10 -72h4q76 88 178 88q51 0 88.5 -19t59.5 -48.5t34 -75t15 -88.5q2 -22 2 -47.5t-2 -54.5q-3 -57 -8.5 -100t-14.5 -97q-10 -65 -17.5 -107t-22.5 -106t-31 -106t-42 -90.5t-56.5 -77t-73 -47.5t-93.5 -19q-108 0 -159 98h-4l-76 -483h-133z M274 246q4 -41 14.5 -78.5t34 -56.5t58.5 -19q89 0 134 96.5t85 348.5q6 38 10 65t9 68.5t5 71.5q1 10 1 21q0 21 -1 45q-1 36 -9 60.5t-20.5 46t-33.5 32.5t-49 11q-34 0 -62.5 -16t-49 -48t-36 -66.5t-27.5 -86.5t-19.5 -91t-16.5 -95q-10 -60 -15.5 -105.5t-10.5 -103.5 q-3 -33 -3 -60q0 -22 2 -40z" />
<glyph unicode="q" horiz-adv-x="714" d="M118 258q-1 9 -1 19q0 33 4 75q5 54 10.5 93t13.5 92q10 59 19 104.5t24.5 103.5t33.5 100.5t44.5 86.5t58.5 72t75 45.5t94 17.5q53 0 87 -21.5t60 -66.5h4l10 72h133l-229 -1452h-133l76 483h-4q-78 -98 -189 -98q-44 0 -77.5 13.5t-54.5 40.5t-35 58t-18.5 76.5 t-5.5 85.5zM258 228q4 -37 14.5 -70.5t33 -49.5t56.5 -16t62 14t49 44t37.5 66t31 91.5t24.5 108t22 127.5q15 97 20 167q2 30 2 58q0 37 -4 70q-6 60 -31 90t-69 30q-61 0 -104 -51.5t-69 -137t-48 -222.5q-11 -72 -17 -119t-10 -106q-3 -29 -3 -52.5t3 -41.5z" />
<glyph unicode="r" horiz-adv-x="419" d="M92 0l166 1051h133l-22 -140h4q36 65 88 111q51 45 109 45h3l-26 -156l-25 2q-40 0 -71 -16t-51 -41t-35.5 -66.5t-24.5 -81t-18 -96.5l-97 -612h-133z" />
<glyph unicode="s" horiz-adv-x="569" d="M55 55l25 156q40 -49 78 -75.5t92 -26.5q68 0 118.5 46t61.5 113q5 30 -1.5 60t-15 49.5t-33.5 51t-36 43t-45 46.5t-54 59.5t-42 60.5t-29 76q-4 20 -4 41t4 44q19 119 103 193.5t202 74.5q94 0 172 -68l-24 -163h-4q-60 106 -158 106q-59 0 -102 -39.5t-52 -99.5 q-5 -33 1.5 -62t26 -56.5t37.5 -46.5t48 -48q13 -13 20 -19q17 -16 28.5 -27.5t26 -28t24.5 -31t20.5 -32t16.5 -36t10 -39t3.5 -44t-4.5 -48.5q-21 -129 -113 -215t-220 -86q-48 0 -97 19.5t-84 51.5z" />
<glyph unicode="t" horiz-adv-x="430" d="M147 0l148 928h-113l19 123h112l45 286h134l-46 -286h175l-19 -123h-174l-147 -928h-134z" />
<glyph unicode="u" horiz-adv-x="716" d="M129 279l121 772h133l-104 -660q-7 -42 -10 -71t-4 -65t4 -59.5t16.5 -44.5t33.5 -31.5t54 -10.5q33 0 59 10t44.5 32t31.5 44.5t23.5 60t16 64t13.5 71.5l105 660h133l-121 -772q-23 -137 -104 -216t-218 -79q-136 0 -192 78q-41 56 -41 144q0 34 6 73z" />
<glyph unicode="v" horiz-adv-x="647" d="M182 1051h135l31 -658q2 -33 4 -98t4 -98h9q20 72 59 196l238 658h137l-400 -1051h-143z" />
<glyph unicode="w" horiz-adv-x="1032" d="M188 1051h136l2 -621q0 -36 1 -75t3 -87t2 -75h8q8 27 21 75t24.5 87.5t22.5 74.5l200 621h135l-4 -727q0 -22 -1 -66t-1 -65h6q44 150 64 204l233 654h136l-398 -1051h-137v762q0 21 3.5 60.5t4.5 51.5h-6q-37 -147 -51 -190l-221 -684h-135z" />
<glyph unicode="x" horiz-adv-x="686" d="M31 0l325 537l-135 514h148l49 -234q23 -113 28 -213h9q63 162 96 219l123 228h147l-317 -514l151 -537h-147l-66 276q-26 124 -26 177h-8q-25 -83 -80 -179l-148 -274h-149z" />
<glyph unicode="y" horiz-adv-x="679" d="M98 -401l172 430l-88 1022h135l43 -848h7q8 23 43 120.5t55 149.5l225 578h139l-591 -1452h-140z" />
<glyph unicode="z" horiz-adv-x="677" d="M31 0l563 928h-358l18 123h559l-571 -928h356l-20 -123h-547z" />
<glyph unicode="{" horiz-adv-x="614" d="M203 657l10 68q71 16 117 47q32 22 50.5 52.5t23.5 52.5t12 67l47 303q26 165 92.5 231t210.5 66h45l-10 -67q-59 -4 -98.5 -19t-63.5 -44t-37 -65t-22 -92l-45 -288q-19 -114 -61.5 -178t-143.5 -97l-2 -6q64 -23 94 -62t31.5 -91.5t-7.5 -120.5l-45 -289 q-12 -69 -5.5 -115.5t44 -72t113.5 -31.5l-12 -68h-45q-144 0 -189 65.5t-20 231.5l49 303q12 80 6 109q-8 36 -39 63q-31 31 -100 47z" />
<glyph unicode="|" horiz-adv-x="694" d="M412 -594v2380h120v-2380h-120z" />
<glyph unicode="}" horiz-adv-x="614" d="M25 -162l12 68q59 4 98.5 19t63.5 44t37 64.5t22 91.5l45 289q17 112 60 176.5t145 97.5l2 6q-93 33 -115.5 97.5t-3.5 177.5l45 288q12 69 6 116t-43.5 72.5t-113.5 31.5l10 67h45q144 0 189.5 -66t19.5 -231l-47 -303q-12 -80 -6 -109q8 -36 39 -63q30 -30 96 -47 l-10 -68q-68 -16 -113 -47q-32 -22 -50.5 -52.5t-23.5 -52.5t-12 -67l-49 -303q-25 -165 -92 -231t-211 -66h-45z" />
<glyph unicode="~" horiz-adv-x="909" d="M115 455q30 38 54 64t57.5 54.5t71.5 43t79 14.5q68 0 184 -53q122 -54 160 -54q85 0 182 125l58 -69q-127 -166 -259 -166q-17 0 -39 4.5t-48 13t-43.5 15.5l-45 18t-34.5 14l-30 12t-35.5 14t-31 8.5t-37.5 4.5q-30 0 -57 -11t-53 -36.5t-38.5 -40t-37.5 -47.5z" />
<glyph unicode="&#xa1;" horiz-adv-x="702" d="M219 -395l184 1157h138l-185 -1157h-137zM414 1061q6 43 42 73.5t79 30.5t68.5 -30.5t19.5 -73.5t-42 -74t-79 -31t-68.5 31t-19.5 74z" />
<glyph unicode="&#xa2;" d="M283 653.5q4 57.5 14 120.5q10 65 24.5 125.5t42 134.5t62.5 131t89.5 102.5t119.5 61.5l29 184h100l-29 -180q59 -10 96 -37l-24 -153q-53 69 -115 69q-41 0 -76.5 -22t-61 -60.5t-45.5 -81t-34.5 -94t-22.5 -87.5t-14 -74q-8 -52 -10.5 -110.5t2.5 -133t36 -122.5 t85 -48q69 0 147 94h4l-26 -166q-44 -33 -111 -47l-33 -203h-100l33 203q-58 19 -97.5 61t-58 93t-24.5 116.5t-2 123z" />
<glyph unicode="&#xa3;" d="M82 74q41 69 101 116.5t126 47.5q8 0 33 -5q74 90 88 187q9 45 3 103.5t-27 97.5h-216l15 96h166q-55 122 -79.5 228.5t-6.5 219.5q27 172 140.5 286t279.5 114q137 0 209 -102t53 -246l-144 -27q15 104 -22 174t-127 70q-104 0 -168 -75.5t-80 -184.5q-6 -35 -6.5 -69 t6 -72.5t10.5 -63.5t19.5 -68.5t21 -59.5t25.5 -65.5t24 -58.5h242l-14 -96h-193q25 -87 14 -170q-11 -65 -45.5 -137.5t-80.5 -120.5q14 -9 45 -37.5t59.5 -47.5t54.5 -20q70 2 103 123l114 -37q-20 -90 -84 -153.5t-149 -63.5q-14 0 -27.5 2t-24 4.5t-24 9t-20.5 9.5 t-21.5 13t-19 13t-20.5 15t-19 14q-7 4 -31 22.5t-43.5 29.5t-36.5 11q-36 0 -66.5 -28.5t-50.5 -69.5z" />
<glyph unicode="&#xa4;" d="M6 213l92 78q-49 93 -49.5 197.5t36.5 193t101 160.5l-67 80l112 96l70 -78q133 90 297 90q136 0 256 -90l92 78l80 -96l-92 -80q67 -123 43 -287q-12 -75 -43 -136.5t-88 -127.5l67 -78l-110 -98l-68 80q-143 -93 -301 -93q-135 0 -252 93l-94 -80zM176 563 q-22 -137 62.5 -237t220.5 -103q143 3 258 102t141 244q19 137 -63 239t-217 101q-146 2 -261.5 -97.5t-140.5 -248.5z" />
<glyph unicode="&#xa5;" d="M135 625l15 88h315l-27 157h-264l14 88h234l-111 586h150l98 -727h4l99 254l215 473h149l-283 -586h222l-15 -88h-252l-73 -157h301l-15 -88h-309l-98 -625h-139l98 625h-328z" />
<glyph unicode="&#xa6;" horiz-adv-x="694" d="M412 416h120v-832h-120v832zM412 774v834h120v-834h-120z" />
<glyph unicode="&#xa7;" horiz-adv-x="849" d="M113 -125h133q-6 -78 25.5 -124t107.5 -46q75 0 129 54t65 130q9 53 -0.5 95.5t-37.5 74t-60.5 53.5t-79.5 44q-140 66 -187 166.5t-24 244.5q11 69 34.5 129t61.5 112.5t95.5 88t128.5 47.5v4l-39 23q-154 87 -125 284q22 133 118 221.5t228 88.5q117 0 186 -77t54 -192 h-133q3 65 -31.5 106.5t-99.5 41.5q-79 0 -132.5 -56.5t-66.5 -136.5q-7 -46 2.5 -83t36.5 -66.5t54 -50t71 -45.5q144 -86 195 -182.5t28 -245.5q-25 -146 -91.5 -250t-172.5 -138l-2 -4q147 -91 112 -297q-20 -129 -117 -217t-225 -88q-124 0 -189.5 83t-51.5 208z M317 571q-33 -206 125 -288l54 -27q177 33 215 293q40 242 -99 311l-41 14q-62 -3 -109.5 -31t-76 -74.5t-44.5 -94t-24 -103.5z" />
<glyph unicode="&#xa8;" horiz-adv-x="573" d="M264 1358q6 38 38.5 66t70.5 28t62 -28t18 -66t-38.5 -66t-70.5 -28t-62 28t-18 66zM551 1358q6 38 38 66t70 28t62 -28t18 -66t-38 -66t-70 -28t-62 28t-18 66z" />
<glyph unicode="&#xa9;" horiz-adv-x="1638" d="M197 774q25 160 107.5 306.5t199 252.5t265 169t300.5 63t280 -63t211 -169.5t119 -252.5t11 -306q-34 -216 -163.5 -399t-318 -289t-391.5 -106q-152 0 -280 62.5t-211 169t-119 253.5t-10 309zM305 774q-30 -191 29 -348.5t191.5 -247.5t310.5 -90q177 0 337.5 90 t269 247.5t138.5 348.5q22 137 -7.5 262.5t-99 218t-179.5 147t-242 54.5q-133 0 -261 -54.5t-227 -147t-168.5 -218t-91.5 -262.5zM563 780q31 199 164 327t320 128q136 0 218.5 -80t82.5 -219h-121q0 89 -55.5 139.5t-141.5 50.5q-136 0 -228.5 -99t-115.5 -245 q-15 -91 7 -170.5t81.5 -130.5t147.5 -51q84 0 158 55t100 144h120q-37 -138 -150 -222.5t-245 -84.5q-121 0 -207 60.5t-120.5 165t-14.5 232.5z" />
<glyph unicode="&#xaa;" horiz-adv-x="614" d="M290 1047q1 43 5 82t12 88q9 56 17.5 95t27 91t41 84t60 55t84.5 23q63 0 96 -45l4 34h98l-108 -682h-99l9 41h-5q-45 -51 -112 -51q-37 0 -63 13.5t-40 40t-21 57.5t-6 74zM394.5 1017q7.5 -73 60.5 -73q20 0 37.5 10t29.5 24t23 38t17.5 43t12.5 48.5t8.5 45t6 42 t4.5 30.5q1 6 3.5 24.5t4.5 33t4.5 36.5t2.5 39t-0.5 37t-5 35t-11.5 27.5t-19 19t-28 6.5q-94 0 -131 -242q-27 -151 -19.5 -224z" />
<glyph unicode="&#xab;" horiz-adv-x="770" d="M197 659l321 437l80 -49l-281 -388l156 -397l-96 -51zM457 659l319 437l82 -49l-280 -388l155 -397l-98 -51z" />
<glyph unicode="&#xac;" horiz-adv-x="909" d="M147 655l17 105h825l-88 -547h-104l71 442h-721z" />
<glyph unicode="&#xad;" horiz-adv-x="319" d="M90 573l27 162h319l-26 -162h-320z" />
<glyph unicode="&#xae;" horiz-adv-x="1638" d="M197 774q25 160 107.5 306.5t199 252.5t265 169t300.5 63t280 -63t211 -169.5t119 -252.5t11 -306q-34 -216 -163.5 -399t-318 -289t-391.5 -106q-152 0 -280 62.5t-211 169t-119 253.5t-10 309zM305 774q-30 -191 29 -348.5t191.5 -247.5t310.5 -90q177 0 337.5 90 t269 247.5t138.5 348.5q22 137 -7.5 262.5t-99 218t-179.5 147t-242 54.5q-133 0 -261 -54.5t-227 -147t-168.5 -218t-91.5 -262.5zM563 330l139 887h381q141 0 207 -46q43 -27 60 -79.5t8 -110.5q-21 -124 -106 -185.5t-210 -64.5l201 -401h-137l-186 401h-177l-63 -401 h-117zM758 823h153q171 0 240.5 30t85.5 130q6 36 -3.5 62.5t-27 41.5t-46.5 23.5t-55.5 11t-60.5 2.5h-239z" />
<glyph unicode="&#xaf;" horiz-adv-x="573" d="M233 1300l17 109h522l-16 -109h-523z" />
<glyph unicode="&#xb0;" horiz-adv-x="819" d="M301 1257q20 126 125 217t231 91t202 -91t56 -217t-125 -216.5t-231 -90.5t-202 90.5t-56 216.5zM383 1257q-14 -92 42 -158.5t148 -66.5q93 0 170.5 66.5t90.5 158.5q15 92 -41 159t-148 67t-169.5 -67t-92.5 -159z" />
<glyph unicode="&#xb1;" horiz-adv-x="909" d="M47 23l16 104h826l-17 -104h-825zM135 575l17 105h360l53 346h105l-54 -346h361l-16 -105h-361l-55 -348h-105l56 348h-361z" />
<glyph unicode="&#xb2;" horiz-adv-x="512" d="M143 627l263 379q48 70 76.5 114.5t61 114t40.5 125.5q8 53 -10 87t-70 34q-116 0 -135 -181h-101q38 265 242 265q101 0 144.5 -58.5t29.5 -152.5q-6 -32 -18.5 -68t-24 -62t-35.5 -68t-35 -59.5t-42 -64.5t-37 -57l-185 -260h262l-14 -88h-412z" />
<glyph unicode="&#xb3;" horiz-adv-x="512" d="M180 840l6 41h101l-4 -27q-4 -40 -3 -74.5t23.5 -58t65.5 -23.5q28 0 50.5 14t36 33t24 48t15 50.5t9.5 49.5q16 99 -15.5 149.5t-130.5 49.5h-26l14 86h16q100 0 142 34t59 136q23 133 -74 133q-31 0 -53 -12t-34.5 -35t-19 -44.5t-11.5 -52.5h-101q12 93 70.5 160.5 t155.5 67.5q102 0 143 -57.5t27 -153.5q-27 -167 -150 -215q38 -14 60 -42.5t28 -67.5t5 -73t-7 -77q-42 -265 -244 -265q-111 0 -152.5 60.5t-25.5 165.5z" />
<glyph unicode="&#xb4;" horiz-adv-x="573" d="M346 1260l268 276l93 -98l-304 -240z" />
<glyph unicode="&#xb5;" horiz-adv-x="716" d="M25 -401l229 1452h133l-106 -682q-6 -36 -8.5 -60t-4 -60.5t5 -60.5t19 -48t38 -36t62.5 -12q73 0 103 47.5t53 182.5l115 729h133l-119 -752q-9 -54 -16.5 -90t-26.5 -83t-43.5 -74.5t-67 -47.5t-98.5 -20q-119 0 -193 100l-75 -485h-133z" />
<glyph unicode="&#xb6;" horiz-adv-x="849" d="M194 1126.5q2 33.5 5 65.5q13 82 42 142.5t82.5 109.5t141 74.5t207.5 25.5h368l-307 -1939h-94l295 1853h-164l-295 -1853h-94l199 1243h-25q-69 0 -125 11.5t-94 31t-67 46.5t-43.5 58t-24 64.5t-7.5 67z" />
<glyph unicode="&#xb7;" horiz-adv-x="425" d="M190 516q6 43 41 74t78 31q45 0 70.5 -31t19.5 -74q-8 -43 -43 -73.5t-80 -30.5q-43 0 -68 30.5t-18 73.5z" />
<glyph unicode="&#xb8;" horiz-adv-x="573" d="M53 -406l221 322l99 -59l-244 -310z" />
<glyph unicode="&#xb9;" horiz-adv-x="512" d="M315 627l136 841h-129l32 84h209l-147 -925h-101z" />
<glyph unicode="&#xba;" horiz-adv-x="614" d="M288 1099q1 54 11 115q59 351 262 351q195 0 141 -351q-53 -352 -251 -352q-64 0 -102.5 34t-50 91.5t-10.5 111.5zM401 1214q-40 -260 62 -260q95 0 137 260q38 259 -55 259q-103 0 -144 -259z" />
<glyph unicode="&#xbb;" horiz-adv-x="770" d="M119 262l282 397l-157 388l96 49l182 -437l-323 -448zM379 262l285 397l-160 388l98 49l180 -437l-321 -448z" />
<glyph unicode="&#xbc;" horiz-adv-x="1273" d="M240 0l913 1544h84l-911 -1544h-86zM299 627l135 841h-129l33 84h209l-148 -925h-100zM782 248l15 88l358 590h111l-97 -598h76l-12 -80h-76l-39 -248h-100l39 248h-275zM891 328h178l45 276q4 23 11 54.5t17 72t15 60.5h-4z" />
<glyph unicode="&#xbd;" horiz-adv-x="1273" d="M219 0l914 1544h84l-912 -1544h-86zM315 627l136 841h-129l32 84h209l-147 -925h-101zM782 0l260 379q50 72 77.5 115t61 113t42.5 126q8 52 -11 86.5t-71 34.5q-28 0 -49 -10.5t-34 -25t-23 -40t-14.5 -43t-11.5 -47.5q-1 -4 -1.5 -7.5t-1.5 -6.5h-101q42 264 244 264 q101 0 143.5 -58.5t28.5 -152.5q-6 -38 -18 -75.5t-39 -86.5t-38 -68.5t-52 -82t-44 -66.5l-184 -260h262l-14 -88h-412z" />
<glyph unicode="&#xbe;" horiz-adv-x="1273" d="M221 840l6 41h101l-4 -27q-4 -40 -3 -74.5t23.5 -58t65.5 -23.5q28 0 50.5 14t36 33t24 48t15 50.5t9.5 49.5q16 99 -15.5 149.5t-130.5 49.5h-26l14 86h16q100 0 142 34t59 136q23 133 -74 133q-31 0 -53 -12t-34.5 -35t-19 -44.5t-11.5 -52.5h-101q12 93 70.5 160.5 t155.5 67.5q102 0 143 -57.5t27 -153.5q-27 -167 -150 -215q38 -14 60 -42.5t28 -67.5t5 -73t-7 -77q-42 -265 -244 -265q-111 0 -152.5 60.5t-25.5 165.5zM322 0l913 1544h84l-911 -1544h-86zM782 248l15 88l358 590h111l-97 -598h76l-12 -80h-76l-39 -248h-100l39 248 h-275zM891 328h178l45 276q3 14 43 187h-4z" />
<glyph unicode="&#xbf;" horiz-adv-x="892" d="M166 -201q-3 62 10 129q30 180 62 260q80 197 275 201h5l60 373h133l-80 -498h-45q-52 0 -82.5 -2.5t-60 -14.5t-45 -30t-32 -55.5t-27 -85.5t-22.5 -125q-5 -32 -7.5 -52t-4 -48.5t0.5 -46t8 -38t17 -31.5t29 -18.5t43 -7.5q35 0 63 16t44 38t28.5 57.5t18 60.5t10.5 60 l11 55h133l-11 -55q-10 -67 -22.5 -114.5t-36 -96.5t-56.5 -78.5t-86 -48.5t-122 -19q-77 0 -125.5 28.5t-65.5 76.5t-20 110zM578 1061q6 43 41.5 73.5t78.5 30.5t68.5 -30.5t19.5 -73.5t-41.5 -74t-78.5 -31t-68.5 31t-19.5 74z" />
<glyph unicode="&#xc0;" horiz-adv-x="747" d="M0 0l547 1544h135l66 -1544h-154l-6 317h-328l-106 -317h-154zM303 442h281l-9 592q-1 46 1 98t5.5 119.5t4.5 98.5h-8q-12 -39 -42 -148.5t-49 -167.5zM479 1870l123 98l180 -276l-75 -62z" />
<glyph unicode="&#xc1;" horiz-adv-x="747" d="M0 0l547 1544h135l66 -1544h-154l-6 317h-328l-106 -317h-154zM303 442h281l-9 592q-1 46 1 98t5.5 119.5t4.5 98.5h-8q-12 -39 -42 -148.5t-49 -167.5zM504 1692l266 276l94 -98l-305 -240z" />
<glyph unicode="&#xc2;" horiz-adv-x="747" d="M0 0l547 1544h135l66 -1544h-154l-6 317h-328l-106 -317h-154zM303 442h281l-9 592q-1 46 1 98t5.5 119.5t4.5 98.5h-8q-12 -39 -42 -148.5t-49 -167.5zM389 1704l291 250l221 -250l-88 -74l-156 176l-211 -176z" />
<glyph unicode="&#xc3;" horiz-adv-x="747" d="M0 0l547 1544h135l66 -1544h-154l-6 317h-328l-106 -317h-154zM303 442h281l-9 592q-1 46 1 98t5.5 119.5t4.5 98.5h-8q-12 -39 -42 -148.5t-49 -167.5zM379 1706q15 65 68 115.5t124 50.5q34 0 100 -37t85 -37q25 0 42 20t19 44h121q-12 -58 -63.5 -112t-120.5 -54 q-9 0 -17 1t-17 4t-15.5 4.5t-16.5 6.5t-14.5 7t-16 8t-14.5 8q-60 39 -86 39q-51 0 -59 -68h-119z" />
<glyph unicode="&#xc4;" horiz-adv-x="747" d="M0 0l547 1544h135l66 -1544h-154l-6 317h-328l-106 -317h-154zM303 442h281l-9 592q-1 46 1 98t5.5 119.5t4.5 98.5h-8q-12 -39 -42 -148.5t-49 -167.5zM420 1790q6 38 39 66t71 28t61 -28t17 -66t-38 -66t-70 -28t-62 28t-18 66zM707 1790q6 38 39 66t71 28t61 -28 t17 -66t-38.5 -66t-70.5 -28t-61.5 28t-17.5 66z" />
<glyph unicode="&#xc5;" horiz-adv-x="747" d="M0 0l547 1544h135l66 -1544h-154l-6 317h-328l-106 -317h-154zM303 442h281l-9 592q-1 46 1 98t5.5 119.5t4.5 98.5h-8q-12 -39 -42 -148.5t-49 -167.5zM469 1763q12 76 76 130.5t141 54.5q76 0 121 -54t33 -131t-74.5 -131.5t-138.5 -54.5q-77 0 -123.5 55t-34.5 131z M561 1763q-6 -38 18 -66t62 -28t69.5 28t37.5 66t-17 65t-61 27t-70.5 -27t-38.5 -65z" />
<glyph unicode="&#xc6;" horiz-adv-x="1087" d="M0 0l555 1544h508l2 -131h-342l16 -545h320l4 -131h-320l19 -606h325v-131h-477l-2 317h-350l-104 -317h-154zM301 442h305l-6 684q0 58 14 254h-6q-15 -42 -43.5 -127t-42.5 -127z" />
<glyph unicode="&#xc7;" horiz-adv-x="751" d="M168.5 456q0.5 76 6 137t15.5 124q9 57 16 96t23 111t32 125t43 123.5t56 122t71 105.5t88.5 87.5t107.5 55.5t129 22q48 0 96.5 -12.5t77.5 -36.5l-25 -158q-44 34 -82 50.5t-88 16.5q-60 0 -112 -27.5t-90 -78t-68 -110.5t-52.5 -138t-37 -146.5t-27.5 -148.5 q-7 -42 -11 -70.5t-10.5 -84t-8.5 -96.5t-1 -96.5t8 -95.5t21 -83t36.5 -69.5t57 -44t78.5 -17.5q95 0 203 69l-25 -145q-100 -63 -207 -63q-75 0 -132.5 27.5t-92.5 72t-57.5 108t-30.5 128t-7.5 140.5zM184 -406l222 322l98 -59l-244 -310z" />
<glyph unicode="&#xc8;" horiz-adv-x="692" d="M123 0l244 1544h485l-21 -131h-342l-86 -545h332l-20 -131h-332l-96 -606h342l-21 -131h-485zM451 1870l122 98l181 -276l-76 -62z" />
<glyph unicode="&#xc9;" horiz-adv-x="692" d="M123 0l244 1544h485l-21 -131h-342l-86 -545h332l-20 -131h-332l-96 -606h342l-21 -131h-485zM537 1692l266 276l94 -98l-305 -240z" />
<glyph unicode="&#xca;" horiz-adv-x="692" d="M123 0l244 1544h485l-21 -131h-342l-86 -545h332l-20 -131h-332l-96 -606h342l-21 -131h-485zM360 1704l291 250l221 -250l-88 -74l-155 176l-211 -176z" />
<glyph unicode="&#xcb;" horiz-adv-x="692" d="M123 0l244 1544h485l-21 -131h-342l-86 -545h332l-20 -131h-332l-96 -606h342l-21 -131h-485zM403 1790q6 38 39.5 66t71.5 28t61 -28t17 -66t-38.5 -66t-70.5 -28t-62 28t-18 66zM690 1790q6 38 39.5 66t71.5 28t61 -28t17 -66t-38.5 -66t-70.5 -28t-62 28t-18 66z" />
<glyph unicode="&#xcc;" horiz-adv-x="389" d="M123 0l244 1544h143l-244 -1544h-143zM299 1870l123 98l180 -276l-76 -62z" />
<glyph unicode="&#xcd;" horiz-adv-x="389" d="M123 0l244 1544h143l-244 -1544h-143zM324 1692l266 276l94 -98l-305 -240z" />
<glyph unicode="&#xce;" horiz-adv-x="389" d="M123 0l244 1544h143l-244 -1544h-143zM209 1704l291 250l221 -250l-88 -74l-156 176l-211 -176z" />
<glyph unicode="&#xcf;" horiz-adv-x="389" d="M123 0l244 1544h143l-244 -1544h-143zM240 1790q6 38 39 66t71 28t61 -28t17 -66t-38.5 -66t-70.5 -28t-61.5 28t-17.5 66zM526 1790q6 38 39.5 66t71.5 28t61 -28t17 -66t-38.5 -66t-70.5 -28t-62 28t-18 66z" />
<glyph unicode="&#xd0;" horiz-adv-x="843" d="M92 737l21 131h147l107 676h155q74 0 120.5 -4t101 -20t84.5 -47t58 -86t34.5 -134.5t0.5 -196t-30 -268.5q-25 -160 -52 -274.5t-63.5 -205.5t-80 -147.5t-104 -93.5t-133 -52t-169.5 -15h-166l117 737h-148zM287 131h41q89 0 156 35.5t104.5 78t67.5 129.5t40 136.5 t27 152.5q8 47 12 70q23 148 34 248.5t9 180t-17 125.5t-49 75.5t-80.5 40t-117.5 10.5h-25l-86 -545h140l-21 -131h-139z" />
<glyph unicode="&#xd1;" horiz-adv-x="890" d="M123 0l244 1544h125l184 -1073q10 -51 22 -160h7q2 23 5 64.5t6 76t7 64.5l162 1028h125l-244 -1544h-125l-184 1038q-7 36 -13 107.5t-8 91.5h-8q-27 -271 -31 -299l-149 -938h-125zM451 1706q15 65 68 115.5t124 50.5q34 0 99.5 -37t84.5 -37q25 0 42.5 20t19.5 44h121 q-12 -58 -64 -112t-121 -54q-10 0 -20.5 2t-18 4t-19.5 7t-16.5 7.5t-18.5 9.5t-17 9q-60 39 -86 39q-52 0 -60 -68h-118z" />
<glyph unicode="&#xd2;" horiz-adv-x="913" d="M167.5 458q3.5 84 11.5 156t22 158q14 91 30 167.5t39.5 160t51 149.5t66.5 126.5t84.5 101t104.5 64.5t128 24q72 0 126 -27t86 -70t50 -109t23.5 -131t1 -151t-12.5 -153t-21 -152q-9 -58 -17.5 -104t-23.5 -112t-31 -118.5t-40 -114t-50.5 -108.5t-63 -93t-77 -76 t-92.5 -48t-110 -18q-70 0 -123 25.5t-85 67.5t-50.5 106t-24.5 129.5t-2.5 149.5zM311 445q-1 -47 1.5 -101t14 -91t29.5 -69.5t48.5 -48.5t70.5 -16q46 0 86 23t69.5 58t56 91t44 108.5t34 125t26 125t20.5 122.5q10 61 16 107t13 109t7.5 110.5t-2 101t-14 91t-30 70 t-49 48.5t-70.5 16q-40 2 -75.5 -13t-63.5 -47t-51.5 -69.5t-43 -92t-33.5 -102t-27.5 -112t-21.5 -110t-18 -107.5t-16 -107t-13 -109t-8 -111zM530 1870l123 98l181 -276l-76 -62z" />
<glyph unicode="&#xd3;" horiz-adv-x="913" d="M167.5 458q3.5 84 11.5 156t22 158q14 91 30 167.5t39.5 160t51 149.5t66.5 126.5t84.5 101t104.5 64.5t128 24q72 0 126 -27t86 -70t50 -109t23.5 -131t1 -151t-12.5 -153t-21 -152q-9 -58 -17.5 -104t-23.5 -112t-31 -118.5t-40 -114t-50.5 -108.5t-63 -93t-77 -76 t-92.5 -48t-110 -18q-70 0 -123 25.5t-85 67.5t-50.5 106t-24.5 129.5t-2.5 149.5zM311 445q-1 -47 1.5 -101t14 -91t29.5 -69.5t48.5 -48.5t70.5 -16q46 0 86 23t69.5 58t56 91t44 108.5t34 125t26 125t20.5 122.5q10 61 16 107t13 109t7.5 110.5t-2 101t-14 91t-30 70 t-49 48.5t-70.5 16q-40 2 -75.5 -13t-63.5 -47t-51.5 -69.5t-43 -92t-33.5 -102t-27.5 -112t-21.5 -110t-18 -107.5t-16 -107t-13 -109t-8 -111zM616 1692l267 276l94 -98l-305 -240z" />
<glyph unicode="&#xd4;" horiz-adv-x="913" d="M167.5 458q3.5 84 11.5 156t22 158q14 91 30 167.5t39.5 160t51 149.5t66.5 126.5t84.5 101t104.5 64.5t128 24q72 0 126 -27t86 -70t50 -109t23.5 -131t1 -151t-12.5 -153t-21 -152q-9 -58 -17.5 -104t-23.5 -112t-31 -118.5t-40 -114t-50.5 -108.5t-63 -93t-77 -76 t-92.5 -48t-110 -18q-70 0 -123 25.5t-85 67.5t-50.5 106t-24.5 129.5t-2.5 149.5zM311 445q-1 -47 1.5 -101t14 -91t29.5 -69.5t48.5 -48.5t70.5 -16q46 0 86 23t69.5 58t56 91t44 108.5t34 125t26 125t20.5 122.5q10 61 16 107t13 109t7.5 110.5t-2 101t-14 91t-30 70 t-49 48.5t-70.5 16q-40 2 -75.5 -13t-63.5 -47t-51.5 -69.5t-43 -92t-33.5 -102t-27.5 -112t-21.5 -110t-18 -107.5t-16 -107t-13 -109t-8 -111zM471 1704l291 250l221 -250l-88 -74l-156 176l-211 -176z" />
<glyph unicode="&#xd5;" horiz-adv-x="913" d="M167.5 458q3.5 84 11.5 156t22 158q14 91 30 167.5t39.5 160t51 149.5t66.5 126.5t84.5 101t104.5 64.5t128 24q72 0 126 -27t86 -70t50 -109t23.5 -131t1 -151t-12.5 -153t-21 -152q-9 -58 -17.5 -104t-23.5 -112t-31 -118.5t-40 -114t-50.5 -108.5t-63 -93t-77 -76 t-92.5 -48t-110 -18q-70 0 -123 25.5t-85 67.5t-50.5 106t-24.5 129.5t-2.5 149.5zM311 445q-1 -47 1.5 -101t14 -91t29.5 -69.5t48.5 -48.5t70.5 -16q46 0 86 23t69.5 58t56 91t44 108.5t34 125t26 125t20.5 122.5q10 61 16 107t13 109t7.5 110.5t-2 101t-14 91t-30 70 t-49 48.5t-70.5 16q-40 2 -75.5 -13t-63.5 -47t-51.5 -69.5t-43 -92t-33.5 -102t-27.5 -112t-21.5 -110t-18 -107.5t-16 -107t-13 -109t-8 -111zM461 1706q15 65 68 115.5t124 50.5q34 0 100 -37t85 -37q25 0 42 20t19 44h121q-12 -58 -63.5 -112t-120.5 -54q-9 0 -17 1 t-17 4t-15.5 4.5t-16.5 6.5t-14.5 7t-16 8t-14.5 8q-60 39 -86 39q-51 0 -59 -68h-119z" />
<glyph unicode="&#xd6;" horiz-adv-x="913" d="M167.5 458q3.5 84 11.5 156t22 158q14 91 30 167.5t39.5 160t51 149.5t66.5 126.5t84.5 101t104.5 64.5t128 24q72 0 126 -27t86 -70t50 -109t23.5 -131t1 -151t-12.5 -153t-21 -152q-9 -58 -17.5 -104t-23.5 -112t-31 -118.5t-40 -114t-50.5 -108.5t-63 -93t-77 -76 t-92.5 -48t-110 -18q-70 0 -123 25.5t-85 67.5t-50.5 106t-24.5 129.5t-2.5 149.5zM311 445q-1 -47 1.5 -101t14 -91t29.5 -69.5t48.5 -48.5t70.5 -16q46 0 86 23t69.5 58t56 91t44 108.5t34 125t26 125t20.5 122.5q10 61 16 107t13 109t7.5 110.5t-2 101t-14 91t-30 70 t-49 48.5t-70.5 16q-40 2 -75.5 -13t-63.5 -47t-51.5 -69.5t-43 -92t-33.5 -102t-27.5 -112t-21.5 -110t-18 -107.5t-16 -107t-13 -109t-8 -111zM502 1790q6 38 39 66t71 28t61 -28t17 -66t-38 -66t-70 -28t-62 28t-18 66zM788 1790q6 38 39.5 66t71.5 28t61 -28t17 -66 t-38.5 -66t-70.5 -28t-62 28t-18 66z" />
<glyph unicode="&#xd7;" horiz-adv-x="909" d="M72 186l393 338l-285 338l86 74l283 -338l391 338l66 -72l-394 -340l285 -340l-86 -73l-285 340l-389 -336z" />
<glyph unicode="&#xd8;" horiz-adv-x="913" d="M53 25l133 206q-39 221 17 553q29 182 69.5 319.5t86.5 224t103.5 141t114 75.5t123.5 21q172 0 234 -138l88 138l82 -45l-129 -205q36 -214 -17 -543q-8 -51 -15.5 -93t-21.5 -106.5t-29.5 -116.5t-39 -115.5t-50 -112.5t-63 -97.5t-77 -80t-93 -51t-110.5 -19.5 q-167 0 -234 139l-88 -139zM309 418h4l525 870q-39 137 -156 137q-42 0 -72 -9t-69 -46.5t-69 -104.5t-63 -192t-61 -301q-27 -181 -39 -354zM328 264q29 -145 147 -145q81 0 140 59.5t108 204.5t88 389q26 170 39 350h-8z" />
<glyph unicode="&#xd9;" horiz-adv-x="880" d="M169 233.5q-1 32.5 3 80t9 84.5t14 91l165 1055h144l-166 -1046q-11 -72 -16 -117.5t-6.5 -93.5t6 -75t23.5 -50.5t44.5 -33t69.5 -9.5q49 0 84.5 16t59 42.5t41.5 77.5t29.5 104.5t24.5 138.5l166 1046h144l-166 -1055q-11 -69 -21 -118.5t-26.5 -106.5t-36.5 -95.5 t-50 -77t-67.5 -61t-89.5 -36.5t-115 -14q-51 0 -91 9t-69 23t-49.5 39t-33 50t-18 62.5t-6.5 70zM483 1870l123 98l180 -276l-75 -62z" />
<glyph unicode="&#xda;" horiz-adv-x="880" d="M169 233.5q-1 32.5 3 80t9 84.5t14 91l165 1055h144l-166 -1046q-11 -72 -16 -117.5t-6.5 -93.5t6 -75t23.5 -50.5t44.5 -33t69.5 -9.5q49 0 84.5 16t59 42.5t41.5 77.5t29.5 104.5t24.5 138.5l166 1046h144l-166 -1055q-11 -69 -21 -118.5t-26.5 -106.5t-36.5 -95.5 t-50 -77t-67.5 -61t-89.5 -36.5t-115 -14q-51 0 -91 9t-69 23t-49.5 39t-33 50t-18 62.5t-6.5 70zM631 1692l266 276l94 -98l-305 -240z" />
<glyph unicode="&#xdb;" horiz-adv-x="880" d="M169 233.5q-1 32.5 3 80t9 84.5t14 91l165 1055h144l-166 -1046q-11 -72 -16 -117.5t-6.5 -93.5t6 -75t23.5 -50.5t44.5 -33t69.5 -9.5q49 0 84.5 16t59 42.5t41.5 77.5t29.5 104.5t24.5 138.5l166 1046h144l-166 -1055q-11 -69 -21 -118.5t-26.5 -106.5t-36.5 -95.5 t-50 -77t-67.5 -61t-89.5 -36.5t-115 -14q-51 0 -91 9t-69 23t-49.5 39t-33 50t-18 62.5t-6.5 70zM455 1704l290 250l222 -250l-88 -74l-156 176l-211 -176z" />
<glyph unicode="&#xdc;" horiz-adv-x="880" d="M169 233.5q-1 32.5 3 80t9 84.5t14 91l165 1055h144l-166 -1046q-11 -72 -16 -117.5t-6.5 -93.5t6 -75t23.5 -50.5t44.5 -33t69.5 -9.5q49 0 84.5 16t59 42.5t41.5 77.5t29.5 104.5t24.5 138.5l166 1046h144l-166 -1055q-11 -69 -21 -118.5t-26.5 -106.5t-36.5 -95.5 t-50 -77t-67.5 -61t-89.5 -36.5t-115 -14q-51 0 -91 9t-69 23t-49.5 39t-33 50t-18 62.5t-6.5 70zM485 1790q6 38 39.5 66t71.5 28t61 -28t17 -66t-38.5 -66t-70.5 -28t-62 28t-18 66zM772 1790q6 38 39.5 66t71.5 28t61 -28t17 -66t-38.5 -66t-70.5 -28t-62 28t-18 66z" />
<glyph unicode="&#xdd;" horiz-adv-x="802" d="M283 1544h153l72 -520q5 -35 13.5 -104.5t13.5 -102.5h8q9 25 24 68.5t28 79.5t28 67l231 512h154l-420 -868l-107 -676h-143l106 676zM592 1692l266 276l94 -98l-305 -240z" />
<glyph unicode="&#xde;" horiz-adv-x="743" d="M123 0l244 1544h143l-51 -327q42 0 72 -1t68.5 -5.5t65.5 -13t57 -23t49 -35t36 -51t24.5 -69t7.5 -90.5t-10 -114q-44 -232 -142 -317.5t-318 -85.5h-37l-66 -412h-143zM352 543h56q51 0 87.5 6t64.5 21t46.5 34t33 52.5t23.5 69t19 89.5q26 159 -19 214.5t-196 55.5 h-29z" />
<glyph unicode="&#xdf;" horiz-adv-x="753" d="M113 0l147 926h-110l18 125h111l28 174q8 53 15.5 89.5t21 85t29.5 81.5t42 68.5t57.5 56.5t76 35t98.5 14q78 0 131.5 -27.5t77.5 -75t31.5 -111.5t-6.5 -136q-42 -263 -203 -318q34 -13 58 -40.5t37 -56.5t18 -76.5t5.5 -78.5t-5 -86.5t-8.5 -77t-11 -71.5 q-10 -59 -19 -103.5t-25.5 -99.5t-36 -94.5t-49.5 -80t-67 -65.5t-88 -41t-112 -16h-29l21 125h16q42 0 69.5 6.5t57 29.5t50.5 66.5t41.5 119t37.5 185.5q16 101 19.5 170t-2.5 112.5t-26 67.5t-45.5 33t-66.5 11h-24l18 125h14q102 0 147 48.5t64 170.5q6 38 8 68.5 t-1 68.5t-14.5 63t-38 42.5t-66.5 17.5q-37 0 -65.5 -16t-46.5 -39.5t-32.5 -64.5t-22 -77.5t-16.5 -91.5l-196 -1241h-133z" />
<glyph unicode="&#xe0;" horiz-adv-x="714" d="M119 303q5 97 26 234q10 63 18 104.5t23.5 102.5t32 101.5t43.5 86t58.5 72.5t76 45t97.5 18t87 -21.5t60 -66.5h4l10 72h133l-165 -1051h-134l13 82h-4q-78 -98 -189 -98q-53 0 -88.5 13.5t-62 49t-35.5 97.5t-4 159zM256.5 266.5q-0.5 -47.5 6 -81t14.5 -51.5t24 -27.5 t28.5 -12t32.5 -2.5q93 0 139 96.5t87 354.5q12 76 18.5 131.5t6.5 112t-10.5 92t-34.5 57.5t-62 22q-35 0 -65 -17t-51.5 -51t-38 -70t-29.5 -88.5t-20.5 -91t-16.5 -93.5q-14 -91 -21 -162t-7.5 -118.5zM373 1438l125 98l178 -276l-74 -62z" />
<glyph unicode="&#xe1;" horiz-adv-x="714" d="M119 303q5 97 26 234q10 63 18 104.5t23.5 102.5t32 101.5t43.5 86t58.5 72.5t76 45t97.5 18t87 -21.5t60 -66.5h4l10 72h133l-165 -1051h-134l13 82h-4q-78 -98 -189 -98q-53 0 -88.5 13.5t-62 49t-35.5 97.5t-4 159zM256.5 266.5q-0.5 -47.5 6 -81t14.5 -51.5t24 -27.5 t28.5 -12t32.5 -2.5q93 0 139 96.5t87 354.5q12 76 18.5 131.5t6.5 112t-10.5 92t-34.5 57.5t-62 22q-35 0 -65 -17t-51.5 -51t-38 -70t-29.5 -88.5t-20.5 -91t-16.5 -93.5q-14 -91 -21 -162t-7.5 -118.5zM459 1260l268 276l92 -98l-303 -240z" />
<glyph unicode="&#xe2;" horiz-adv-x="714" d="M119 303q5 97 26 234q10 63 18 104.5t23.5 102.5t32 101.5t43.5 86t58.5 72.5t76 45t97.5 18t87 -21.5t60 -66.5h4l10 72h133l-165 -1051h-134l13 82h-4q-78 -98 -189 -98q-53 0 -88.5 13.5t-62 49t-35.5 97.5t-4 159zM256.5 266.5q-0.5 -47.5 6 -81t14.5 -51.5t24 -27.5 t28.5 -12t32.5 -2.5q93 0 139 96.5t87 354.5q12 76 18.5 131.5t6.5 112t-10.5 92t-34.5 57.5t-62 22q-35 0 -65 -17t-51.5 -51t-38 -70t-29.5 -88.5t-20.5 -91t-16.5 -93.5q-14 -91 -21 -162t-7.5 -118.5zM303 1272l293 250l219 -250l-86 -74l-158 176l-209 -176z" />
<glyph unicode="&#xe3;" horiz-adv-x="714" d="M119 303q5 97 26 234q10 63 18 104.5t23.5 102.5t32 101.5t43.5 86t58.5 72.5t76 45t97.5 18t87 -21.5t60 -66.5h4l10 72h133l-165 -1051h-134l13 82h-4q-78 -98 -189 -98q-53 0 -88.5 13.5t-62 49t-35.5 97.5t-4 159zM256.5 266.5q-0.5 -47.5 6 -81t14.5 -51.5t24 -27.5 t28.5 -12t32.5 -2.5q93 0 139 96.5t87 354.5q12 76 18.5 131.5t6.5 112t-10.5 92t-34.5 57.5t-62 22q-35 0 -65 -17t-51.5 -51t-38 -70t-29.5 -88.5t-20.5 -91t-16.5 -93.5q-14 -91 -21 -162t-7.5 -118.5zM295 1274q15 65 67 115.5t123 50.5q34 0 101 -37t86 -37q24 0 41 20 t20 44h121q-14 -59 -65 -112.5t-119 -53.5q-40 0 -111 39q-63 38 -86 38q-51 0 -59 -67h-119z" />
<glyph unicode="&#xe4;" horiz-adv-x="714" d="M119 303q5 97 26 234q10 63 18 104.5t23.5 102.5t32 101.5t43.5 86t58.5 72.5t76 45t97.5 18t87 -21.5t60 -66.5h4l10 72h133l-165 -1051h-134l13 82h-4q-78 -98 -189 -98q-53 0 -88.5 13.5t-62 49t-35.5 97.5t-4 159zM256.5 266.5q-0.5 -47.5 6 -81t14.5 -51.5t24 -27.5 t28.5 -12t32.5 -2.5q93 0 139 96.5t87 354.5q12 76 18.5 131.5t6.5 112t-10.5 92t-34.5 57.5t-62 22q-35 0 -65 -17t-51.5 -51t-38 -70t-29.5 -88.5t-20.5 -91t-16.5 -93.5q-14 -91 -21 -162t-7.5 -118.5zM336 1358q6 38 38 66t70 28t62 -28t18 -66t-38 -66t-70 -28t-62 28 t-18 66zM623 1358q6 38 38 66t70 28t62 -28t18 -66t-38.5 -66t-70.5 -28t-61.5 28t-17.5 66z" />
<glyph unicode="&#xe5;" horiz-adv-x="714" d="M119 303q5 97 26 234q10 63 18 104.5t23.5 102.5t32 101.5t43.5 86t58.5 72.5t76 45t97.5 18t87 -21.5t60 -66.5h4l10 72h133l-165 -1051h-134l13 82h-4q-78 -98 -189 -98q-53 0 -88.5 13.5t-62 49t-35.5 97.5t-4 159zM256.5 266.5q-0.5 -47.5 6 -81t14.5 -51.5t24 -27.5 t28.5 -12t32.5 -2.5q93 0 139 96.5t87 354.5q12 76 18.5 131.5t6.5 112t-10.5 92t-34.5 57.5t-62 22q-35 0 -65 -17t-51.5 -51t-38 -70t-29.5 -88.5t-20.5 -91t-16.5 -93.5q-14 -91 -21 -162t-7.5 -118.5zM395 1391q10 76 74 130t141 54q76 0 121.5 -53.5t34.5 -130.5 q-12 -77 -75.5 -132t-139.5 -55t-122 55t-34 132zM487 1391q-6 -38 17 -66.5t61 -28.5t70.5 28.5t38.5 66.5t-17 65t-61 27t-70.5 -27t-38.5 -65z" />
<glyph unicode="&#xe6;" horiz-adv-x="1159" d="M110.5 226q-5.5 66 8.5 130q11 67 34 126t60.5 109t95 79.5t127.5 29.5q60 0 108 -22t72 -64h5l4 27q12 55 9.5 109t-16 96.5t-54.5 69t-107 26.5q-35 0 -72.5 -14t-59.5 -27t-63 -41l23 146q92 61 196 61q96 0 158 -49t80 -148h4q41 89 110 143t150 54q70 0 118 -35.5 t69 -88.5t28 -125t3 -133t-15 -124l-10 -63h-451l-4 -31q-6 -39 -9.5 -78t-1 -92.5t13.5 -92.5t39.5 -67t72.5 -28q119 0 165 217l9 30h137q-9 -51 -25 -100.5t-43.5 -99.5t-61.5 -87.5t-83 -61t-105 -23.5q-105 0 -152.5 48.5t-64.5 141.5h-4q-42 -89 -118.5 -139.5 t-163.5 -50.5q-73 0 -122 34t-68.5 88t-25 120zM242 268.5q2 -42.5 11 -78t38 -58.5t74 -23q90 0 144.5 68.5t68.5 158.5q9 40 6 85t-13.5 83t-43 63t-83.5 25q-38 0 -69 -15.5t-52 -39t-37 -56.5t-24.5 -64.5t-13.5 -66.5q-8 -39 -6 -81.5zM745 610h314q10 46 13.5 95.5 t-0.5 106.5t-31.5 93.5t-77.5 36.5q-47 0 -88 -37.5t-67 -94.5t-41.5 -107.5t-21.5 -92.5z" />
<glyph unicode="&#xe7;" horiz-adv-x="569" d="M72 -406l221 322l98 -59l-244 -310zM129 380q2 64 12 124q9 56 22.5 111.5t35 122.5t53.5 123t72 103.5t95.5 75t119.5 27.5q78 0 137 -41l-25 -154q-54 70 -114 70q-35 0 -67 -17.5t-55.5 -44.5t-44 -65.5t-34.5 -76t-25.5 -81t-18 -74t-11.5 -61.5q-6 -40 -10 -84 t-2 -105.5t12.5 -108.5t39.5 -81t74 -34q70 0 148 94h4l-27 -166q-72 -53 -160 -53q-69 0 -118 37.5t-72.5 93.5t-33 128.5t-7.5 136.5z" />
<glyph unicode="&#xe8;" horiz-adv-x="702" d="M126 323.5q0 55.5 4.5 102t12.5 96.5q9 53 22 106t34.5 118t52 119.5t69 101.5t91.5 73.5t114 26.5q70 0 118 -35.5t69 -88.5t28 -125t3 -133t-15 -124l-10 -63h-443l-4 -31q-6 -39 -9.5 -78t-1.5 -92t12.5 -92.5t37.5 -67.5t68 -28q33 0 61.5 18t46.5 44t32.5 62 t21.5 64.5t12 58.5h137q-9 -51 -25 -100t-43 -99.5t-61 -88t-83 -61t-105 -23.5q-57 0 -101 19t-71 50.5t-44.5 76.5t-24 91.5t-6.5 102zM297 610h305q14 132 12 179q-6 153 -108 153q-45 0 -84 -37.5t-63.5 -94t-40 -107.5t-21.5 -93zM367 1438l125 98l178 -276l-74 -62z " />
<glyph unicode="&#xe9;" horiz-adv-x="702" d="M126 323.5q0 55.5 4.5 102t12.5 96.5q9 53 22 106t34.5 118t52 119.5t69 101.5t91.5 73.5t114 26.5q70 0 118 -35.5t69 -88.5t28 -125t3 -133t-15 -124l-10 -63h-443l-4 -31q-6 -39 -9.5 -78t-1.5 -92t12.5 -92.5t37.5 -67.5t68 -28q33 0 61.5 18t46.5 44t32.5 62 t21.5 64.5t12 58.5h137q-9 -51 -25 -100t-43 -99.5t-61 -88t-83 -61t-105 -23.5q-57 0 -101 19t-71 50.5t-44.5 76.5t-24 91.5t-6.5 102zM297 610h305q14 132 12 179q-6 153 -108 153q-45 0 -84 -37.5t-63.5 -94t-40 -107.5t-21.5 -93zM453 1260l268 276l92 -98l-303 -240z " />
<glyph unicode="&#xea;" horiz-adv-x="702" d="M126 323.5q0 55.5 4.5 102t12.5 96.5q9 53 22 106t34.5 118t52 119.5t69 101.5t91.5 73.5t114 26.5q70 0 118 -35.5t69 -88.5t28 -125t3 -133t-15 -124l-10 -63h-443l-4 -31q-6 -39 -9.5 -78t-1.5 -92t12.5 -92.5t37.5 -67.5t68 -28q33 0 61.5 18t46.5 44t32.5 62 t21.5 64.5t12 58.5h137q-9 -51 -25 -100t-43 -99.5t-61 -88t-83 -61t-105 -23.5q-57 0 -101 19t-71 50.5t-44.5 76.5t-24 91.5t-6.5 102zM297 610h305q14 132 12 179q-6 153 -108 153q-45 0 -84 -37.5t-63.5 -94t-40 -107.5t-21.5 -93zM297 1272l293 250l219 -250l-86 -74 l-158 176l-209 -176z" />
<glyph unicode="&#xeb;" horiz-adv-x="702" d="M126 323.5q0 55.5 4.5 102t12.5 96.5q9 53 22 106t34.5 118t52 119.5t69 101.5t91.5 73.5t114 26.5q70 0 118 -35.5t69 -88.5t28 -125t3 -133t-15 -124l-10 -63h-443l-4 -31q-6 -39 -9.5 -78t-1.5 -92t12.5 -92.5t37.5 -67.5t68 -28q33 0 61.5 18t46.5 44t32.5 62 t21.5 64.5t12 58.5h137q-9 -51 -25 -100t-43 -99.5t-61 -88t-83 -61t-105 -23.5q-57 0 -101 19t-71 50.5t-44.5 76.5t-24 91.5t-6.5 102zM297 610h305q14 132 12 179q-6 153 -108 153q-45 0 -84 -37.5t-63.5 -94t-40 -107.5t-21.5 -93zM330 1358q6 38 38 66t70 28t62 -28 t18 -66t-38 -66t-70 -28t-62 28t-18 66zM616 1358q6 38 38.5 66t70.5 28t62 -28t18 -66t-38.5 -66t-70.5 -28t-62 28t-18 66z" />
<glyph unicode="&#xec;" horiz-adv-x="317" d="M92 0l166 1051h133l-166 -1051h-133zM195 1438l124 98l179 -276l-74 -62z" />
<glyph unicode="&#xed;" horiz-adv-x="317" d="M92 0l166 1051h133l-166 -1051h-133zM219 1260l268 276l93 -98l-304 -240z" />
<glyph unicode="&#xee;" horiz-adv-x="317" d="M92 0l166 1051h133l-166 -1051h-133zM104 1272l293 250l219 -250l-86 -74l-157 176l-209 -176z" />
<glyph unicode="&#xef;" horiz-adv-x="317" d="M92 0l166 1051h133l-166 -1051h-133zM137 1358q6 38 38.5 66t70.5 28t62 -28t18 -66t-38.5 -66t-70.5 -28t-62 28t-18 66zM424 1358q6 38 38 66t70 28t62 -28t18 -66t-38 -66t-70 -28t-62 28t-18 66z" />
<glyph unicode="&#xf0;" horiz-adv-x="724" d="M145 526q8 50 21 101.5t34.5 113.5t53 114.5t70 97.5t92 70.5t114.5 25.5q37 0 84 -23q-41 148 -88 242l-149 -84l-45 82l155 86q-62 119 -165 241l114 43q108 -120 162 -221l156 86l45 -80l-158 -88q182 -368 107 -807q-43 -196 -79 -284q-103 -258 -309 -258 q-305 0 -215 542zM264.5 305q1.5 -58 12 -100t36.5 -69t66 -27q32 0 58.5 13.5t48 41t39 62t33 84.5t27.5 99.5t25 116.5q9 59 14.5 99.5t9 95t-1.5 91t-17.5 70.5t-38.5 51t-64 17q-49 0 -89.5 -40.5t-67.5 -109t-43.5 -134t-28.5 -140.5q-10 -58 -15 -110.5t-3.5 -110.5z " />
<glyph unicode="&#xf1;" horiz-adv-x="727" d="M92 0l166 1051h133l-12 -84q103 100 223 100q45 0 77.5 -13t50 -37.5t27 -52.5t9.5 -67t-2.5 -71t-9.5 -74l-119 -752h-133l116 737q6 36 8.5 60t3.5 52t-4.5 45.5t-15.5 33.5t-29 23t-46 7q-44 0 -78 -19t-54 -45.5t-35 -67.5t-21.5 -71.5t-12.5 -72.5l-109 -682h-133z M301 1274q15 65 67.5 115.5t123.5 50.5q34 0 100.5 -37t85.5 -37q24 0 41 20t20 44h121q-14 -59 -65 -112.5t-119 -53.5q-40 0 -111 39q-63 38 -86 38q-51 0 -59 -67h-119z" />
<glyph unicode="&#xf2;" horiz-adv-x="727" d="M145 526q85 541 387 541q301 0 216 -541q-8 -50 -17 -93t-26 -101t-36.5 -103.5t-50 -93t-66.5 -79.5t-85.5 -52t-106.5 -20q-305 0 -215 542zM283 526q-65 -417 96 -417q38 0 71 23t56.5 63.5t41.5 82.5t31 95.5t19 85t12 67.5q4 28 5 37t5.5 44t5 53.5t2 54.5 t-1.5 57.5t-6.5 51.5t-13 48t-21.5 36t-31 26t-42 8q-38 0 -71 -23t-56.5 -63.5t-41.5 -83.5t-30.5 -94.5t-18.5 -85t-11 -66.5zM358 1438l125 98l179 -276l-74 -62z" />
<glyph unicode="&#xf3;" horiz-adv-x="727" d="M145 526q85 541 387 541q301 0 216 -541q-8 -50 -17 -93t-26 -101t-36.5 -103.5t-50 -93t-66.5 -79.5t-85.5 -52t-106.5 -20q-305 0 -215 542zM283 526q-65 -417 96 -417q38 0 71 23t56.5 63.5t41.5 82.5t31 95.5t19 85t12 67.5q4 28 5 37t5.5 44t5 53.5t2 54.5 t-1.5 57.5t-6.5 51.5t-13 48t-21.5 36t-31 26t-42 8q-38 0 -71 -23t-56.5 -63.5t-41.5 -83.5t-30.5 -94.5t-18.5 -85t-11 -66.5zM465 1260l268 276l92 -98l-303 -240z" />
<glyph unicode="&#xf4;" horiz-adv-x="727" d="M145 526q85 541 387 541q301 0 216 -541q-8 -50 -17 -93t-26 -101t-36.5 -103.5t-50 -93t-66.5 -79.5t-85.5 -52t-106.5 -20q-305 0 -215 542zM283 526q-65 -417 96 -417q38 0 71 23t56.5 63.5t41.5 82.5t31 95.5t19 85t12 67.5q4 28 5 37t5.5 44t5 53.5t2 54.5 t-1.5 57.5t-6.5 51.5t-13 48t-21.5 36t-31 26t-42 8q-38 0 -71 -23t-56.5 -63.5t-41.5 -83.5t-30.5 -94.5t-18.5 -85t-11 -66.5zM309 1272l293 250l219 -250l-86 -74l-157 176l-209 -176z" />
<glyph unicode="&#xf5;" horiz-adv-x="727" d="M145 526q85 541 387 541q301 0 216 -541q-8 -50 -17 -93t-26 -101t-36.5 -103.5t-50 -93t-66.5 -79.5t-85.5 -52t-106.5 -20q-305 0 -215 542zM283 526q-65 -417 96 -417q38 0 71 23t56.5 63.5t41.5 82.5t31 95.5t19 85t12 67.5q4 28 5 37t5.5 44t5 53.5t2 54.5 t-1.5 57.5t-6.5 51.5t-13 48t-21.5 36t-31 26t-42 8q-38 0 -71 -23t-56.5 -63.5t-41.5 -83.5t-30.5 -94.5t-18.5 -85t-11 -66.5zM301 1274q15 65 67.5 115.5t123.5 50.5q34 0 100.5 -37t85.5 -37q24 0 41 20t20 44h121q-14 -59 -65 -112.5t-119 -53.5q-40 0 -111 39 q-63 38 -86 38q-51 0 -59 -67h-119z" />
<glyph unicode="&#xf6;" horiz-adv-x="727" d="M145 526q85 541 387 541q301 0 216 -541q-8 -50 -17 -93t-26 -101t-36.5 -103.5t-50 -93t-66.5 -79.5t-85.5 -52t-106.5 -20q-305 0 -215 542zM283 526q-65 -417 96 -417q38 0 71 23t56.5 63.5t41.5 82.5t31 95.5t19 85t12 67.5q4 28 5 37t5.5 44t5 53.5t2 54.5 t-1.5 57.5t-6.5 51.5t-13 48t-21.5 36t-31 26t-42 8q-38 0 -71 -23t-56.5 -63.5t-41.5 -83.5t-30.5 -94.5t-18.5 -85t-11 -66.5zM342 1358q6 38 38.5 66t70.5 28t61.5 -28t17.5 -66t-38 -66t-70 -28t-62 28t-18 66zM629 1358q6 38 38 66t70 28t62 -28t18 -66t-38 -66 t-70 -28t-62 28t-18 66z" />
<glyph unicode="&#xf7;" horiz-adv-x="909" d="M119 473l16 105h826l-17 -105h-825zM373 127q6 43 42 73.5t79 30.5t68.5 -30.5t19.5 -73.5q-8 -43 -43 -73.5t-78 -30.5t-69 30.5t-19 73.5zM498 924q7 43 43.5 73.5t79.5 30.5t68 -30.5t18 -73.5q-6 -43 -42 -74t-79 -31t-68.5 31t-19.5 74z" />
<glyph unicode="&#xf8;" horiz-adv-x="727" d="M35 35l106 145q-28 137 4 344q8 50 18 96.5t27.5 102.5t38.5 103t52.5 93t68 77.5t86 51t105.5 19.5q119 0 178 -100l76 100l63 -45l-104 -143q28 -133 -6 -355q-8 -51 -17 -93t-25.5 -100t-35.5 -103t-49 -93t-64.5 -79.5t-83 -51.5t-104.5 -20q-134 0 -197 104l-72 -96 zM262 332h4l350 512q-7 40 -33 69t-65 29q-34 0 -64.5 -17.5t-52 -45t-40.5 -67t-31 -76t-22.5 -80.5t-15.5 -72.5t-9 -59.5q-7 -43 -21 -192zM272 211q11 -45 39.5 -73.5t73.5 -28.5q36 0 68 23t54.5 63t40.5 82.5t30.5 94.5t19.5 85t12 67q5 37 10 105.5t7 85.5h-4z" />
<glyph unicode="&#xf9;" horiz-adv-x="716" d="M129 279l121 772h133l-104 -660q-7 -42 -10 -71t-4.5 -65t4 -59.5t17 -44.5t33.5 -31.5t54 -10.5q33 0 59 10t44.5 32t31.5 44.5t23.5 60t16 64t13.5 71.5l105 660h133l-121 -772q-23 -137 -104 -216t-218 -79q-136 0 -192.5 78.5t-34.5 216.5zM352 1438l125 98l178 -276 l-73 -62z" />
<glyph unicode="&#xfa;" horiz-adv-x="716" d="M129 279l121 772h133l-104 -660q-7 -42 -10 -71t-4.5 -65t4 -59.5t17 -44.5t33.5 -31.5t54 -10.5q33 0 59 10t44.5 32t31.5 44.5t23.5 60t16 64t13.5 71.5l105 660h133l-121 -772q-23 -137 -104 -216t-218 -79q-136 0 -192.5 78.5t-34.5 216.5zM459 1260l268 276l92 -98 l-303 -240z" />
<glyph unicode="&#xfb;" horiz-adv-x="716" d="M129 279l121 772h133l-104 -660q-7 -42 -10 -71t-4.5 -65t4 -59.5t17 -44.5t33.5 -31.5t54 -10.5q33 0 59 10t44.5 32t31.5 44.5t23.5 60t16 64t13.5 71.5l105 660h133l-121 -772q-23 -137 -104 -216t-218 -79q-136 0 -192.5 78.5t-34.5 216.5zM303 1272l293 250 l219 -250l-86 -74l-158 176l-209 -176z" />
<glyph unicode="&#xfc;" horiz-adv-x="716" d="M129 279l121 772h133l-104 -660q-7 -42 -10 -71t-4.5 -65t4 -59.5t17 -44.5t33.5 -31.5t54 -10.5q33 0 59 10t44.5 32t31.5 44.5t23.5 60t16 64t13.5 71.5l105 660h133l-121 -772q-23 -137 -104 -216t-218 -79q-136 0 -192.5 78.5t-34.5 216.5zM336 1358q6 38 38 66 t70 28t62 -28t18 -66t-38 -66t-70 -28t-62 28t-18 66zM623 1358q6 38 38 66t70 28t62 -28t18 -66t-38.5 -66t-70.5 -28t-61.5 28t-17.5 66z" />
<glyph unicode="&#xfd;" horiz-adv-x="679" d="M98 -401l172 430l-88 1022h135l43 -848h7q8 23 43 120.5t55 149.5l225 578h139l-591 -1452h-140zM461 1260l268 276l92 -98l-303 -240z" />
<glyph unicode="&#xfe;" horiz-adv-x="714" d="M29 -401l297 1876h133l-78 -496h4q76 88 178 88q50 0 87 -16t60 -42.5t35.5 -68.5t16.5 -84t1 -100t-9.5 -106.5t-16.5 -112.5q-17 -109 -33.5 -185.5t-43.5 -150.5t-61 -118.5t-84 -71.5t-114 -27q-108 0 -159 98h-4l-76 -483h-133zM272.5 310q-0.5 -33 1 -69.5t9 -61 t19.5 -46t32 -31.5t47 -10q33 0 59 12t47 39.5t36.5 62t30 89.5t25 112.5t23.5 139.5q6 38 9.5 63.5t8.5 66.5t5 70t-1.5 64.5t-9.5 59t-20.5 45t-33 32t-48.5 10.5q-34 0 -62 -16.5t-49 -50t-36 -67.5t-28 -87.5t-20 -89.5t-16 -92q-8 -49 -12.5 -84.5t-10 -81.5t-6 -79z " />
<glyph unicode="&#xff;" horiz-adv-x="679" d="M98 -401l172 430l-88 1022h135l43 -848h7q8 23 43 120.5t55 149.5l225 578h139l-591 -1452h-140zM317 1358q6 38 38.5 66t70.5 28t62 -28t18 -66t-38.5 -66t-70.5 -28t-62 28t-18 66zM604 1358q6 38 38.5 66t70.5 28t62 -28t18 -66t-38.5 -66t-70.5 -28t-62 28t-18 66z " />
<glyph unicode="&#x152;" horiz-adv-x="1255" d="M168 355q-2 67 0 118t9 118.5t12.5 105.5t13.5 91q10 64 21 120.5t33 139t47 149.5t64 138t84 119.5t107 79.5t133 31q72 0 127 -44.5t78 -113.5h4l21 137h477l-21 -131h-342l-86 -545h332l-20 -131h-332l-96 -606h342l-21 -131h-477l24 160h-4q-41 -80 -113 -130 t-153 -50q-57 0 -101 20.5t-73.5 53t-48.5 84t-29 101t-12 116.5zM312.5 484.5q-6.5 -105.5 4 -191.5t48 -130t102.5 -44q57 0 100 22t75.5 64.5t58.5 120t46.5 171.5t43.5 236q15 95 24.5 164.5t17 140.5t7.5 120t-4 95.5t-16.5 76t-32 52.5t-48.5 33t-67 10 q-224 0 -330 -692q-23 -143 -29.5 -248.5z" />
<glyph unicode="&#x153;" horiz-adv-x="1146" d="M130.5 240.5q-9.5 120.5 14.5 285.5q8 52 20.5 104t33 116.5t50.5 119t68 101t91 73.5t114 27q83 0 132.5 -67.5t47.5 -153.5h5q30 88 106 154.5t158 66.5q70 0 118 -35.5t69 -88.5t28 -125t3 -133t-15 -124l-11 -63h-448l-4 -31q-6 -39 -9.5 -78t-1.5 -92.5t13 -92.5 t39 -67t71 -28q120 0 166 217l8 30h138q-9 -51 -25 -100.5t-43.5 -99.5t-61.5 -87.5t-83 -61t-105 -23.5q-90 0 -146.5 59.5t-64.5 161.5h-4q-34 -93 -102 -157t-156 -64q-95 0 -149.5 68t-64 188.5zM268 290.5q4 -42.5 13.5 -85.5t33 -68.5t58.5 -27.5q40 0 76 34.5 t60 82.5t43.5 110.5t29.5 108.5t16 85q5 33 8.5 64t7 83.5t-1 94.5t-14 83t-33.5 64t-59 23q-50 4 -91.5 -41t-67.5 -119.5t-40.5 -134.5t-23.5 -119q-5 -32 -8 -60t-7 -81.5t0 -96zM735 610h312q14 134 11 183q-8 149 -108 149q-47 0 -87 -37.5t-65.5 -94.5t-41 -107.5 t-21.5 -92.5z" />
<glyph unicode="&#x178;" horiz-adv-x="802" d="M283 1544h153l72 -520q5 -35 13.5 -104.5t13.5 -102.5h8q9 25 24 68.5t28 79.5t28 67l231 512h154l-420 -868l-107 -676h-143l106 676zM459 1790q6 38 39 66t71 28t61 -28t17 -66t-38 -66t-70 -28t-62 28t-18 66zM745 1790q6 38 39.5 66t71.5 28t61 -28t17 -66t-38.5 -66 t-70.5 -28t-62 28t-18 66z" />
<glyph unicode="&#x2c6;" horiz-adv-x="573" d="M231 1272l293 250l219 -250l-86 -74l-157 176l-209 -176z" />
<glyph unicode="&#x2dc;" horiz-adv-x="573" d="M223 1274q15 65 67.5 115.5t123.5 50.5q34 0 100.5 -37t85.5 -37q24 0 41.5 20t20.5 44h120q-14 -59 -65 -112.5t-119 -53.5q-40 0 -111 39q-63 38 -86 38q-51 0 -59 -67h-119z" />
<glyph unicode="&#x2000;" horiz-adv-x="984" />
<glyph unicode="&#x2001;" horiz-adv-x="1968" />
<glyph unicode="&#x2002;" horiz-adv-x="984" />
<glyph unicode="&#x2003;" horiz-adv-x="1968" />
<glyph unicode="&#x2004;" horiz-adv-x="656" />
<glyph unicode="&#x2005;" horiz-adv-x="492" />
<glyph unicode="&#x2006;" horiz-adv-x="328" />
<glyph unicode="&#x2007;" horiz-adv-x="328" />
<glyph unicode="&#x2008;" horiz-adv-x="246" />
<glyph unicode="&#x2009;" horiz-adv-x="393" />
<glyph unicode="&#x200a;" horiz-adv-x="109" />
<glyph unicode="&#x2010;" horiz-adv-x="319" d="M90 573l27 162h319l-26 -162h-320z" />
<glyph unicode="&#x2011;" horiz-adv-x="319" d="M90 573l27 162h319l-26 -162h-320z" />
<glyph unicode="&#x2012;" horiz-adv-x="319" d="M90 573l27 162h319l-26 -162h-320z" />
<glyph unicode="&#x2013;" horiz-adv-x="1024" d="M90 573l27 162h1024l-27 -162h-1024z" />
<glyph unicode="&#x2014;" horiz-adv-x="2048" d="M356 573l27 162h1515l-26 -162h-1516z" />
<glyph unicode="&#x2018;" horiz-adv-x="458" d="M254 1108l276 457l91 -47l-236 -478z" />
<glyph unicode="&#x2019;" horiz-adv-x="458" d="M250 1087l235 478l133 -68l-278 -457z" />
<glyph unicode="&#x201a;" horiz-adv-x="458" d="M-29 -283l236 478l133 -68l-279 -457z" />
<glyph unicode="&#x201c;" horiz-adv-x="733" d="M254 1108l276 457l91 -47l-236 -478zM526 1108l277 457l92 -47l-236 -478z" />
<glyph unicode="&#x201d;" horiz-adv-x="733" d="M250 1087l235 478l133 -68l-278 -457zM524 1087l236 478l133 -68l-279 -457z" />
<glyph unicode="&#x201e;" horiz-adv-x="733" d="M33 -283l235 478l133 -68l-278 -457zM307 -283l236 478l133 -68l-279 -457z" />
<glyph unicode="&#x2022;" horiz-adv-x="849" d="M164 774q25 157 157 271t291 114q103 0 183 -52.5t117.5 -141t21.5 -191.5q-25 -156 -157 -270.5t-288 -114.5q-159 0 -254.5 114.5t-70.5 270.5z" />
<glyph unicode="&#x2026;" horiz-adv-x="2048" d="M250 88q6 43 42 74t79 31t68.5 -31t19.5 -74q-8 -43 -43 -73.5t-78 -30.5t-69 30.5t-19 73.5zM934 88q6 43 42 74t79 31t68.5 -31t19.5 -74q-8 -43 -43 -73.5t-78 -30.5t-69 30.5t-19 73.5zM1618 88q6 43 42 74t79 31t68.5 -31t19.5 -74q-8 -43 -43 -73.5t-78 -30.5 t-69 30.5t-19 73.5z" />
<glyph unicode="&#x202f;" horiz-adv-x="393" />
<glyph unicode="&#x2039;" horiz-adv-x="509" d="M195 647l323 449l80 -52l-283 -397l158 -387l-96 -49z" />
<glyph unicode="&#x203a;" horiz-adv-x="509" d="M119 262l282 397l-157 388l96 49l182 -437l-323 -448z" />
<glyph unicode="&#x205f;" horiz-adv-x="492" />
<glyph unicode="&#x20ac;" d="M137 575l45 109h84q4 45 13 86q11 73 16 92h-113l45 111h92q64 287 180.5 437.5t297.5 150.5q157 0 219 -62l-23 -135q-52 72 -196 72q-249 0 -344 -463h405l-45 -111h-383q-14 -61 -16 -92q-4 -17 -8 -49t-5 -37h338l-45 -109h-303q-29 -238 22 -354.5t171 -116.5 q138 0 223 72l-23 -137q-73 -57 -239 -57q-84 0 -143.5 32.5t-98 103.5t-48.5 183.5t5 273.5h-123z" />
<glyph unicode="&#x2122;" horiz-adv-x="1478" d="M344 1440l16 104h482l-17 -104h-188l-119 -758h-104l118 758h-188zM799 682l135 862h180l57 -608h5l256 608h176l-135 -862h-105l119 754h-4l-312 -754h-73l-72 754h-4l-119 -754h-104z" />
<glyph unicode="&#xe000;" horiz-adv-x="1054" d="M0 0v1055h1055v-1055h-1055z" />
</font>
</defs>
</svg>
